<ttFont>
    <TTGlyph name=".notdef" xMin="177" yMin="0" xMax="1593" yMax="1416">
      <contour>
        <pt x="177" y="1416" on="1"/>
        <pt x="1593" y="1416" on="1"/>
        <pt x="1593" y="0" on="1"/>
        <pt x="177" y="0" on="1"/>
      </contour>
      <contour>
        <pt x="559" y="252" on="1"/>
        <pt x="883" y="605" on="1"/>
        <pt x="1220" y="252" on="1"/>
        <pt x="1333" y="365" on="1"/>
        <pt x="985" y="708" on="1"/>
        <pt x="1333" y="1042" on="1"/>
        <pt x="1214" y="1158" on="1"/>
        <pt x="886" y="807" on="1"/>
        <pt x="553" y="1159" on="1"/>
        <pt x="439" y="1043" on="1"/>
        <pt x="783" y="705" on="1"/>
        <pt x="440" y="387" on="1"/>
      </contour>
    </TTGlyph>
    <TTGlyph name="A" xMin="-51" yMin="0" xMax="1501" yMax="1528">
      <contour>
        <pt x="-51" y="137" on="1"/>
        <pt x="78" y="165" on="1"/>
        <pt x="560" y="1528" on="1"/>
        <pt x="881" y="1528" on="1"/>
        <pt x="1362" y="165" on="1"/>
        <pt x="1501" y="137" on="1"/>
        <pt x="1501" y="0" on="1"/>
        <pt x="852" y="0" on="1"/>
        <pt x="852" y="137" on="1"/>
        <pt x="1015" y="165" on="1"/>
        <pt x="940" y="409" on="1"/>
        <pt x="397" y="409" on="1"/>
        <pt x="326" y="164" on="1"/>
        <pt x="491" y="137" on="1"/>
        <pt x="491" y="0" on="1"/>
        <pt x="-50" y="0" on="1"/>
      </contour>
      <contour>
        <pt x="892" y="565" on="1"/>
        <pt x="695" y="1210" on="1"/>
        <pt x="660" y="1356" on="1"/>
        <pt x="628" y="1210" on="1"/>
        <pt x="442" y="565" on="1"/>
      </contour>
    </TTGlyph>
    <TTGlyph name="AE" xMin="-131" yMin="0" xMax="1909" yMax="1522">
      <contour>
        <pt x="-131" y="135" on="1"/>
        <pt x="15" y="164" on="1"/>
        <pt x="505" y="1357" on="1"/>
        <pt x="242" y="1388" on="1"/>
        <pt x="242" y="1522" on="1"/>
        <pt x="1745" y="1522" on="1"/>
        <pt x="1772" y="1172" on="1"/>
        <pt x="1597" y="1172" on="1"/>
        <pt x="1524" y="1373" on="1"/>
        <pt x="1123" y="1389" on="1"/>
        <pt x="1123" y="847" on="1"/>
        <pt x="1380" y="851" on="1"/>
        <pt x="1410" y="1020" on="1"/>
        <pt x="1577" y="1020" on="1"/>
        <pt x="1577" y="528" on="1"/>
        <pt x="1410" y="528" on="1"/>
        <pt x="1380" y="695" on="1"/>
        <pt x="1123" y="701" on="1"/>
        <pt x="1123" y="149" on="1"/>
        <pt x="1608" y="176" on="1"/>
        <pt x="1738" y="442" on="1"/>
        <pt x="1909" y="401" on="1"/>
        <pt x="1841" y="0" on="1"/>
        <pt x="646" y="0" on="1"/>
        <pt x="646" y="126" on="1"/>
        <pt x="811" y="151" on="1"/>
        <pt x="811" y="419" on="1"/>
        <pt x="354" y="419" on="1"/>
        <pt x="264" y="163" on="1"/>
        <pt x="412" y="135" on="1"/>
        <pt x="412" y="0" on="1"/>
        <pt x="-131" y="0" on="1"/>
      </contour>
      <contour>
        <pt x="811" y="576" on="1"/>
        <pt x="811" y="1374" on="1"/>
        <pt x="690" y="1374" on="1"/>
        <pt x="593" y="1100" on="1"/>
        <pt x="409" y="576" on="1"/>
      </contour>
    </TTGlyph>
    <TTGlyph name="AEacute" xMin="-131" yMin="0" xMax="1909" yMax="2014">
      <contour>
        <pt x="836" y="1692" on="1"/>
        <pt x="1153" y="2014" on="1"/>
        <pt x="1154" y="2014" on="1"/>
        <pt x="1351" y="1873" on="1"/>
        <pt x="1334" y="1845" on="0"/>
        <pt x="1274" y="1788" on="0"/>
        <pt x="1201" y="1732" on="0"/>
        <pt x="1120" y="1681" on="0"/>
        <pt x="1044" y="1640" on="0"/>
        <pt x="977" y="1610" on="0"/>
        <pt x="955" y="1604" on="1"/>
        <pt x="954" y="1604" on="1"/>
      </contour>
      <contour>
        <pt x="-131" y="135" on="1"/>
        <pt x="15" y="164" on="1"/>
        <pt x="505" y="1357" on="1"/>
        <pt x="242" y="1388" on="1"/>
        <pt x="242" y="1522" on="1"/>
        <pt x="1745" y="1522" on="1"/>
        <pt x="1772" y="1172" on="1"/>
        <pt x="1597" y="1172" on="1"/>
        <pt x="1524" y="1373" on="1"/>
        <pt x="1123" y="1389" on="1"/>
        <pt x="1123" y="847" on="1"/>
        <pt x="1380" y="851" on="1"/>
        <pt x="1410" y="1020" on="1"/>
        <pt x="1577" y="1020" on="1"/>
        <pt x="1577" y="528" on="1"/>
        <pt x="1410" y="528" on="1"/>
        <pt x="1380" y="695" on="1"/>
        <pt x="1123" y="701" on="1"/>
        <pt x="1123" y="149" on="1"/>
        <pt x="1608" y="176" on="1"/>
        <pt x="1738" y="442" on="1"/>
        <pt x="1909" y="401" on="1"/>
        <pt x="1841" y="0" on="1"/>
        <pt x="646" y="0" on="1"/>
        <pt x="646" y="126" on="1"/>
        <pt x="811" y="151" on="1"/>
        <pt x="811" y="419" on="1"/>
        <pt x="354" y="419" on="1"/>
        <pt x="264" y="163" on="1"/>
        <pt x="412" y="135" on="1"/>
        <pt x="412" y="0" on="1"/>
        <pt x="-131" y="0" on="1"/>
      </contour>
      <contour>
        <pt x="811" y="576" on="1"/>
        <pt x="811" y="1374" on="1"/>
        <pt x="690" y="1374" on="1"/>
        <pt x="593" y="1100" on="1"/>
        <pt x="409" y="576" on="1"/>
      </contour>
    </TTGlyph>
    <TTGlyph name="Aacute" xMin="-48" yMin="0" xMax="1504" yMax="2014">
      <contour>
        <pt x="-48" y="137" on="1"/>
        <pt x="81" y="165" on="1"/>
        <pt x="563" y="1528" on="1"/>
        <pt x="884" y="1528" on="1"/>
        <pt x="1365" y="165" on="1"/>
        <pt x="1504" y="137" on="1"/>
        <pt x="1504" y="0" on="1"/>
        <pt x="855" y="0" on="1"/>
        <pt x="855" y="137" on="1"/>
        <pt x="1018" y="165" on="1"/>
        <pt x="943" y="409" on="1"/>
        <pt x="400" y="409" on="1"/>
        <pt x="329" y="164" on="1"/>
        <pt x="494" y="137" on="1"/>
        <pt x="494" y="0" on="1"/>
        <pt x="-47" y="0" on="1"/>
      </contour>
      <contour>
        <pt x="895" y="565" on="1"/>
        <pt x="698" y="1210" on="1"/>
        <pt x="663" y="1356" on="1"/>
        <pt x="631" y="1210" on="1"/>
        <pt x="445" y="565" on="1"/>
      </contour>
      <contour>
        <pt x="567" y="1692" on="1"/>
        <pt x="884" y="2014" on="1"/>
        <pt x="885" y="2014" on="1"/>
        <pt x="1082" y="1873" on="1"/>
        <pt x="1065" y="1845" on="0"/>
        <pt x="1005" y="1788" on="0"/>
        <pt x="932" y="1732" on="0"/>
        <pt x="851" y="1681" on="0"/>
        <pt x="775" y="1640" on="0"/>
        <pt x="708" y="1610" on="0"/>
        <pt x="686" y="1604" on="1"/>
        <pt x="685" y="1604" on="1"/>
      </contour>
    </TTGlyph>
    <TTGlyph name="Abreve" xMin="-48" yMin="0" xMax="1504" yMax="2005">
      <contour>
        <pt x="-48" y="137" on="1"/>
        <pt x="81" y="165" on="1"/>
        <pt x="563" y="1528" on="1"/>
        <pt x="884" y="1528" on="1"/>
        <pt x="1365" y="165" on="1"/>
        <pt x="1504" y="137" on="1"/>
        <pt x="1504" y="0" on="1"/>
        <pt x="855" y="0" on="1"/>
        <pt x="855" y="137" on="1"/>
        <pt x="1018" y="165" on="1"/>
        <pt x="943" y="409" on="1"/>
        <pt x="400" y="409" on="1"/>
        <pt x="329" y="164" on="1"/>
        <pt x="494" y="137" on="1"/>
        <pt x="494" y="0" on="1"/>
        <pt x="-47" y="0" on="1"/>
      </contour>
      <contour>
        <pt x="895" y="565" on="1"/>
        <pt x="698" y="1210" on="1"/>
        <pt x="663" y="1356" on="1"/>
        <pt x="631" y="1210" on="1"/>
        <pt x="445" y="565" on="1"/>
      </contour>
      <contour>
        <pt x="729" y="1621" on="1"/>
        <pt x="636" y="1621" on="0"/>
        <pt x="497" y="1677" on="0"/>
        <pt x="404" y="1771" on="0"/>
        <pt x="358" y="1894" on="0"/>
        <pt x="358" y="1960" on="1"/>
        <pt x="358" y="1982" on="0"/>
        <pt x="361" y="2005" on="1"/>
        <pt x="512" y="2005" on="1"/>
        <pt x="512" y="2001" on="0"/>
        <pt x="513" y="1990" on="0"/>
        <pt x="514" y="1982" on="1"/>
        <pt x="518" y="1961" on="0"/>
        <pt x="541" y="1906" on="0"/>
        <pt x="590" y="1857" on="0"/>
        <pt x="670" y="1822" on="0"/>
        <pt x="731" y="1822" on="1"/>
        <pt x="792" y="1822" on="0"/>
        <pt x="870" y="1857" on="0"/>
        <pt x="916" y="1907" on="0"/>
        <pt x="936" y="1962" on="0"/>
        <pt x="939" y="1982" on="1"/>
        <pt x="940" y="1990" on="0"/>
        <pt x="940" y="2001" on="0"/>
        <pt x="940" y="2005" on="1"/>
        <pt x="1093" y="2005" on="1"/>
        <pt x="1094" y="1994" on="0"/>
        <pt x="1095" y="1973" on="0"/>
        <pt x="1095" y="1962" on="1"/>
        <pt x="1095" y="1896" on="0"/>
        <pt x="1048" y="1772" on="0"/>
        <pt x="955" y="1678" on="0"/>
        <pt x="818" y="1621" on="0"/>
      </contour>
    </TTGlyph>
    <TTGlyph name="Acircumflex" xMin="-48" yMin="0" xMax="1504" yMax="2014">
      <contour>
        <pt x="-48" y="137" on="1"/>
        <pt x="81" y="165" on="1"/>
        <pt x="563" y="1528" on="1"/>
        <pt x="884" y="1528" on="1"/>
        <pt x="1365" y="165" on="1"/>
        <pt x="1504" y="137" on="1"/>
        <pt x="1504" y="0" on="1"/>
        <pt x="855" y="0" on="1"/>
        <pt x="855" y="137" on="1"/>
        <pt x="1018" y="165" on="1"/>
        <pt x="943" y="409" on="1"/>
        <pt x="400" y="409" on="1"/>
        <pt x="329" y="164" on="1"/>
        <pt x="494" y="137" on="1"/>
        <pt x="494" y="0" on="1"/>
        <pt x="-47" y="0" on="1"/>
      </contour>
      <contour>
        <pt x="895" y="565" on="1"/>
        <pt x="698" y="1210" on="1"/>
        <pt x="663" y="1356" on="1"/>
        <pt x="631" y="1210" on="1"/>
        <pt x="445" y="565" on="1"/>
      </contour>
      <contour>
        <pt x="330" y="1701" on="1"/>
        <pt x="623" y="2014" on="1"/>
        <pt x="823" y="2014" on="1"/>
        <pt x="1117" y="1702" on="1"/>
        <pt x="1009" y="1616" on="1"/>
        <pt x="723" y="1813" on="1"/>
        <pt x="435" y="1616" on="1"/>
      </contour>
    </TTGlyph>
    <TTGlyph name="Adieresis" xMin="-48" yMin="0" xMax="1504" yMax="1996">
      <contour>
        <pt x="-48" y="137" on="1"/>
        <pt x="81" y="165" on="1"/>
        <pt x="563" y="1528" on="1"/>
        <pt x="884" y="1528" on="1"/>
        <pt x="1365" y="165" on="1"/>
        <pt x="1504" y="137" on="1"/>
        <pt x="1504" y="0" on="1"/>
        <pt x="855" y="0" on="1"/>
        <pt x="855" y="137" on="1"/>
        <pt x="1018" y="165" on="1"/>
        <pt x="943" y="409" on="1"/>
        <pt x="400" y="409" on="1"/>
        <pt x="329" y="164" on="1"/>
        <pt x="494" y="137" on="1"/>
        <pt x="494" y="0" on="1"/>
        <pt x="-47" y="0" on="1"/>
      </contour>
      <contour>
        <pt x="895" y="565" on="1"/>
        <pt x="698" y="1210" on="1"/>
        <pt x="663" y="1356" on="1"/>
        <pt x="631" y="1210" on="1"/>
        <pt x="445" y="565" on="1"/>
      </contour>
      <contour>
        <pt x="970" y="1645" on="1"/>
        <pt x="935" y="1645" on="0"/>
        <pt x="880" y="1671" on="0"/>
        <pt x="843" y="1715" on="0"/>
        <pt x="824" y="1774" on="0"/>
        <pt x="824" y="1807" on="1"/>
        <pt x="824" y="1846" on="0"/>
        <pt x="845" y="1915" on="0"/>
        <pt x="888" y="1966" on="0"/>
        <pt x="953" y="1996" on="0"/>
        <pt x="997" y="1996" on="1"/>
        <pt x="998" y="1996" on="1"/>
        <pt x="1038" y="1996" on="0"/>
        <pt x="1098" y="1970" on="0"/>
        <pt x="1137" y="1925" on="0"/>
        <pt x="1157" y="1867" on="0"/>
        <pt x="1157" y="1835" on="1"/>
        <pt x="1157" y="1795" on="0"/>
        <pt x="1135" y="1725" on="0"/>
        <pt x="1089" y="1674" on="0"/>
        <pt x="1019" y="1645" on="0"/>
        <pt x="971" y="1645" on="1"/>
      </contour>
      <contour>
        <pt x="442" y="1645" on="1"/>
        <pt x="407" y="1645" on="0"/>
        <pt x="353" y="1671" on="0"/>
        <pt x="315" y="1715" on="0"/>
        <pt x="296" y="1774" on="0"/>
        <pt x="296" y="1807" on="1"/>
        <pt x="296" y="1846" on="0"/>
        <pt x="317" y="1915" on="0"/>
        <pt x="361" y="1966" on="0"/>
        <pt x="425" y="1996" on="0"/>
        <pt x="469" y="1996" on="1"/>
        <pt x="470" y="1996" on="1"/>
        <pt x="510" y="1996" on="0"/>
        <pt x="570" y="1970" on="0"/>
        <pt x="610" y="1925" on="0"/>
        <pt x="629" y="1867" on="0"/>
        <pt x="629" y="1835" on="1"/>
        <pt x="629" y="1795" on="0"/>
        <pt x="607" y="1725" on="0"/>
        <pt x="562" y="1674" on="0"/>
        <pt x="491" y="1645" on="0"/>
        <pt x="443" y="1645" on="1"/>
      </contour>
    </TTGlyph>
    <TTGlyph name="Agrave" xMin="-48" yMin="0" xMax="1504" yMax="2014">
      <contour>
        <pt x="-48" y="137" on="1"/>
        <pt x="81" y="165" on="1"/>
        <pt x="563" y="1528" on="1"/>
        <pt x="884" y="1528" on="1"/>
        <pt x="1365" y="165" on="1"/>
        <pt x="1504" y="137" on="1"/>
        <pt x="1504" y="0" on="1"/>
        <pt x="855" y="0" on="1"/>
        <pt x="855" y="137" on="1"/>
        <pt x="1018" y="165" on="1"/>
        <pt x="943" y="409" on="1"/>
        <pt x="400" y="409" on="1"/>
        <pt x="329" y="164" on="1"/>
        <pt x="494" y="137" on="1"/>
        <pt x="494" y="0" on="1"/>
        <pt x="-47" y="0" on="1"/>
      </contour>
      <contour>
        <pt x="895" y="565" on="1"/>
        <pt x="698" y="1210" on="1"/>
        <pt x="663" y="1356" on="1"/>
        <pt x="631" y="1210" on="1"/>
        <pt x="445" y="565" on="1"/>
      </contour>
      <contour>
        <pt x="850" y="1604" on="1"/>
        <pt x="828" y="1610" on="0"/>
        <pt x="761" y="1640" on="0"/>
        <pt x="685" y="1681" on="0"/>
        <pt x="604" y="1732" on="0"/>
        <pt x="531" y="1788" on="0"/>
        <pt x="471" y="1845" on="0"/>
        <pt x="454" y="1873" on="1"/>
        <pt x="651" y="2014" on="1"/>
        <pt x="652" y="2014" on="1"/>
        <pt x="969" y="1692" on="1"/>
        <pt x="851" y="1604" on="1"/>
        <pt x="850" y="1604" on="1"/>
      </contour>
    </TTGlyph>
    <TTGlyph name="Amacron" xMin="-48" yMin="0" xMax="1504" yMax="1916">
      <contour>
        <pt x="-48" y="137" on="1"/>
        <pt x="81" y="165" on="1"/>
        <pt x="563" y="1528" on="1"/>
        <pt x="884" y="1528" on="1"/>
        <pt x="1365" y="165" on="1"/>
        <pt x="1504" y="137" on="1"/>
        <pt x="1504" y="0" on="1"/>
        <pt x="855" y="0" on="1"/>
        <pt x="855" y="137" on="1"/>
        <pt x="1018" y="165" on="1"/>
        <pt x="943" y="409" on="1"/>
        <pt x="400" y="409" on="1"/>
        <pt x="329" y="164" on="1"/>
        <pt x="494" y="137" on="1"/>
        <pt x="494" y="0" on="1"/>
        <pt x="-47" y="0" on="1"/>
      </contour>
      <contour>
        <pt x="895" y="565" on="1"/>
        <pt x="698" y="1210" on="1"/>
        <pt x="663" y="1356" on="1"/>
        <pt x="631" y="1210" on="1"/>
        <pt x="445" y="565" on="1"/>
      </contour>
      <contour>
        <pt x="417" y="1916" on="1"/>
        <pt x="1040" y="1916" on="1"/>
        <pt x="1040" y="1722" on="1"/>
        <pt x="417" y="1722" on="1"/>
      </contour>
    </TTGlyph>
    <TTGlyph name="Aogonek" xMin="-51" yMin="-513" xMax="1501" yMax="1528">
      <contour>
        <pt x="-51" y="137" on="1"/>
        <pt x="78" y="165" on="1"/>
        <pt x="560" y="1528" on="1"/>
        <pt x="881" y="1528" on="1"/>
        <pt x="1362" y="165" on="1"/>
        <pt x="1501" y="137" on="1"/>
        <pt x="1501" y="0" on="1"/>
        <pt x="1342" y="0" on="1"/>
        <pt x="1292" y="-21" on="0"/>
        <pt x="1213" y="-76" on="0"/>
        <pt x="1159" y="-136" on="0"/>
        <pt x="1130" y="-196" on="0"/>
        <pt x="1130" y="-222" on="1"/>
        <pt x="1130" y="-276" on="0"/>
        <pt x="1204" y="-331" on="0"/>
        <pt x="1266" y="-331" on="1"/>
        <pt x="1301" y="-331" on="0"/>
        <pt x="1356" y="-320" on="0"/>
        <pt x="1390" y="-306" on="1"/>
        <pt x="1390" y="-445" on="1"/>
        <pt x="1369" y="-461" on="0"/>
        <pt x="1310" y="-486" on="0"/>
        <pt x="1244" y="-504" on="0"/>
        <pt x="1175" y="-513" on="0"/>
        <pt x="1144" y="-513" on="1"/>
        <pt x="1096" y="-513" on="0"/>
        <pt x="1000" y="-491" on="0"/>
        <pt x="922" y="-442" on="0"/>
        <pt x="874" y="-365" on="0"/>
        <pt x="874" y="-310" on="1"/>
        <pt x="874" y="-269" on="0"/>
        <pt x="914" y="-181" on="0"/>
        <pt x="989" y="-97" on="0"/>
        <pt x="1093" y="-25" on="0"/>
        <pt x="1158" y="0" on="1"/>
        <pt x="852" y="0" on="1"/>
        <pt x="852" y="137" on="1"/>
        <pt x="1015" y="165" on="1"/>
        <pt x="940" y="409" on="1"/>
        <pt x="397" y="409" on="1"/>
        <pt x="326" y="164" on="1"/>
        <pt x="491" y="137" on="1"/>
        <pt x="491" y="0" on="1"/>
        <pt x="-50" y="0" on="1"/>
      </contour>
      <contour>
        <pt x="892" y="565" on="1"/>
        <pt x="695" y="1210" on="1"/>
        <pt x="660" y="1356" on="1"/>
        <pt x="628" y="1210" on="1"/>
        <pt x="442" y="565" on="1"/>
      </contour>
    </TTGlyph>
    <TTGlyph name="Aring" xMin="-51" yMin="0" xMax="1501" yMax="2014">
      <contour>
        <pt x="-51" y="137" on="1"/>
        <pt x="78" y="165" on="1"/>
        <pt x="556" y="1517" on="1"/>
        <pt x="508" y="1533" on="0"/>
        <pt x="440" y="1582" on="0"/>
        <pt x="396" y="1645" on="0"/>
        <pt x="376" y="1718" on="0"/>
        <pt x="377" y="1757" on="1"/>
        <pt x="378" y="1819" on="0"/>
        <pt x="440" y="1915" on="0"/>
        <pt x="541" y="1980" on="0"/>
        <pt x="670" y="2014" on="0"/>
        <pt x="739" y="2014" on="1"/>
        <pt x="740" y="2014" on="1"/>
        <pt x="826" y="2014" on="0"/>
        <pt x="954" y="1974" on="0"/>
        <pt x="1038" y="1903" on="0"/>
        <pt x="1079" y="1807" on="0"/>
        <pt x="1079" y="1752" on="1"/>
        <pt x="1077" y="1664" on="0"/>
        <pt x="970" y="1547" on="0"/>
        <pt x="884" y="1518" on="1"/>
        <pt x="1362" y="165" on="1"/>
        <pt x="1501" y="137" on="1"/>
        <pt x="1501" y="0" on="1"/>
        <pt x="852" y="0" on="1"/>
        <pt x="852" y="137" on="1"/>
        <pt x="1015" y="165" on="1"/>
        <pt x="940" y="409" on="1"/>
        <pt x="397" y="409" on="1"/>
        <pt x="326" y="164" on="1"/>
        <pt x="491" y="137" on="1"/>
        <pt x="491" y="0" on="1"/>
        <pt x="-50" y="0" on="1"/>
      </contour>
      <contour>
        <pt x="730" y="1607" on="1"/>
        <pt x="775" y="1607" on="0"/>
        <pt x="834" y="1626" on="0"/>
        <pt x="870" y="1662" on="0"/>
        <pt x="884" y="1713" on="0"/>
        <pt x="884" y="1745" on="1"/>
        <pt x="884" y="1776" on="0"/>
        <pt x="869" y="1832" on="0"/>
        <pt x="833" y="1874" on="0"/>
        <pt x="774" y="1899" on="0"/>
        <pt x="731" y="1899" on="1"/>
        <pt x="730" y="1899" on="1"/>
        <pt x="685" y="1899" on="0"/>
        <pt x="625" y="1879" on="0"/>
        <pt x="588" y="1841" on="0"/>
        <pt x="573" y="1789" on="0"/>
        <pt x="573" y="1757" on="1"/>
        <pt x="573" y="1729" on="0"/>
        <pt x="589" y="1675" on="0"/>
        <pt x="626" y="1633" on="0"/>
        <pt x="686" y="1607" on="0"/>
        <pt x="729" y="1607" on="1"/>
      </contour>
      <contour>
        <pt x="892" y="565" on="1"/>
        <pt x="695" y="1210" on="1"/>
        <pt x="660" y="1356" on="1"/>
        <pt x="628" y="1210" on="1"/>
        <pt x="442" y="565" on="1"/>
      </contour>
    </TTGlyph>
    <TTGlyph name="Atilde" xMin="-48" yMin="0" xMax="1504" yMax="2009">
      <contour>
        <pt x="-48" y="137" on="1"/>
        <pt x="81" y="165" on="1"/>
        <pt x="563" y="1528" on="1"/>
        <pt x="884" y="1528" on="1"/>
        <pt x="1365" y="165" on="1"/>
        <pt x="1504" y="137" on="1"/>
        <pt x="1504" y="0" on="1"/>
        <pt x="855" y="0" on="1"/>
        <pt x="855" y="137" on="1"/>
        <pt x="1018" y="165" on="1"/>
        <pt x="943" y="409" on="1"/>
        <pt x="400" y="409" on="1"/>
        <pt x="329" y="164" on="1"/>
        <pt x="494" y="137" on="1"/>
        <pt x="494" y="0" on="1"/>
        <pt x="-47" y="0" on="1"/>
      </contour>
      <contour>
        <pt x="895" y="565" on="1"/>
        <pt x="698" y="1210" on="1"/>
        <pt x="663" y="1356" on="1"/>
        <pt x="631" y="1210" on="1"/>
        <pt x="445" y="565" on="1"/>
      </contour>
      <contour>
        <pt x="267" y="1794" on="1"/>
        <pt x="280" y="1825" on="0"/>
        <pt x="333" y="1901" on="0"/>
        <pt x="410" y="1965" on="0"/>
        <pt x="512" y="2009" on="0"/>
        <pt x="574" y="2009" on="1"/>
        <pt x="617" y="2009" on="0"/>
        <pt x="687" y="1984" on="0"/>
        <pt x="747" y="1947" on="0"/>
        <pt x="799" y="1903" on="0"/>
        <pt x="849" y="1866" on="0"/>
        <pt x="900" y="1841" on="0"/>
        <pt x="929" y="1841" on="1"/>
        <pt x="963" y="1841" on="0"/>
        <pt x="1011" y="1863" on="0"/>
        <pt x="1045" y="1896" on="0"/>
        <pt x="1069" y="1933" on="0"/>
        <pt x="1080" y="1947" on="1"/>
        <pt x="1185" y="1859" on="1"/>
        <pt x="1166" y="1820" on="0"/>
        <pt x="1114" y="1742" on="0"/>
        <pt x="1044" y="1681" on="0"/>
        <pt x="954" y="1643" on="0"/>
        <pt x="898" y="1643" on="1"/>
        <pt x="856" y="1643" on="0"/>
        <pt x="785" y="1668" on="0"/>
        <pt x="724" y="1706" on="0"/>
        <pt x="669" y="1749" on="0"/>
        <pt x="615" y="1787" on="0"/>
        <pt x="559" y="1812" on="0"/>
        <pt x="528" y="1812" on="1"/>
        <pt x="496" y="1812" on="0"/>
        <pt x="447" y="1788" on="0"/>
        <pt x="409" y="1754" on="0"/>
        <pt x="381" y="1718" on="0"/>
        <pt x="371" y="1706" on="1"/>
      </contour>
    </TTGlyph>
    <TTGlyph name="B" xMin="85" yMin="-12" xMax="1387" yMax="1535">
      <contour>
        <pt x="85" y="137" on="1"/>
        <pt x="249" y="164" on="1"/>
        <pt x="249" y="1357" on="1"/>
        <pt x="87" y="1388" on="1"/>
        <pt x="87" y="1522" on="1"/>
        <pt x="404" y="1522" on="1"/>
        <pt x="454" y="1522" on="0"/>
        <pt x="536" y="1526" on="0"/>
        <pt x="610" y="1531" on="0"/>
        <pt x="683" y="1535" on="0"/>
        <pt x="724" y="1535" on="1"/>
        <pt x="867" y="1535" on="0"/>
        <pt x="1076" y="1494" on="0"/>
        <pt x="1213" y="1410" on="0"/>
        <pt x="1279" y="1280" on="0"/>
        <pt x="1279" y="1191" on="1"/>
        <pt x="1279" y="1107" on="0"/>
        <pt x="1230" y="975" on="0"/>
        <pt x="1144" y="879" on="0"/>
        <pt x="1025" y="819" on="0"/>
        <pt x="955" y="808" on="1"/>
        <pt x="1045" y="807" on="0"/>
        <pt x="1202" y="758" on="0"/>
        <pt x="1319" y="667" on="0"/>
        <pt x="1387" y="538" on="0"/>
        <pt x="1387" y="457" on="1"/>
        <pt x="1387" y="366" on="0"/>
        <pt x="1329" y="197" on="0"/>
        <pt x="1186" y="66" on="0"/>
        <pt x="945" y="-12" on="0"/>
        <pt x="762" y="-12" on="1"/>
        <pt x="721" y="-12" on="0"/>
        <pt x="647" y="-8" on="0"/>
        <pt x="563" y="-4" on="0"/>
        <pt x="464" y="0" on="0"/>
        <pt x="400" y="0" on="1"/>
        <pt x="85" y="0" on="1"/>
      </contour>
      <contour>
        <pt x="564" y="864" on="1"/>
        <pt x="578" y="862" on="0"/>
        <pt x="624" y="859" on="0"/>
        <pt x="673" y="858" on="0"/>
        <pt x="721" y="858" on="0"/>
        <pt x="738" y="858" on="1"/>
        <pt x="801" y="858" on="0"/>
        <pt x="888" y="894" on="0"/>
        <pt x="942" y="966" on="0"/>
        <pt x="965" y="1073" on="0"/>
        <pt x="965" y="1144" on="1"/>
        <pt x="965" y="1209" on="0"/>
        <pt x="938" y="1306" on="0"/>
        <pt x="876" y="1369" on="0"/>
        <pt x="774" y="1400" on="0"/>
        <pt x="700" y="1400" on="1"/>
        <pt x="657" y="1400" on="0"/>
        <pt x="580" y="1392" on="0"/>
        <pt x="564" y="1390" on="1"/>
      </contour>
      <contour>
        <pt x="564" y="144" on="1"/>
        <pt x="573" y="139" on="0"/>
        <pt x="609" y="132" on="0"/>
        <pt x="652" y="128" on="0"/>
        <pt x="700" y="126" on="0"/>
        <pt x="721" y="126" on="1"/>
        <pt x="811" y="126" on="0"/>
        <pt x="938" y="167" on="0"/>
        <pt x="1018" y="244" on="0"/>
        <pt x="1055" y="356" on="0"/>
        <pt x="1055" y="427" on="1"/>
        <pt x="1055" y="507" on="0"/>
        <pt x="1020" y="619" on="0"/>
        <pt x="945" y="689" on="0"/>
        <pt x="828" y="721" on="0"/>
        <pt x="746" y="721" on="1"/>
        <pt x="728" y="721" on="0"/>
        <pt x="675" y="721" on="0"/>
        <pt x="621" y="720" on="0"/>
        <pt x="575" y="718" on="0"/>
        <pt x="564" y="717" on="1"/>
      </contour>
    </TTGlyph>
    <TTGlyph name="C" xMin="57" yMin="-23" xMax="1289" yMax="1538">
      <contour>
        <pt x="57" y="754" on="1"/>
        <pt x="57" y="931" on="0"/>
        <pt x="177" y="1220" on="0"/>
        <pt x="389" y="1426" on="0"/>
        <pt x="677" y="1538" on="0"/>
        <pt x="844" y="1538" on="1"/>
        <pt x="916" y="1538" on="0"/>
        <pt x="1046" y="1521" on="0"/>
        <pt x="1159" y="1500" on="0"/>
        <pt x="1252" y="1478" on="0"/>
        <pt x="1287" y="1474" on="1"/>
        <pt x="1264" y="1076" on="1"/>
        <pt x="1059" y="1076" on="1"/>
        <pt x="999" y="1339" on="1"/>
        <pt x="988" y="1351" on="0"/>
        <pt x="958" y="1374" on="0"/>
        <pt x="913" y="1390" on="0"/>
        <pt x="849" y="1400" on="0"/>
        <pt x="805" y="1400" on="1"/>
        <pt x="719" y="1400" on="0"/>
        <pt x="575" y="1325" on="0"/>
        <pt x="472" y="1174" on="0"/>
        <pt x="415" y="946" on="0"/>
        <pt x="415" y="793" on="1"/>
        <pt x="415" y="661" on="0"/>
        <pt x="461" y="417" on="0"/>
        <pt x="556" y="230" on="0"/>
        <pt x="702" y="118" on="0"/>
        <pt x="802" y="118" on="1"/>
        <pt x="852" y="118" on="0"/>
        <pt x="924" y="129" on="0"/>
        <pt x="976" y="147" on="0"/>
        <pt x="1010" y="171" on="0"/>
        <pt x="1022" y="185" on="1"/>
        <pt x="1113" y="406" on="1"/>
        <pt x="1289" y="396" on="1"/>
        <pt x="1265" y="56" on="1"/>
        <pt x="1222" y="53" on="0"/>
        <pt x="1134" y="28" on="0"/>
        <pt x="1024" y="0" on="0"/>
        <pt x="879" y="-23" on="0"/>
        <pt x="779" y="-23" on="1"/>
        <pt x="602" y="-23" on="0"/>
        <pt x="333" y="90" on="0"/>
        <pt x="150" y="295" on="0"/>
        <pt x="57" y="581" on="0"/>
      </contour>
    </TTGlyph>
    <TTGlyph name="Cacute" xMin="66" yMin="-23" xMax="1298" yMax="2014">
      <contour>
        <pt x="66" y="754" on="1"/>
        <pt x="66" y="931" on="0"/>
        <pt x="186" y="1220" on="0"/>
        <pt x="398" y="1426" on="0"/>
        <pt x="686" y="1538" on="0"/>
        <pt x="853" y="1538" on="1"/>
        <pt x="925" y="1538" on="0"/>
        <pt x="1055" y="1521" on="0"/>
        <pt x="1168" y="1500" on="0"/>
        <pt x="1261" y="1478" on="0"/>
        <pt x="1296" y="1474" on="1"/>
        <pt x="1273" y="1076" on="1"/>
        <pt x="1068" y="1076" on="1"/>
        <pt x="1008" y="1339" on="1"/>
        <pt x="997" y="1351" on="0"/>
        <pt x="967" y="1374" on="0"/>
        <pt x="922" y="1390" on="0"/>
        <pt x="858" y="1400" on="0"/>
        <pt x="814" y="1400" on="1"/>
        <pt x="728" y="1400" on="0"/>
        <pt x="584" y="1325" on="0"/>
        <pt x="481" y="1174" on="0"/>
        <pt x="424" y="946" on="0"/>
        <pt x="424" y="793" on="1"/>
        <pt x="424" y="661" on="0"/>
        <pt x="470" y="417" on="0"/>
        <pt x="565" y="230" on="0"/>
        <pt x="711" y="118" on="0"/>
        <pt x="811" y="118" on="1"/>
        <pt x="861" y="118" on="0"/>
        <pt x="933" y="129" on="0"/>
        <pt x="985" y="147" on="0"/>
        <pt x="1019" y="171" on="0"/>
        <pt x="1031" y="185" on="1"/>
        <pt x="1122" y="406" on="1"/>
        <pt x="1298" y="396" on="1"/>
        <pt x="1274" y="56" on="1"/>
        <pt x="1231" y="53" on="0"/>
        <pt x="1143" y="28" on="0"/>
        <pt x="1033" y="0" on="0"/>
        <pt x="888" y="-23" on="0"/>
        <pt x="788" y="-23" on="1"/>
        <pt x="611" y="-23" on="0"/>
        <pt x="342" y="90" on="0"/>
        <pt x="159" y="295" on="0"/>
        <pt x="66" y="581" on="0"/>
      </contour>
      <contour>
        <pt x="639" y="1692" on="1"/>
        <pt x="956" y="2014" on="1"/>
        <pt x="957" y="2014" on="1"/>
        <pt x="1154" y="1873" on="1"/>
        <pt x="1137" y="1845" on="0"/>
        <pt x="1077" y="1788" on="0"/>
        <pt x="1004" y="1732" on="0"/>
        <pt x="923" y="1681" on="0"/>
        <pt x="847" y="1640" on="0"/>
        <pt x="780" y="1610" on="0"/>
        <pt x="758" y="1604" on="1"/>
        <pt x="757" y="1604" on="1"/>
      </contour>
    </TTGlyph>
    <TTGlyph name="Ccaron" xMin="66" yMin="-23" xMax="1298" yMax="2014">
      <contour>
        <pt x="66" y="754" on="1"/>
        <pt x="66" y="931" on="0"/>
        <pt x="186" y="1220" on="0"/>
        <pt x="398" y="1426" on="0"/>
        <pt x="686" y="1538" on="0"/>
        <pt x="853" y="1538" on="1"/>
        <pt x="925" y="1538" on="0"/>
        <pt x="1055" y="1521" on="0"/>
        <pt x="1168" y="1500" on="0"/>
        <pt x="1261" y="1478" on="0"/>
        <pt x="1296" y="1474" on="1"/>
        <pt x="1273" y="1076" on="1"/>
        <pt x="1068" y="1076" on="1"/>
        <pt x="1008" y="1339" on="1"/>
        <pt x="997" y="1351" on="0"/>
        <pt x="967" y="1374" on="0"/>
        <pt x="922" y="1390" on="0"/>
        <pt x="858" y="1400" on="0"/>
        <pt x="814" y="1400" on="1"/>
        <pt x="728" y="1400" on="0"/>
        <pt x="584" y="1325" on="0"/>
        <pt x="481" y="1174" on="0"/>
        <pt x="424" y="946" on="0"/>
        <pt x="424" y="793" on="1"/>
        <pt x="424" y="661" on="0"/>
        <pt x="470" y="417" on="0"/>
        <pt x="565" y="230" on="0"/>
        <pt x="711" y="118" on="0"/>
        <pt x="811" y="118" on="1"/>
        <pt x="861" y="118" on="0"/>
        <pt x="933" y="129" on="0"/>
        <pt x="985" y="147" on="0"/>
        <pt x="1019" y="171" on="0"/>
        <pt x="1031" y="185" on="1"/>
        <pt x="1122" y="406" on="1"/>
        <pt x="1298" y="396" on="1"/>
        <pt x="1274" y="56" on="1"/>
        <pt x="1231" y="53" on="0"/>
        <pt x="1143" y="28" on="0"/>
        <pt x="1033" y="0" on="0"/>
        <pt x="888" y="-23" on="0"/>
        <pt x="788" y="-23" on="1"/>
        <pt x="611" y="-23" on="0"/>
        <pt x="342" y="90" on="0"/>
        <pt x="159" y="295" on="0"/>
        <pt x="66" y="581" on="0"/>
      </contour>
      <contour>
        <pt x="423" y="1927" on="1"/>
        <pt x="532" y="2014" on="1"/>
        <pt x="798" y="1823" on="1"/>
        <pt x="1077" y="2014" on="1"/>
        <pt x="1182" y="1929" on="1"/>
        <pt x="898" y="1628" on="1"/>
        <pt x="697" y="1628" on="1"/>
      </contour>
    </TTGlyph>
    <TTGlyph name="Ccedilla" xMin="66" yMin="-524" xMax="1298" yMax="1538">
      <contour>
        <pt x="544" y="-308" on="1"/>
        <pt x="565" y="-315" on="0"/>
        <pt x="615" y="-321" on="0"/>
        <pt x="626" y="-321" on="1"/>
        <pt x="627" y="-321" on="1"/>
        <pt x="660" y="-321" on="0"/>
        <pt x="711" y="-313" on="0"/>
        <pt x="746" y="-285" on="0"/>
        <pt x="763" y="-229" on="0"/>
        <pt x="763" y="-182" on="1"/>
        <pt x="763" y="-161" on="0"/>
        <pt x="754" y="-117" on="0"/>
        <pt x="741" y="-74" on="0"/>
        <pt x="724" y="-35" on="0"/>
        <pt x="717" y="-20" on="1"/>
        <pt x="558" y="-9" on="0"/>
        <pt x="314" y="112" on="0"/>
        <pt x="150" y="314" on="0"/>
        <pt x="66" y="589" on="0"/>
        <pt x="66" y="754" on="1"/>
        <pt x="66" y="931" on="0"/>
        <pt x="186" y="1220" on="0"/>
        <pt x="398" y="1426" on="0"/>
        <pt x="686" y="1538" on="0"/>
        <pt x="853" y="1538" on="1"/>
        <pt x="925" y="1538" on="0"/>
        <pt x="1055" y="1521" on="0"/>
        <pt x="1168" y="1500" on="0"/>
        <pt x="1261" y="1478" on="0"/>
        <pt x="1296" y="1474" on="1"/>
        <pt x="1273" y="1076" on="1"/>
        <pt x="1068" y="1076" on="1"/>
        <pt x="1008" y="1339" on="1"/>
        <pt x="997" y="1351" on="0"/>
        <pt x="967" y="1374" on="0"/>
        <pt x="922" y="1390" on="0"/>
        <pt x="858" y="1400" on="0"/>
        <pt x="814" y="1400" on="1"/>
        <pt x="728" y="1400" on="0"/>
        <pt x="584" y="1325" on="0"/>
        <pt x="481" y="1174" on="0"/>
        <pt x="424" y="946" on="0"/>
        <pt x="424" y="793" on="1"/>
        <pt x="424" y="661" on="0"/>
        <pt x="470" y="417" on="0"/>
        <pt x="565" y="230" on="0"/>
        <pt x="711" y="118" on="0"/>
        <pt x="811" y="118" on="1"/>
        <pt x="861" y="118" on="0"/>
        <pt x="933" y="129" on="0"/>
        <pt x="985" y="147" on="0"/>
        <pt x="1019" y="171" on="0"/>
        <pt x="1031" y="185" on="1"/>
        <pt x="1122" y="406" on="1"/>
        <pt x="1298" y="396" on="1"/>
        <pt x="1274" y="56" on="1"/>
        <pt x="1235" y="53" on="0"/>
        <pt x="1158" y="32" on="0"/>
        <pt x="1063" y="7" on="0"/>
        <pt x="945" y="-17" on="0"/>
        <pt x="866" y="-21" on="1"/>
        <pt x="884" y="-42" on="0"/>
        <pt x="926" y="-103" on="0"/>
        <pt x="960" y="-177" on="0"/>
        <pt x="981" y="-259" on="0"/>
        <pt x="979" y="-302" on="1"/>
        <pt x="976" y="-366" on="0"/>
        <pt x="935" y="-451" on="0"/>
        <pt x="861" y="-502" on="0"/>
        <pt x="755" y="-524" on="0"/>
        <pt x="688" y="-524" on="1"/>
        <pt x="687" y="-524" on="1"/>
        <pt x="670" y="-524" on="0"/>
        <pt x="630" y="-520" on="0"/>
        <pt x="591" y="-512" on="0"/>
        <pt x="556" y="-502" on="0"/>
        <pt x="543" y="-496" on="1"/>
        <pt x="544" y="-308" on="1"/>
      </contour>
    </TTGlyph>
    <TTGlyph name="Ccircumflex" xMin="66" yMin="-23" xMax="1298" yMax="2014">
      <contour>
        <pt x="66" y="754" on="1"/>
        <pt x="66" y="931" on="0"/>
        <pt x="186" y="1220" on="0"/>
        <pt x="398" y="1426" on="0"/>
        <pt x="686" y="1538" on="0"/>
        <pt x="853" y="1538" on="1"/>
        <pt x="925" y="1538" on="0"/>
        <pt x="1055" y="1521" on="0"/>
        <pt x="1168" y="1500" on="0"/>
        <pt x="1261" y="1478" on="0"/>
        <pt x="1296" y="1474" on="1"/>
        <pt x="1273" y="1076" on="1"/>
        <pt x="1068" y="1076" on="1"/>
        <pt x="1008" y="1339" on="1"/>
        <pt x="997" y="1351" on="0"/>
        <pt x="967" y="1374" on="0"/>
        <pt x="922" y="1390" on="0"/>
        <pt x="858" y="1400" on="0"/>
        <pt x="814" y="1400" on="1"/>
        <pt x="728" y="1400" on="0"/>
        <pt x="584" y="1325" on="0"/>
        <pt x="481" y="1174" on="0"/>
        <pt x="424" y="946" on="0"/>
        <pt x="424" y="793" on="1"/>
        <pt x="424" y="661" on="0"/>
        <pt x="470" y="417" on="0"/>
        <pt x="565" y="230" on="0"/>
        <pt x="711" y="118" on="0"/>
        <pt x="811" y="118" on="1"/>
        <pt x="861" y="118" on="0"/>
        <pt x="933" y="129" on="0"/>
        <pt x="985" y="147" on="0"/>
        <pt x="1019" y="171" on="0"/>
        <pt x="1031" y="185" on="1"/>
        <pt x="1122" y="406" on="1"/>
        <pt x="1298" y="396" on="1"/>
        <pt x="1274" y="56" on="1"/>
        <pt x="1231" y="53" on="0"/>
        <pt x="1143" y="28" on="0"/>
        <pt x="1033" y="0" on="0"/>
        <pt x="888" y="-23" on="0"/>
        <pt x="788" y="-23" on="1"/>
        <pt x="611" y="-23" on="0"/>
        <pt x="342" y="90" on="0"/>
        <pt x="159" y="295" on="0"/>
        <pt x="66" y="581" on="0"/>
      </contour>
      <contour>
        <pt x="402" y="1701" on="1"/>
        <pt x="695" y="2014" on="1"/>
        <pt x="895" y="2014" on="1"/>
        <pt x="1189" y="1702" on="1"/>
        <pt x="1081" y="1616" on="1"/>
        <pt x="795" y="1813" on="1"/>
        <pt x="507" y="1616" on="1"/>
      </contour>
    </TTGlyph>
    <TTGlyph name="Cdotaccent" xMin="66" yMin="-23" xMax="1298" yMax="1999">
      <contour>
        <pt x="777" y="1647" on="1"/>
        <pt x="742" y="1647" on="0"/>
        <pt x="687" y="1673" on="0"/>
        <pt x="650" y="1717" on="0"/>
        <pt x="631" y="1776" on="0"/>
        <pt x="631" y="1809" on="1"/>
        <pt x="631" y="1848" on="0"/>
        <pt x="652" y="1917" on="0"/>
        <pt x="696" y="1969" on="0"/>
        <pt x="760" y="1999" on="0"/>
        <pt x="804" y="1999" on="1"/>
        <pt x="805" y="1999" on="1"/>
        <pt x="845" y="1999" on="0"/>
        <pt x="905" y="1972" on="0"/>
        <pt x="945" y="1927" on="0"/>
        <pt x="964" y="1869" on="0"/>
        <pt x="964" y="1837" on="1"/>
        <pt x="964" y="1797" on="0"/>
        <pt x="942" y="1728" on="0"/>
        <pt x="897" y="1677" on="0"/>
        <pt x="826" y="1647" on="0"/>
        <pt x="778" y="1647" on="1"/>
        <pt x="777" y="1647" on="1"/>
      </contour>
      <contour>
        <pt x="66" y="754" on="1"/>
        <pt x="66" y="931" on="0"/>
        <pt x="186" y="1220" on="0"/>
        <pt x="398" y="1426" on="0"/>
        <pt x="686" y="1538" on="0"/>
        <pt x="853" y="1538" on="1"/>
        <pt x="925" y="1538" on="0"/>
        <pt x="1055" y="1521" on="0"/>
        <pt x="1168" y="1500" on="0"/>
        <pt x="1261" y="1478" on="0"/>
        <pt x="1296" y="1474" on="1"/>
        <pt x="1273" y="1076" on="1"/>
        <pt x="1068" y="1076" on="1"/>
        <pt x="1008" y="1339" on="1"/>
        <pt x="997" y="1351" on="0"/>
        <pt x="967" y="1374" on="0"/>
        <pt x="922" y="1390" on="0"/>
        <pt x="858" y="1400" on="0"/>
        <pt x="814" y="1400" on="1"/>
        <pt x="728" y="1400" on="0"/>
        <pt x="584" y="1325" on="0"/>
        <pt x="481" y="1174" on="0"/>
        <pt x="424" y="946" on="0"/>
        <pt x="424" y="793" on="1"/>
        <pt x="424" y="661" on="0"/>
        <pt x="470" y="417" on="0"/>
        <pt x="565" y="230" on="0"/>
        <pt x="711" y="118" on="0"/>
        <pt x="811" y="118" on="1"/>
        <pt x="861" y="118" on="0"/>
        <pt x="933" y="129" on="0"/>
        <pt x="985" y="147" on="0"/>
        <pt x="1019" y="171" on="0"/>
        <pt x="1031" y="185" on="1"/>
        <pt x="1122" y="406" on="1"/>
        <pt x="1298" y="396" on="1"/>
        <pt x="1274" y="56" on="1"/>
        <pt x="1231" y="53" on="0"/>
        <pt x="1143" y="28" on="0"/>
        <pt x="1033" y="0" on="0"/>
        <pt x="888" y="-23" on="0"/>
        <pt x="788" y="-23" on="1"/>
        <pt x="611" y="-23" on="0"/>
        <pt x="342" y="90" on="0"/>
        <pt x="159" y="295" on="0"/>
        <pt x="66" y="581" on="0"/>
      </contour>
    </TTGlyph>
    <TTGlyph name="D" xMin="85" yMin="-20" xMax="1528" yMax="1535">
      <contour>
        <pt x="85" y="137" on="1"/>
        <pt x="249" y="164" on="1"/>
        <pt x="249" y="1358" on="1"/>
        <pt x="92" y="1388" on="1"/>
        <pt x="92" y="1522" on="1"/>
        <pt x="404" y="1522" on="1"/>
        <pt x="460" y="1522" on="0"/>
        <pt x="550" y="1526" on="0"/>
        <pt x="639" y="1531" on="0"/>
        <pt x="736" y="1535" on="0"/>
        <pt x="798" y="1535" on="1"/>
        <pt x="990" y="1535" on="0"/>
        <pt x="1266" y="1438" on="0"/>
        <pt x="1444" y="1254" on="0"/>
        <pt x="1528" y="987" on="0"/>
        <pt x="1528" y="816" on="1"/>
        <pt x="1528" y="628" on="0"/>
        <pt x="1417" y="318" on="0"/>
        <pt x="1216" y="98" on="0"/>
        <pt x="933" y="-20" on="0"/>
        <pt x="762" y="-16" on="1"/>
        <pt x="724" y="-15" on="0"/>
        <pt x="634" y="-10" on="0"/>
        <pt x="539" y="-4" on="0"/>
        <pt x="447" y="0" on="0"/>
        <pt x="407" y="0" on="1"/>
        <pt x="85" y="0" on="1"/>
      </contour>
      <contour>
        <pt x="570" y="145" on="1"/>
        <pt x="610" y="131" on="0"/>
        <pt x="704" y="125" on="0"/>
        <pt x="759" y="127" on="1"/>
        <pt x="855" y="128" on="0"/>
        <pt x="1013" y="208" on="0"/>
        <pt x="1127" y="366" on="0"/>
        <pt x="1190" y="604" on="0"/>
        <pt x="1190" y="763" on="1"/>
        <pt x="1190" y="915" on="0"/>
        <pt x="1135" y="1152" on="0"/>
        <pt x="1021" y="1314" on="0"/>
        <pt x="844" y="1399" on="0"/>
        <pt x="722" y="1399" on="1"/>
        <pt x="665" y="1399" on="0"/>
        <pt x="589" y="1390" on="0"/>
        <pt x="570" y="1387" on="1"/>
      </contour>
    </TTGlyph>
    <TTGlyph name="Dcaron" xMin="85" yMin="-20" xMax="1528" yMax="2014">
      <contour>
        <pt x="459" y="1927" on="1"/>
        <pt x="568" y="2014" on="1"/>
        <pt x="834" y="1823" on="1"/>
        <pt x="1113" y="2014" on="1"/>
        <pt x="1218" y="1929" on="1"/>
        <pt x="934" y="1628" on="1"/>
        <pt x="733" y="1628" on="1"/>
      </contour>
      <contour>
        <pt x="85" y="137" on="1"/>
        <pt x="249" y="164" on="1"/>
        <pt x="249" y="1358" on="1"/>
        <pt x="92" y="1388" on="1"/>
        <pt x="92" y="1522" on="1"/>
        <pt x="404" y="1522" on="1"/>
        <pt x="460" y="1522" on="0"/>
        <pt x="550" y="1526" on="0"/>
        <pt x="639" y="1531" on="0"/>
        <pt x="736" y="1535" on="0"/>
        <pt x="798" y="1535" on="1"/>
        <pt x="990" y="1535" on="0"/>
        <pt x="1266" y="1438" on="0"/>
        <pt x="1444" y="1254" on="0"/>
        <pt x="1528" y="987" on="0"/>
        <pt x="1528" y="816" on="1"/>
        <pt x="1528" y="628" on="0"/>
        <pt x="1417" y="318" on="0"/>
        <pt x="1216" y="98" on="0"/>
        <pt x="933" y="-20" on="0"/>
        <pt x="762" y="-16" on="1"/>
        <pt x="724" y="-15" on="0"/>
        <pt x="634" y="-10" on="0"/>
        <pt x="539" y="-4" on="0"/>
        <pt x="447" y="0" on="0"/>
        <pt x="407" y="0" on="1"/>
        <pt x="85" y="0" on="1"/>
      </contour>
      <contour>
        <pt x="570" y="145" on="1"/>
        <pt x="610" y="131" on="0"/>
        <pt x="704" y="125" on="0"/>
        <pt x="759" y="127" on="1"/>
        <pt x="855" y="128" on="0"/>
        <pt x="1013" y="208" on="0"/>
        <pt x="1127" y="366" on="0"/>
        <pt x="1190" y="604" on="0"/>
        <pt x="1190" y="763" on="1"/>
        <pt x="1190" y="915" on="0"/>
        <pt x="1135" y="1152" on="0"/>
        <pt x="1021" y="1314" on="0"/>
        <pt x="844" y="1399" on="0"/>
        <pt x="722" y="1399" on="1"/>
        <pt x="665" y="1399" on="0"/>
        <pt x="589" y="1390" on="0"/>
        <pt x="570" y="1387" on="1"/>
      </contour>
    </TTGlyph>
    <TTGlyph name="Dcroat" xMin="85" yMin="-20" xMax="1528" yMax="1535">
      <contour>
        <pt x="85" y="137" on="1"/>
        <pt x="249" y="164" on="1"/>
        <pt x="249" y="715" on="1"/>
        <pt x="93" y="715" on="1"/>
        <pt x="93" y="861" on="1"/>
        <pt x="249" y="861" on="1"/>
        <pt x="249" y="1358" on="1"/>
        <pt x="92" y="1388" on="1"/>
        <pt x="92" y="1522" on="1"/>
        <pt x="404" y="1522" on="1"/>
        <pt x="460" y="1522" on="0"/>
        <pt x="550" y="1526" on="0"/>
        <pt x="639" y="1531" on="0"/>
        <pt x="736" y="1535" on="0"/>
        <pt x="798" y="1535" on="1"/>
        <pt x="990" y="1535" on="0"/>
        <pt x="1266" y="1438" on="0"/>
        <pt x="1444" y="1254" on="0"/>
        <pt x="1528" y="987" on="0"/>
        <pt x="1528" y="816" on="1"/>
        <pt x="1528" y="628" on="0"/>
        <pt x="1417" y="318" on="0"/>
        <pt x="1216" y="98" on="0"/>
        <pt x="933" y="-20" on="0"/>
        <pt x="762" y="-16" on="1"/>
        <pt x="724" y="-15" on="0"/>
        <pt x="634" y="-10" on="0"/>
        <pt x="539" y="-4" on="0"/>
        <pt x="447" y="0" on="0"/>
        <pt x="407" y="0" on="1"/>
        <pt x="85" y="0" on="1"/>
      </contour>
      <contour>
        <pt x="570" y="145" on="1"/>
        <pt x="610" y="131" on="0"/>
        <pt x="704" y="125" on="0"/>
        <pt x="759" y="127" on="1"/>
        <pt x="855" y="128" on="0"/>
        <pt x="1013" y="208" on="0"/>
        <pt x="1127" y="366" on="0"/>
        <pt x="1190" y="604" on="0"/>
        <pt x="1190" y="763" on="1"/>
        <pt x="1190" y="915" on="0"/>
        <pt x="1135" y="1152" on="0"/>
        <pt x="1021" y="1314" on="0"/>
        <pt x="844" y="1399" on="0"/>
        <pt x="722" y="1399" on="1"/>
        <pt x="665" y="1399" on="0"/>
        <pt x="589" y="1390" on="0"/>
        <pt x="570" y="1387" on="1"/>
        <pt x="570" y="861" on="1"/>
        <pt x="850" y="861" on="1"/>
        <pt x="850" y="715" on="1"/>
        <pt x="570" y="715" on="1"/>
      </contour>
    </TTGlyph>
    <TTGlyph name="Delta" xMin="137" yMin="1" xMax="1632" yMax="1516">
      <contour>
        <pt x="823" y="1516" on="1"/>
        <pt x="878" y="1516" on="1"/>
        <pt x="1632" y="38" on="1"/>
        <pt x="1605" y="1" on="1"/>
        <pt x="162" y="1" on="1"/>
        <pt x="137" y="33" on="1"/>
      </contour>
      <contour>
        <pt x="1217" y="240" on="1"/>
        <pt x="808" y="1065" on="1"/>
        <pt x="439" y="240" on="1"/>
      </contour>
    </TTGlyph>
    <TTGlyph name="Deltagreek" xMin="137" yMin="1" xMax="1632" yMax="1516">
      <contour>
        <pt x="823" y="1516" on="1"/>
        <pt x="878" y="1516" on="1"/>
        <pt x="1632" y="38" on="1"/>
        <pt x="1605" y="1" on="1"/>
        <pt x="162" y="1" on="1"/>
        <pt x="137" y="33" on="1"/>
      </contour>
      <contour>
        <pt x="1217" y="240" on="1"/>
        <pt x="808" y="1065" on="1"/>
        <pt x="439" y="240" on="1"/>
      </contour>
    </TTGlyph>
    <TTGlyph name="E" xMin="85" yMin="0" xMax="1342" yMax="1522">
      <contour>
        <pt x="85" y="137" on="1"/>
        <pt x="249" y="164" on="1"/>
        <pt x="249" y="1357" on="1"/>
        <pt x="87" y="1388" on="1"/>
        <pt x="87" y="1522" on="1"/>
        <pt x="1188" y="1522" on="1"/>
        <pt x="1211" y="1175" on="1"/>
        <pt x="1040" y="1175" on="1"/>
        <pt x="967" y="1369" on="1"/>
        <pt x="569" y="1389" on="1"/>
        <pt x="569" y="847" on="1"/>
        <pt x="829" y="851" on="1"/>
        <pt x="859" y="1019" on="1"/>
        <pt x="1032" y="1019" on="1"/>
        <pt x="1032" y="528" on="1"/>
        <pt x="859" y="528" on="1"/>
        <pt x="829" y="696" on="1"/>
        <pt x="569" y="701" on="1"/>
        <pt x="569" y="153" on="1"/>
        <pt x="1048" y="176" on="1"/>
        <pt x="1171" y="440" on="1"/>
        <pt x="1342" y="401" on="1"/>
        <pt x="1284" y="0" on="1"/>
        <pt x="85" y="0" on="1"/>
      </contour>
    </TTGlyph>
    <TTGlyph name="Eacute" xMin="85" yMin="0" xMax="1342" yMax="2014">
      <contour>
        <pt x="544" y="1692" on="1"/>
        <pt x="861" y="2014" on="1"/>
        <pt x="862" y="2014" on="1"/>
        <pt x="1059" y="1873" on="1"/>
        <pt x="1042" y="1845" on="0"/>
        <pt x="982" y="1788" on="0"/>
        <pt x="909" y="1732" on="0"/>
        <pt x="828" y="1681" on="0"/>
        <pt x="752" y="1640" on="0"/>
        <pt x="685" y="1610" on="0"/>
        <pt x="663" y="1604" on="1"/>
        <pt x="662" y="1604" on="1"/>
      </contour>
      <contour>
        <pt x="85" y="137" on="1"/>
        <pt x="249" y="164" on="1"/>
        <pt x="249" y="1357" on="1"/>
        <pt x="87" y="1388" on="1"/>
        <pt x="87" y="1522" on="1"/>
        <pt x="1188" y="1522" on="1"/>
        <pt x="1211" y="1175" on="1"/>
        <pt x="1040" y="1175" on="1"/>
        <pt x="967" y="1369" on="1"/>
        <pt x="569" y="1389" on="1"/>
        <pt x="569" y="847" on="1"/>
        <pt x="829" y="851" on="1"/>
        <pt x="859" y="1019" on="1"/>
        <pt x="1032" y="1019" on="1"/>
        <pt x="1032" y="528" on="1"/>
        <pt x="859" y="528" on="1"/>
        <pt x="829" y="696" on="1"/>
        <pt x="569" y="701" on="1"/>
        <pt x="569" y="153" on="1"/>
        <pt x="1048" y="176" on="1"/>
        <pt x="1171" y="440" on="1"/>
        <pt x="1342" y="401" on="1"/>
        <pt x="1284" y="0" on="1"/>
        <pt x="85" y="0" on="1"/>
      </contour>
    </TTGlyph>
    <TTGlyph name="Ebreve" xMin="85" yMin="0" xMax="1342" yMax="2005">
      <contour>
        <pt x="699" y="1621" on="1"/>
        <pt x="606" y="1621" on="0"/>
        <pt x="467" y="1677" on="0"/>
        <pt x="374" y="1771" on="0"/>
        <pt x="328" y="1894" on="0"/>
        <pt x="328" y="1960" on="1"/>
        <pt x="328" y="1982" on="0"/>
        <pt x="331" y="2005" on="1"/>
        <pt x="482" y="2005" on="1"/>
        <pt x="482" y="2001" on="0"/>
        <pt x="483" y="1990" on="0"/>
        <pt x="484" y="1982" on="1"/>
        <pt x="488" y="1961" on="0"/>
        <pt x="511" y="1906" on="0"/>
        <pt x="560" y="1857" on="0"/>
        <pt x="640" y="1822" on="0"/>
        <pt x="701" y="1822" on="1"/>
        <pt x="762" y="1822" on="0"/>
        <pt x="840" y="1857" on="0"/>
        <pt x="886" y="1907" on="0"/>
        <pt x="906" y="1962" on="0"/>
        <pt x="909" y="1982" on="1"/>
        <pt x="910" y="1990" on="0"/>
        <pt x="910" y="2001" on="0"/>
        <pt x="910" y="2005" on="1"/>
        <pt x="1063" y="2005" on="1"/>
        <pt x="1064" y="1994" on="0"/>
        <pt x="1065" y="1973" on="0"/>
        <pt x="1065" y="1962" on="1"/>
        <pt x="1065" y="1896" on="0"/>
        <pt x="1018" y="1772" on="0"/>
        <pt x="925" y="1678" on="0"/>
        <pt x="788" y="1621" on="0"/>
      </contour>
      <contour>
        <pt x="85" y="137" on="1"/>
        <pt x="249" y="164" on="1"/>
        <pt x="249" y="1357" on="1"/>
        <pt x="87" y="1388" on="1"/>
        <pt x="87" y="1522" on="1"/>
        <pt x="1188" y="1522" on="1"/>
        <pt x="1211" y="1175" on="1"/>
        <pt x="1040" y="1175" on="1"/>
        <pt x="967" y="1369" on="1"/>
        <pt x="569" y="1389" on="1"/>
        <pt x="569" y="847" on="1"/>
        <pt x="829" y="851" on="1"/>
        <pt x="859" y="1019" on="1"/>
        <pt x="1032" y="1019" on="1"/>
        <pt x="1032" y="528" on="1"/>
        <pt x="859" y="528" on="1"/>
        <pt x="829" y="696" on="1"/>
        <pt x="569" y="701" on="1"/>
        <pt x="569" y="153" on="1"/>
        <pt x="1048" y="176" on="1"/>
        <pt x="1171" y="440" on="1"/>
        <pt x="1342" y="401" on="1"/>
        <pt x="1284" y="0" on="1"/>
        <pt x="85" y="0" on="1"/>
      </contour>
    </TTGlyph>
    <TTGlyph name="Ecaron" xMin="85" yMin="0" xMax="1342" yMax="2014">
      <contour>
        <pt x="322" y="1927" on="1"/>
        <pt x="431" y="2014" on="1"/>
        <pt x="697" y="1823" on="1"/>
        <pt x="976" y="2014" on="1"/>
        <pt x="1081" y="1929" on="1"/>
        <pt x="797" y="1628" on="1"/>
        <pt x="596" y="1628" on="1"/>
      </contour>
      <contour>
        <pt x="85" y="137" on="1"/>
        <pt x="249" y="164" on="1"/>
        <pt x="249" y="1357" on="1"/>
        <pt x="87" y="1388" on="1"/>
        <pt x="87" y="1522" on="1"/>
        <pt x="1188" y="1522" on="1"/>
        <pt x="1211" y="1175" on="1"/>
        <pt x="1040" y="1175" on="1"/>
        <pt x="967" y="1369" on="1"/>
        <pt x="569" y="1389" on="1"/>
        <pt x="569" y="847" on="1"/>
        <pt x="829" y="851" on="1"/>
        <pt x="859" y="1019" on="1"/>
        <pt x="1032" y="1019" on="1"/>
        <pt x="1032" y="528" on="1"/>
        <pt x="859" y="528" on="1"/>
        <pt x="829" y="696" on="1"/>
        <pt x="569" y="701" on="1"/>
        <pt x="569" y="153" on="1"/>
        <pt x="1048" y="176" on="1"/>
        <pt x="1171" y="440" on="1"/>
        <pt x="1342" y="401" on="1"/>
        <pt x="1284" y="0" on="1"/>
        <pt x="85" y="0" on="1"/>
      </contour>
    </TTGlyph>
    <TTGlyph name="Ecircumflex" xMin="85" yMin="0" xMax="1342" yMax="2014">
      <contour>
        <pt x="85" y="137" on="1"/>
        <pt x="249" y="164" on="1"/>
        <pt x="249" y="1357" on="1"/>
        <pt x="87" y="1388" on="1"/>
        <pt x="87" y="1522" on="1"/>
        <pt x="1188" y="1522" on="1"/>
        <pt x="1211" y="1175" on="1"/>
        <pt x="1040" y="1175" on="1"/>
        <pt x="967" y="1369" on="1"/>
        <pt x="569" y="1389" on="1"/>
        <pt x="569" y="847" on="1"/>
        <pt x="829" y="851" on="1"/>
        <pt x="859" y="1019" on="1"/>
        <pt x="1032" y="1019" on="1"/>
        <pt x="1032" y="528" on="1"/>
        <pt x="859" y="528" on="1"/>
        <pt x="829" y="696" on="1"/>
        <pt x="569" y="701" on="1"/>
        <pt x="569" y="153" on="1"/>
        <pt x="1048" y="176" on="1"/>
        <pt x="1171" y="440" on="1"/>
        <pt x="1342" y="401" on="1"/>
        <pt x="1284" y="0" on="1"/>
        <pt x="85" y="0" on="1"/>
      </contour>
      <contour>
        <pt x="301" y="1701" on="1"/>
        <pt x="594" y="2014" on="1"/>
        <pt x="794" y="2014" on="1"/>
        <pt x="1088" y="1702" on="1"/>
        <pt x="980" y="1616" on="1"/>
        <pt x="694" y="1813" on="1"/>
        <pt x="406" y="1616" on="1"/>
      </contour>
    </TTGlyph>
    <TTGlyph name="Edieresis" xMin="85" yMin="0" xMax="1342" yMax="1996">
      <contour>
        <pt x="940" y="1645" on="1"/>
        <pt x="905" y="1645" on="0"/>
        <pt x="850" y="1671" on="0"/>
        <pt x="813" y="1715" on="0"/>
        <pt x="794" y="1774" on="0"/>
        <pt x="794" y="1807" on="1"/>
        <pt x="794" y="1846" on="0"/>
        <pt x="815" y="1915" on="0"/>
        <pt x="858" y="1966" on="0"/>
        <pt x="923" y="1996" on="0"/>
        <pt x="967" y="1996" on="1"/>
        <pt x="968" y="1996" on="1"/>
        <pt x="1008" y="1996" on="0"/>
        <pt x="1068" y="1970" on="0"/>
        <pt x="1107" y="1925" on="0"/>
        <pt x="1127" y="1867" on="0"/>
        <pt x="1127" y="1835" on="1"/>
        <pt x="1127" y="1795" on="0"/>
        <pt x="1105" y="1725" on="0"/>
        <pt x="1059" y="1674" on="0"/>
        <pt x="989" y="1645" on="0"/>
        <pt x="941" y="1645" on="1"/>
      </contour>
      <contour>
        <pt x="412" y="1645" on="1"/>
        <pt x="377" y="1645" on="0"/>
        <pt x="323" y="1671" on="0"/>
        <pt x="285" y="1715" on="0"/>
        <pt x="266" y="1774" on="0"/>
        <pt x="266" y="1807" on="1"/>
        <pt x="266" y="1846" on="0"/>
        <pt x="287" y="1915" on="0"/>
        <pt x="331" y="1966" on="0"/>
        <pt x="395" y="1996" on="0"/>
        <pt x="439" y="1996" on="1"/>
        <pt x="440" y="1996" on="1"/>
        <pt x="480" y="1996" on="0"/>
        <pt x="540" y="1970" on="0"/>
        <pt x="580" y="1925" on="0"/>
        <pt x="599" y="1867" on="0"/>
        <pt x="599" y="1835" on="1"/>
        <pt x="599" y="1795" on="0"/>
        <pt x="577" y="1725" on="0"/>
        <pt x="532" y="1674" on="0"/>
        <pt x="461" y="1645" on="0"/>
        <pt x="413" y="1645" on="1"/>
      </contour>
      <contour>
        <pt x="85" y="137" on="1"/>
        <pt x="249" y="164" on="1"/>
        <pt x="249" y="1357" on="1"/>
        <pt x="87" y="1388" on="1"/>
        <pt x="87" y="1522" on="1"/>
        <pt x="1188" y="1522" on="1"/>
        <pt x="1211" y="1175" on="1"/>
        <pt x="1040" y="1175" on="1"/>
        <pt x="967" y="1369" on="1"/>
        <pt x="569" y="1389" on="1"/>
        <pt x="569" y="847" on="1"/>
        <pt x="829" y="851" on="1"/>
        <pt x="859" y="1019" on="1"/>
        <pt x="1032" y="1019" on="1"/>
        <pt x="1032" y="528" on="1"/>
        <pt x="859" y="528" on="1"/>
        <pt x="829" y="696" on="1"/>
        <pt x="569" y="701" on="1"/>
        <pt x="569" y="153" on="1"/>
        <pt x="1048" y="176" on="1"/>
        <pt x="1171" y="440" on="1"/>
        <pt x="1342" y="401" on="1"/>
        <pt x="1284" y="0" on="1"/>
        <pt x="85" y="0" on="1"/>
      </contour>
    </TTGlyph>
    <TTGlyph name="Edotaccent" xMin="85" yMin="0" xMax="1342" yMax="1999">
      <contour>
        <pt x="676" y="1647" on="1"/>
        <pt x="641" y="1647" on="0"/>
        <pt x="586" y="1673" on="0"/>
        <pt x="549" y="1717" on="0"/>
        <pt x="530" y="1776" on="0"/>
        <pt x="530" y="1809" on="1"/>
        <pt x="530" y="1848" on="0"/>
        <pt x="551" y="1917" on="0"/>
        <pt x="595" y="1969" on="0"/>
        <pt x="659" y="1999" on="0"/>
        <pt x="703" y="1999" on="1"/>
        <pt x="704" y="1999" on="1"/>
        <pt x="744" y="1999" on="0"/>
        <pt x="804" y="1972" on="0"/>
        <pt x="844" y="1927" on="0"/>
        <pt x="863" y="1869" on="0"/>
        <pt x="863" y="1837" on="1"/>
        <pt x="863" y="1797" on="0"/>
        <pt x="841" y="1728" on="0"/>
        <pt x="796" y="1677" on="0"/>
        <pt x="725" y="1647" on="0"/>
        <pt x="677" y="1647" on="1"/>
        <pt x="676" y="1647" on="1"/>
      </contour>
      <contour>
        <pt x="85" y="137" on="1"/>
        <pt x="249" y="164" on="1"/>
        <pt x="249" y="1357" on="1"/>
        <pt x="87" y="1388" on="1"/>
        <pt x="87" y="1522" on="1"/>
        <pt x="1188" y="1522" on="1"/>
        <pt x="1211" y="1175" on="1"/>
        <pt x="1040" y="1175" on="1"/>
        <pt x="967" y="1369" on="1"/>
        <pt x="569" y="1389" on="1"/>
        <pt x="569" y="847" on="1"/>
        <pt x="829" y="851" on="1"/>
        <pt x="859" y="1019" on="1"/>
        <pt x="1032" y="1019" on="1"/>
        <pt x="1032" y="528" on="1"/>
        <pt x="859" y="528" on="1"/>
        <pt x="829" y="696" on="1"/>
        <pt x="569" y="701" on="1"/>
        <pt x="569" y="153" on="1"/>
        <pt x="1048" y="176" on="1"/>
        <pt x="1171" y="440" on="1"/>
        <pt x="1342" y="401" on="1"/>
        <pt x="1284" y="0" on="1"/>
        <pt x="85" y="0" on="1"/>
      </contour>
    </TTGlyph>
    <TTGlyph name="Egrave" xMin="85" yMin="0" xMax="1342" yMax="2014">
      <contour>
        <pt x="741" y="1604" on="1"/>
        <pt x="719" y="1610" on="0"/>
        <pt x="652" y="1640" on="0"/>
        <pt x="576" y="1681" on="0"/>
        <pt x="495" y="1732" on="0"/>
        <pt x="422" y="1788" on="0"/>
        <pt x="362" y="1845" on="0"/>
        <pt x="345" y="1873" on="1"/>
        <pt x="542" y="2014" on="1"/>
        <pt x="543" y="2014" on="1"/>
        <pt x="860" y="1692" on="1"/>
        <pt x="742" y="1604" on="1"/>
        <pt x="741" y="1604" on="1"/>
      </contour>
      <contour>
        <pt x="85" y="137" on="1"/>
        <pt x="249" y="164" on="1"/>
        <pt x="249" y="1357" on="1"/>
        <pt x="87" y="1388" on="1"/>
        <pt x="87" y="1522" on="1"/>
        <pt x="1188" y="1522" on="1"/>
        <pt x="1211" y="1175" on="1"/>
        <pt x="1040" y="1175" on="1"/>
        <pt x="967" y="1369" on="1"/>
        <pt x="569" y="1389" on="1"/>
        <pt x="569" y="847" on="1"/>
        <pt x="829" y="851" on="1"/>
        <pt x="859" y="1019" on="1"/>
        <pt x="1032" y="1019" on="1"/>
        <pt x="1032" y="528" on="1"/>
        <pt x="859" y="528" on="1"/>
        <pt x="829" y="696" on="1"/>
        <pt x="569" y="701" on="1"/>
        <pt x="569" y="153" on="1"/>
        <pt x="1048" y="176" on="1"/>
        <pt x="1171" y="440" on="1"/>
        <pt x="1342" y="401" on="1"/>
        <pt x="1284" y="0" on="1"/>
        <pt x="85" y="0" on="1"/>
      </contour>
    </TTGlyph>
    <TTGlyph name="Emacron" xMin="85" yMin="0" xMax="1342" yMax="1916">
      <contour>
        <pt x="387" y="1916" on="1"/>
        <pt x="1010" y="1916" on="1"/>
        <pt x="1010" y="1722" on="1"/>
        <pt x="387" y="1722" on="1"/>
      </contour>
      <contour>
        <pt x="85" y="137" on="1"/>
        <pt x="249" y="164" on="1"/>
        <pt x="249" y="1357" on="1"/>
        <pt x="87" y="1388" on="1"/>
        <pt x="87" y="1522" on="1"/>
        <pt x="1188" y="1522" on="1"/>
        <pt x="1211" y="1175" on="1"/>
        <pt x="1040" y="1175" on="1"/>
        <pt x="967" y="1369" on="1"/>
        <pt x="569" y="1389" on="1"/>
        <pt x="569" y="847" on="1"/>
        <pt x="829" y="851" on="1"/>
        <pt x="859" y="1019" on="1"/>
        <pt x="1032" y="1019" on="1"/>
        <pt x="1032" y="528" on="1"/>
        <pt x="859" y="528" on="1"/>
        <pt x="829" y="696" on="1"/>
        <pt x="569" y="701" on="1"/>
        <pt x="569" y="153" on="1"/>
        <pt x="1048" y="176" on="1"/>
        <pt x="1171" y="440" on="1"/>
        <pt x="1342" y="401" on="1"/>
        <pt x="1284" y="0" on="1"/>
        <pt x="85" y="0" on="1"/>
      </contour>
    </TTGlyph>
    <TTGlyph name="Eng" xMin="67" yMin="-394" xMax="1633" yMax="1522">
      <contour>
        <pt x="67" y="126" on="1"/>
        <pt x="252" y="154" on="1"/>
        <pt x="251" y="1367" on="1"/>
        <pt x="67" y="1399" on="1"/>
        <pt x="67" y="1522" on="1"/>
        <pt x="553" y="1522" on="1"/>
        <pt x="1155" y="633" on="1"/>
        <pt x="1279" y="381" on="1"/>
        <pt x="1278" y="1369" on="1"/>
        <pt x="1090" y="1399" on="1"/>
        <pt x="1090" y="1522" on="1"/>
        <pt x="1633" y="1522" on="1"/>
        <pt x="1633" y="1399" on="1"/>
        <pt x="1456" y="1369" on="1"/>
        <pt x="1456" y="430" on="1"/>
        <pt x="1456" y="275" on="0"/>
        <pt x="1424" y="63" on="0"/>
        <pt x="1373" y="-79" on="0"/>
        <pt x="1312" y="-169" on="0"/>
        <pt x="1283" y="-203" on="1"/>
        <pt x="1240" y="-251" on="0"/>
        <pt x="1157" y="-318" on="0"/>
        <pt x="1070" y="-363" on="0"/>
        <pt x="974" y="-388" on="0"/>
        <pt x="918" y="-394" on="1"/>
        <pt x="855" y="-288" on="1"/>
        <pt x="946" y="-261" on="0"/>
        <pt x="1090" y="-152" on="0"/>
        <pt x="1136" y="-74" on="1"/>
        <pt x="1147" y="-55" on="0"/>
        <pt x="1172" y="3" on="0"/>
        <pt x="1183" y="34" on="1"/>
        <pt x="560" y="956" on="1"/>
        <pt x="437" y="1208" on="1"/>
        <pt x="436" y="154" on="1"/>
        <pt x="647" y="126" on="1"/>
        <pt x="647" y="0" on="1"/>
        <pt x="67" y="0" on="1"/>
      </contour>
    </TTGlyph>
    <TTGlyph name="Eogonek" xMin="85" yMin="-513" xMax="1342" yMax="1522">
      <contour>
        <pt x="85" y="137" on="1"/>
        <pt x="249" y="164" on="1"/>
        <pt x="249" y="1357" on="1"/>
        <pt x="87" y="1388" on="1"/>
        <pt x="87" y="1522" on="1"/>
        <pt x="1188" y="1522" on="1"/>
        <pt x="1211" y="1175" on="1"/>
        <pt x="1040" y="1175" on="1"/>
        <pt x="967" y="1369" on="1"/>
        <pt x="569" y="1389" on="1"/>
        <pt x="569" y="847" on="1"/>
        <pt x="829" y="851" on="1"/>
        <pt x="859" y="1019" on="1"/>
        <pt x="1032" y="1019" on="1"/>
        <pt x="1032" y="528" on="1"/>
        <pt x="859" y="528" on="1"/>
        <pt x="829" y="696" on="1"/>
        <pt x="569" y="701" on="1"/>
        <pt x="569" y="153" on="1"/>
        <pt x="1048" y="176" on="1"/>
        <pt x="1171" y="440" on="1"/>
        <pt x="1342" y="401" on="1"/>
        <pt x="1284" y="0" on="1"/>
        <pt x="1222" y="0" on="1"/>
        <pt x="1170" y="-14" on="0"/>
        <pt x="1084" y="-66" on="0"/>
        <pt x="1022" y="-129" on="0"/>
        <pt x="988" y="-194" on="0"/>
        <pt x="988" y="-222" on="1"/>
        <pt x="988" y="-276" on="0"/>
        <pt x="1062" y="-331" on="0"/>
        <pt x="1124" y="-331" on="1"/>
        <pt x="1159" y="-331" on="0"/>
        <pt x="1214" y="-320" on="0"/>
        <pt x="1248" y="-306" on="1"/>
        <pt x="1248" y="-445" on="1"/>
        <pt x="1227" y="-461" on="0"/>
        <pt x="1168" y="-486" on="0"/>
        <pt x="1102" y="-504" on="0"/>
        <pt x="1033" y="-513" on="0"/>
        <pt x="1002" y="-513" on="1"/>
        <pt x="954" y="-513" on="0"/>
        <pt x="857" y="-491" on="0"/>
        <pt x="780" y="-442" on="0"/>
        <pt x="731" y="-365" on="0"/>
        <pt x="731" y="-310" on="1"/>
        <pt x="731" y="-269" on="0"/>
        <pt x="770" y="-181" on="0"/>
        <pt x="843" y="-97" on="0"/>
        <pt x="949" y="-25" on="0"/>
        <pt x="1016" y="0" on="1"/>
        <pt x="85" y="0" on="1"/>
      </contour>
    </TTGlyph>
    <TTGlyph name="Eth" xMin="85" yMin="-20" xMax="1528" yMax="1535">
      <contour>
        <pt x="85" y="137" on="1"/>
        <pt x="249" y="164" on="1"/>
        <pt x="249" y="715" on="1"/>
        <pt x="93" y="715" on="1"/>
        <pt x="93" y="861" on="1"/>
        <pt x="249" y="861" on="1"/>
        <pt x="249" y="1358" on="1"/>
        <pt x="92" y="1388" on="1"/>
        <pt x="92" y="1522" on="1"/>
        <pt x="404" y="1522" on="1"/>
        <pt x="460" y="1522" on="0"/>
        <pt x="550" y="1526" on="0"/>
        <pt x="639" y="1531" on="0"/>
        <pt x="736" y="1535" on="0"/>
        <pt x="798" y="1535" on="1"/>
        <pt x="990" y="1535" on="0"/>
        <pt x="1266" y="1438" on="0"/>
        <pt x="1444" y="1254" on="0"/>
        <pt x="1528" y="987" on="0"/>
        <pt x="1528" y="816" on="1"/>
        <pt x="1528" y="628" on="0"/>
        <pt x="1417" y="318" on="0"/>
        <pt x="1216" y="98" on="0"/>
        <pt x="933" y="-20" on="0"/>
        <pt x="762" y="-16" on="1"/>
        <pt x="724" y="-15" on="0"/>
        <pt x="634" y="-10" on="0"/>
        <pt x="539" y="-4" on="0"/>
        <pt x="447" y="0" on="0"/>
        <pt x="407" y="0" on="1"/>
        <pt x="85" y="0" on="1"/>
      </contour>
      <contour>
        <pt x="570" y="145" on="1"/>
        <pt x="610" y="131" on="0"/>
        <pt x="704" y="125" on="0"/>
        <pt x="759" y="127" on="1"/>
        <pt x="855" y="128" on="0"/>
        <pt x="1013" y="208" on="0"/>
        <pt x="1127" y="366" on="0"/>
        <pt x="1190" y="604" on="0"/>
        <pt x="1190" y="763" on="1"/>
        <pt x="1190" y="915" on="0"/>
        <pt x="1135" y="1152" on="0"/>
        <pt x="1021" y="1314" on="0"/>
        <pt x="844" y="1399" on="0"/>
        <pt x="722" y="1399" on="1"/>
        <pt x="665" y="1399" on="0"/>
        <pt x="589" y="1390" on="0"/>
        <pt x="570" y="1387" on="1"/>
        <pt x="570" y="861" on="1"/>
        <pt x="850" y="861" on="1"/>
        <pt x="850" y="715" on="1"/>
        <pt x="570" y="715" on="1"/>
      </contour>
    </TTGlyph>
    <TTGlyph name="Euro" xMin="108" yMin="-28" xMax="1424" yMax="1567">
      <contour>
        <pt x="108" y="659" on="1"/>
        <pt x="295" y="659" on="1"/>
        <pt x="294" y="676" on="0"/>
        <pt x="294" y="712" on="0"/>
        <pt x="294" y="730" on="1"/>
        <pt x="294" y="811" on="0"/>
        <pt x="303" y="886" on="1"/>
        <pt x="120" y="886" on="1"/>
        <pt x="120" y="1026" on="1"/>
        <pt x="330" y="1026" on="1"/>
        <pt x="363" y="1153" on="0"/>
        <pt x="486" y="1354" on="0"/>
        <pt x="655" y="1493" on="0"/>
        <pt x="863" y="1567" on="0"/>
        <pt x="982" y="1567" on="1"/>
        <pt x="1067" y="1567" on="0"/>
        <pt x="1202" y="1543" on="0"/>
        <pt x="1308" y="1513" on="0"/>
        <pt x="1391" y="1486" on="0"/>
        <pt x="1424" y="1483" on="1"/>
        <pt x="1402" y="1119" on="1"/>
        <pt x="1219" y="1119" on="1"/>
        <pt x="1166" y="1358" on="1"/>
        <pt x="1139" y="1392" on="0"/>
        <pt x="1029" y="1423" on="0"/>
        <pt x="962" y="1423" on="1"/>
        <pt x="834" y="1423" on="0"/>
        <pt x="668" y="1224" on="0"/>
        <pt x="637" y="1026" on="1"/>
        <pt x="1084" y="1026" on="1"/>
        <pt x="1084" y="886" on="1"/>
        <pt x="622" y="886" on="1"/>
        <pt x="620" y="861" on="0"/>
        <pt x="620" y="809" on="0"/>
        <pt x="620" y="782" on="1"/>
        <pt x="620" y="717" on="0"/>
        <pt x="623" y="659" on="1"/>
        <pt x="1064" y="659" on="1"/>
        <pt x="1064" y="520" on="1"/>
        <pt x="637" y="520" on="1"/>
        <pt x="651" y="424" on="0"/>
        <pt x="704" y="269" on="0"/>
        <pt x="785" y="160" on="0"/>
        <pt x="895" y="101" on="0"/>
        <pt x="966" y="101" on="1"/>
        <pt x="1041" y="101" on="0"/>
        <pt x="1135" y="140" on="0"/>
        <pt x="1172" y="179" on="1"/>
        <pt x="1272" y="381" on="1"/>
        <pt x="1421" y="342" on="1"/>
        <pt x="1409" y="62" on="1"/>
        <pt x="1376" y="60" on="0"/>
        <pt x="1285" y="32" on="0"/>
        <pt x="1163" y="-1" on="0"/>
        <pt x="1006" y="-28" on="0"/>
        <pt x="908" y="-28" on="1"/>
        <pt x="786" y="-28" on="0"/>
        <pt x="587" y="48" on="0"/>
        <pt x="435" y="190" on="0"/>
        <pt x="334" y="393" on="0"/>
        <pt x="311" y="520" on="1"/>
        <pt x="108" y="520" on="1"/>
      </contour>
    </TTGlyph>
    <TTGlyph name="F" xMin="83" yMin="0" xMax="1240" yMax="1522">
      <contour>
        <pt x="89" y="137" on="1"/>
        <pt x="249" y="164" on="1"/>
        <pt x="249" y="1357" on="1"/>
        <pt x="83" y="1388" on="1"/>
        <pt x="83" y="1522" on="1"/>
        <pt x="1220" y="1522" on="1"/>
        <pt x="1240" y="1145" on="1"/>
        <pt x="1042" y="1145" on="1"/>
        <pt x="965" y="1369" on="1"/>
        <pt x="569" y="1385" on="1"/>
        <pt x="569" y="834" on="1"/>
        <pt x="833" y="837" on="1"/>
        <pt x="874" y="999" on="1"/>
        <pt x="1041" y="999" on="1"/>
        <pt x="1041" y="498" on="1"/>
        <pt x="874" y="498" on="1"/>
        <pt x="833" y="671" on="1"/>
        <pt x="569" y="676" on="1"/>
        <pt x="569" y="164" on="1"/>
        <pt x="868" y="137" on="1"/>
        <pt x="868" y="0" on="1"/>
        <pt x="89" y="0" on="1"/>
      </contour>
    </TTGlyph>
    <TTGlyph name="G" xMin="77" yMin="-23" xMax="1519" yMax="1541">
      <contour>
        <pt x="77" y="739" on="1"/>
        <pt x="77" y="927" on="0"/>
        <pt x="200" y="1224" on="0"/>
        <pt x="417" y="1431" on="0"/>
        <pt x="713" y="1541" on="0"/>
        <pt x="886" y="1541" on="1"/>
        <pt x="968" y="1541" on="0"/>
        <pt x="1128" y="1526" on="0"/>
        <pt x="1265" y="1505" on="0"/>
        <pt x="1371" y="1483" on="0"/>
        <pt x="1398" y="1477" on="1"/>
        <pt x="1375" y="1091" on="1"/>
        <pt x="1159" y="1091" on="1"/>
        <pt x="1099" y="1342" on="1"/>
        <pt x="1088" y="1352" on="0"/>
        <pt x="1057" y="1373" on="0"/>
        <pt x="1005" y="1391" on="0"/>
        <pt x="927" y="1403" on="0"/>
        <pt x="870" y="1403" on="1"/>
        <pt x="773" y="1403" on="0"/>
        <pt x="613" y="1329" on="0"/>
        <pt x="499" y="1177" on="0"/>
        <pt x="436" y="947" on="0"/>
        <pt x="436" y="791" on="1"/>
        <pt x="436" y="703" on="0"/>
        <pt x="457" y="535" on="0"/>
        <pt x="501" y="386" on="0"/>
        <pt x="569" y="260" on="0"/>
        <pt x="660" y="169" on="0"/>
        <pt x="776" y="118" on="0"/>
        <pt x="847" y="118" on="1"/>
        <pt x="932" y="118" on="0"/>
        <pt x="1063" y="156" on="0"/>
        <pt x="1095" y="189" on="1"/>
        <pt x="1095" y="603" on="1"/>
        <pt x="899" y="626" on="1"/>
        <pt x="899" y="790" on="1"/>
        <pt x="1519" y="790" on="1"/>
        <pt x="1519" y="626" on="1"/>
        <pt x="1414" y="607" on="1"/>
        <pt x="1414" y="82" on="1"/>
        <pt x="1373" y="80" on="0"/>
        <pt x="1255" y="47" on="0"/>
        <pt x="1104" y="8" on="0"/>
        <pt x="923" y="-23" on="0"/>
        <pt x="818" y="-23" on="1"/>
        <pt x="641" y="-23" on="0"/>
        <pt x="365" y="90" on="0"/>
        <pt x="176" y="293" on="0"/>
        <pt x="77" y="572" on="0"/>
      </contour>
    </TTGlyph>
    <TTGlyph name="Gbreve" xMin="81" yMin="-23" xMax="1523" yMax="2005">
      <contour>
        <pt x="859" y="1621" on="1"/>
        <pt x="766" y="1621" on="0"/>
        <pt x="627" y="1677" on="0"/>
        <pt x="534" y="1771" on="0"/>
        <pt x="488" y="1894" on="0"/>
        <pt x="488" y="1960" on="1"/>
        <pt x="488" y="1982" on="0"/>
        <pt x="491" y="2005" on="1"/>
        <pt x="642" y="2005" on="1"/>
        <pt x="642" y="2001" on="0"/>
        <pt x="643" y="1990" on="0"/>
        <pt x="644" y="1982" on="1"/>
        <pt x="648" y="1961" on="0"/>
        <pt x="671" y="1906" on="0"/>
        <pt x="720" y="1857" on="0"/>
        <pt x="800" y="1822" on="0"/>
        <pt x="861" y="1822" on="1"/>
        <pt x="922" y="1822" on="0"/>
        <pt x="1000" y="1857" on="0"/>
        <pt x="1046" y="1907" on="0"/>
        <pt x="1066" y="1962" on="0"/>
        <pt x="1069" y="1982" on="1"/>
        <pt x="1070" y="1990" on="0"/>
        <pt x="1070" y="2001" on="0"/>
        <pt x="1070" y="2005" on="1"/>
        <pt x="1223" y="2005" on="1"/>
        <pt x="1224" y="1994" on="0"/>
        <pt x="1225" y="1973" on="0"/>
        <pt x="1225" y="1962" on="1"/>
        <pt x="1225" y="1896" on="0"/>
        <pt x="1178" y="1772" on="0"/>
        <pt x="1085" y="1678" on="0"/>
        <pt x="948" y="1621" on="0"/>
      </contour>
      <contour>
        <pt x="81" y="739" on="1"/>
        <pt x="81" y="927" on="0"/>
        <pt x="204" y="1224" on="0"/>
        <pt x="421" y="1431" on="0"/>
        <pt x="717" y="1541" on="0"/>
        <pt x="890" y="1541" on="1"/>
        <pt x="972" y="1541" on="0"/>
        <pt x="1132" y="1526" on="0"/>
        <pt x="1269" y="1505" on="0"/>
        <pt x="1375" y="1483" on="0"/>
        <pt x="1402" y="1477" on="1"/>
        <pt x="1379" y="1091" on="1"/>
        <pt x="1163" y="1091" on="1"/>
        <pt x="1103" y="1342" on="1"/>
        <pt x="1092" y="1352" on="0"/>
        <pt x="1061" y="1373" on="0"/>
        <pt x="1009" y="1391" on="0"/>
        <pt x="931" y="1403" on="0"/>
        <pt x="874" y="1403" on="1"/>
        <pt x="777" y="1403" on="0"/>
        <pt x="617" y="1329" on="0"/>
        <pt x="503" y="1177" on="0"/>
        <pt x="440" y="947" on="0"/>
        <pt x="440" y="791" on="1"/>
        <pt x="440" y="703" on="0"/>
        <pt x="461" y="535" on="0"/>
        <pt x="505" y="386" on="0"/>
        <pt x="573" y="260" on="0"/>
        <pt x="664" y="169" on="0"/>
        <pt x="780" y="118" on="0"/>
        <pt x="851" y="118" on="1"/>
        <pt x="936" y="118" on="0"/>
        <pt x="1067" y="156" on="0"/>
        <pt x="1099" y="189" on="1"/>
        <pt x="1099" y="603" on="1"/>
        <pt x="903" y="626" on="1"/>
        <pt x="903" y="790" on="1"/>
        <pt x="1523" y="790" on="1"/>
        <pt x="1523" y="626" on="1"/>
        <pt x="1418" y="607" on="1"/>
        <pt x="1418" y="82" on="1"/>
        <pt x="1377" y="80" on="0"/>
        <pt x="1259" y="47" on="0"/>
        <pt x="1108" y="8" on="0"/>
        <pt x="927" y="-23" on="0"/>
        <pt x="822" y="-23" on="1"/>
        <pt x="645" y="-23" on="0"/>
        <pt x="369" y="90" on="0"/>
        <pt x="180" y="293" on="0"/>
        <pt x="81" y="572" on="0"/>
      </contour>
    </TTGlyph>
    <TTGlyph name="Gcircumflex" xMin="81" yMin="-23" xMax="1523" yMax="2014">
      <contour>
        <pt x="81" y="739" on="1"/>
        <pt x="81" y="927" on="0"/>
        <pt x="204" y="1224" on="0"/>
        <pt x="421" y="1431" on="0"/>
        <pt x="717" y="1541" on="0"/>
        <pt x="890" y="1541" on="1"/>
        <pt x="972" y="1541" on="0"/>
        <pt x="1132" y="1526" on="0"/>
        <pt x="1269" y="1505" on="0"/>
        <pt x="1375" y="1483" on="0"/>
        <pt x="1402" y="1477" on="1"/>
        <pt x="1379" y="1091" on="1"/>
        <pt x="1163" y="1091" on="1"/>
        <pt x="1103" y="1342" on="1"/>
        <pt x="1092" y="1352" on="0"/>
        <pt x="1061" y="1373" on="0"/>
        <pt x="1009" y="1391" on="0"/>
        <pt x="931" y="1403" on="0"/>
        <pt x="874" y="1403" on="1"/>
        <pt x="777" y="1403" on="0"/>
        <pt x="617" y="1329" on="0"/>
        <pt x="503" y="1177" on="0"/>
        <pt x="440" y="947" on="0"/>
        <pt x="440" y="791" on="1"/>
        <pt x="440" y="703" on="0"/>
        <pt x="461" y="535" on="0"/>
        <pt x="505" y="386" on="0"/>
        <pt x="573" y="260" on="0"/>
        <pt x="664" y="169" on="0"/>
        <pt x="780" y="118" on="0"/>
        <pt x="851" y="118" on="1"/>
        <pt x="936" y="118" on="0"/>
        <pt x="1067" y="156" on="0"/>
        <pt x="1099" y="189" on="1"/>
        <pt x="1099" y="603" on="1"/>
        <pt x="903" y="626" on="1"/>
        <pt x="903" y="790" on="1"/>
        <pt x="1523" y="790" on="1"/>
        <pt x="1523" y="626" on="1"/>
        <pt x="1418" y="607" on="1"/>
        <pt x="1418" y="82" on="1"/>
        <pt x="1377" y="80" on="0"/>
        <pt x="1259" y="47" on="0"/>
        <pt x="1108" y="8" on="0"/>
        <pt x="927" y="-23" on="0"/>
        <pt x="822" y="-23" on="1"/>
        <pt x="645" y="-23" on="0"/>
        <pt x="369" y="90" on="0"/>
        <pt x="180" y="293" on="0"/>
        <pt x="81" y="572" on="0"/>
      </contour>
      <contour>
        <pt x="461" y="1701" on="1"/>
        <pt x="754" y="2014" on="1"/>
        <pt x="954" y="2014" on="1"/>
        <pt x="1248" y="1702" on="1"/>
        <pt x="1140" y="1616" on="1"/>
        <pt x="854" y="1813" on="1"/>
        <pt x="566" y="1616" on="1"/>
      </contour>
    </TTGlyph>
    <TTGlyph name="Gcommaaccent" xMin="81" yMin="-560" xMax="1523" yMax="1541">
      <contour>
        <pt x="641" y="-209" on="1"/>
        <pt x="641" y="-171" on="0"/>
        <pt x="671" y="-122" on="0"/>
        <pt x="716" y="-95" on="0"/>
        <pt x="766" y="-85" on="0"/>
        <pt x="787" y="-85" on="1"/>
        <pt x="798" y="-85" on="1"/>
        <pt x="835" y="-85" on="0"/>
        <pt x="895" y="-111" on="0"/>
        <pt x="937" y="-159" on="0"/>
        <pt x="960" y="-225" on="0"/>
        <pt x="960" y="-265" on="1"/>
        <pt x="960" y="-312" on="0"/>
        <pt x="934" y="-392" on="0"/>
        <pt x="896" y="-457" on="0"/>
        <pt x="850" y="-508" on="0"/>
        <pt x="810" y="-542" on="0"/>
        <pt x="782" y="-560" on="0"/>
        <pt x="781" y="-560" on="1"/>
        <pt x="779" y="-560" on="1"/>
        <pt x="685" y="-510" on="1"/>
        <pt x="685" y="-499" on="1"/>
        <pt x="711" y="-481" on="0"/>
        <pt x="732" y="-409" on="0"/>
        <pt x="732" y="-374" on="1"/>
        <pt x="732" y="-348" on="0"/>
        <pt x="705" y="-320" on="0"/>
        <pt x="688" y="-310" on="1"/>
        <pt x="670" y="-299" on="0"/>
        <pt x="641" y="-252" on="0"/>
      </contour>
      <contour>
        <pt x="81" y="739" on="1"/>
        <pt x="81" y="927" on="0"/>
        <pt x="204" y="1224" on="0"/>
        <pt x="421" y="1431" on="0"/>
        <pt x="717" y="1541" on="0"/>
        <pt x="890" y="1541" on="1"/>
        <pt x="972" y="1541" on="0"/>
        <pt x="1132" y="1526" on="0"/>
        <pt x="1269" y="1505" on="0"/>
        <pt x="1375" y="1483" on="0"/>
        <pt x="1402" y="1477" on="1"/>
        <pt x="1379" y="1091" on="1"/>
        <pt x="1163" y="1091" on="1"/>
        <pt x="1103" y="1342" on="1"/>
        <pt x="1092" y="1352" on="0"/>
        <pt x="1061" y="1373" on="0"/>
        <pt x="1009" y="1391" on="0"/>
        <pt x="931" y="1403" on="0"/>
        <pt x="874" y="1403" on="1"/>
        <pt x="777" y="1403" on="0"/>
        <pt x="617" y="1329" on="0"/>
        <pt x="503" y="1177" on="0"/>
        <pt x="440" y="947" on="0"/>
        <pt x="440" y="791" on="1"/>
        <pt x="440" y="703" on="0"/>
        <pt x="461" y="535" on="0"/>
        <pt x="505" y="386" on="0"/>
        <pt x="573" y="260" on="0"/>
        <pt x="664" y="169" on="0"/>
        <pt x="780" y="118" on="0"/>
        <pt x="851" y="118" on="1"/>
        <pt x="936" y="118" on="0"/>
        <pt x="1067" y="156" on="0"/>
        <pt x="1099" y="189" on="1"/>
        <pt x="1099" y="603" on="1"/>
        <pt x="903" y="626" on="1"/>
        <pt x="903" y="790" on="1"/>
        <pt x="1523" y="790" on="1"/>
        <pt x="1523" y="626" on="1"/>
        <pt x="1418" y="607" on="1"/>
        <pt x="1418" y="82" on="1"/>
        <pt x="1377" y="80" on="0"/>
        <pt x="1259" y="47" on="0"/>
        <pt x="1108" y="8" on="0"/>
        <pt x="927" y="-23" on="0"/>
        <pt x="822" y="-23" on="1"/>
        <pt x="645" y="-23" on="0"/>
        <pt x="369" y="90" on="0"/>
        <pt x="180" y="293" on="0"/>
        <pt x="81" y="572" on="0"/>
      </contour>
    </TTGlyph>
    <TTGlyph name="Gdotaccent" xMin="81" yMin="-23" xMax="1523" yMax="1999">
      <contour>
        <pt x="836" y="1647" on="1"/>
        <pt x="801" y="1647" on="0"/>
        <pt x="746" y="1673" on="0"/>
        <pt x="709" y="1717" on="0"/>
        <pt x="690" y="1776" on="0"/>
        <pt x="690" y="1809" on="1"/>
        <pt x="690" y="1848" on="0"/>
        <pt x="711" y="1917" on="0"/>
        <pt x="755" y="1969" on="0"/>
        <pt x="819" y="1999" on="0"/>
        <pt x="863" y="1999" on="1"/>
        <pt x="864" y="1999" on="1"/>
        <pt x="904" y="1999" on="0"/>
        <pt x="964" y="1972" on="0"/>
        <pt x="1004" y="1927" on="0"/>
        <pt x="1023" y="1869" on="0"/>
        <pt x="1023" y="1837" on="1"/>
        <pt x="1023" y="1797" on="0"/>
        <pt x="1001" y="1728" on="0"/>
        <pt x="956" y="1677" on="0"/>
        <pt x="885" y="1647" on="0"/>
        <pt x="837" y="1647" on="1"/>
        <pt x="836" y="1647" on="1"/>
      </contour>
      <contour>
        <pt x="81" y="739" on="1"/>
        <pt x="81" y="927" on="0"/>
        <pt x="204" y="1224" on="0"/>
        <pt x="421" y="1431" on="0"/>
        <pt x="717" y="1541" on="0"/>
        <pt x="890" y="1541" on="1"/>
        <pt x="972" y="1541" on="0"/>
        <pt x="1132" y="1526" on="0"/>
        <pt x="1269" y="1505" on="0"/>
        <pt x="1375" y="1483" on="0"/>
        <pt x="1402" y="1477" on="1"/>
        <pt x="1379" y="1091" on="1"/>
        <pt x="1163" y="1091" on="1"/>
        <pt x="1103" y="1342" on="1"/>
        <pt x="1092" y="1352" on="0"/>
        <pt x="1061" y="1373" on="0"/>
        <pt x="1009" y="1391" on="0"/>
        <pt x="931" y="1403" on="0"/>
        <pt x="874" y="1403" on="1"/>
        <pt x="777" y="1403" on="0"/>
        <pt x="617" y="1329" on="0"/>
        <pt x="503" y="1177" on="0"/>
        <pt x="440" y="947" on="0"/>
        <pt x="440" y="791" on="1"/>
        <pt x="440" y="703" on="0"/>
        <pt x="461" y="535" on="0"/>
        <pt x="505" y="386" on="0"/>
        <pt x="573" y="260" on="0"/>
        <pt x="664" y="169" on="0"/>
        <pt x="780" y="118" on="0"/>
        <pt x="851" y="118" on="1"/>
        <pt x="936" y="118" on="0"/>
        <pt x="1067" y="156" on="0"/>
        <pt x="1099" y="189" on="1"/>
        <pt x="1099" y="603" on="1"/>
        <pt x="903" y="626" on="1"/>
        <pt x="903" y="790" on="1"/>
        <pt x="1523" y="790" on="1"/>
        <pt x="1523" y="626" on="1"/>
        <pt x="1418" y="607" on="1"/>
        <pt x="1418" y="82" on="1"/>
        <pt x="1377" y="80" on="0"/>
        <pt x="1259" y="47" on="0"/>
        <pt x="1108" y="8" on="0"/>
        <pt x="927" y="-23" on="0"/>
        <pt x="822" y="-23" on="1"/>
        <pt x="645" y="-23" on="0"/>
        <pt x="369" y="90" on="0"/>
        <pt x="180" y="293" on="0"/>
        <pt x="81" y="572" on="0"/>
      </contour>
    </TTGlyph>
    <TTGlyph name="H" xMin="86" yMin="0" xMax="1639" yMax="1522">
      <contour>
        <pt x="86" y="137" on="1"/>
        <pt x="249" y="164" on="1"/>
        <pt x="249" y="1357" on="1"/>
        <pt x="89" y="1388" on="1"/>
        <pt x="89" y="1522" on="1"/>
        <pt x="737" y="1522" on="1"/>
        <pt x="737" y="1388" on="1"/>
        <pt x="566" y="1357" on="1"/>
        <pt x="566" y="856" on="1"/>
        <pt x="1162" y="856" on="1"/>
        <pt x="1162" y="1357" on="1"/>
        <pt x="1000" y="1388" on="1"/>
        <pt x="1000" y="1522" on="1"/>
        <pt x="1639" y="1522" on="1"/>
        <pt x="1639" y="1388" on="1"/>
        <pt x="1479" y="1357" on="1"/>
        <pt x="1479" y="164" on="1"/>
        <pt x="1639" y="137" on="1"/>
        <pt x="1639" y="0" on="1"/>
        <pt x="1002" y="0" on="1"/>
        <pt x="1002" y="137" on="1"/>
        <pt x="1162" y="164" on="1"/>
        <pt x="1162" y="698" on="1"/>
        <pt x="566" y="698" on="1"/>
        <pt x="566" y="164" on="1"/>
        <pt x="737" y="137" on="1"/>
        <pt x="737" y="0" on="1"/>
        <pt x="86" y="0" on="1"/>
      </contour>
    </TTGlyph>
    <TTGlyph name="Hbar" xMin="54" yMin="0" xMax="1674" yMax="1522">
      <contour>
        <pt x="85" y="137" on="1"/>
        <pt x="249" y="165" on="1"/>
        <pt x="249" y="1003" on="1"/>
        <pt x="54" y="1003" on="1"/>
        <pt x="54" y="1135" on="1"/>
        <pt x="249" y="1135" on="1"/>
        <pt x="249" y="1356" on="1"/>
        <pt x="89" y="1388" on="1"/>
        <pt x="89" y="1522" on="1"/>
        <pt x="736" y="1522" on="1"/>
        <pt x="736" y="1388" on="1"/>
        <pt x="565" y="1357" on="1"/>
        <pt x="565" y="1135" on="1"/>
        <pt x="1163" y="1135" on="1"/>
        <pt x="1163" y="1357" on="1"/>
        <pt x="1001" y="1388" on="1"/>
        <pt x="1001" y="1522" on="1"/>
        <pt x="1639" y="1522" on="1"/>
        <pt x="1639" y="1388" on="1"/>
        <pt x="1479" y="1357" on="1"/>
        <pt x="1479" y="1135" on="1"/>
        <pt x="1674" y="1135" on="1"/>
        <pt x="1674" y="1003" on="1"/>
        <pt x="1479" y="1003" on="1"/>
        <pt x="1479" y="164" on="1"/>
        <pt x="1639" y="137" on="1"/>
        <pt x="1639" y="0" on="1"/>
        <pt x="1003" y="0" on="1"/>
        <pt x="1003" y="137" on="1"/>
        <pt x="1163" y="164" on="1"/>
        <pt x="1163" y="596" on="1"/>
        <pt x="565" y="596" on="1"/>
        <pt x="565" y="164" on="1"/>
        <pt x="736" y="137" on="1"/>
        <pt x="736" y="0" on="1"/>
        <pt x="85" y="0" on="1"/>
      </contour>
      <contour>
        <pt x="1163" y="754" on="1"/>
        <pt x="1163" y="1003" on="1"/>
        <pt x="565" y="1003" on="1"/>
        <pt x="565" y="754" on="1"/>
      </contour>
    </TTGlyph>
    <TTGlyph name="Hcircumflex" xMin="86" yMin="0" xMax="1639" yMax="2014">
      <contour>
        <pt x="86" y="137" on="1"/>
        <pt x="249" y="164" on="1"/>
        <pt x="249" y="1357" on="1"/>
        <pt x="89" y="1388" on="1"/>
        <pt x="89" y="1522" on="1"/>
        <pt x="737" y="1522" on="1"/>
        <pt x="737" y="1388" on="1"/>
        <pt x="566" y="1357" on="1"/>
        <pt x="566" y="856" on="1"/>
        <pt x="1162" y="856" on="1"/>
        <pt x="1162" y="1357" on="1"/>
        <pt x="1000" y="1388" on="1"/>
        <pt x="1000" y="1522" on="1"/>
        <pt x="1639" y="1522" on="1"/>
        <pt x="1639" y="1388" on="1"/>
        <pt x="1479" y="1357" on="1"/>
        <pt x="1479" y="164" on="1"/>
        <pt x="1639" y="137" on="1"/>
        <pt x="1639" y="0" on="1"/>
        <pt x="1002" y="0" on="1"/>
        <pt x="1002" y="137" on="1"/>
        <pt x="1162" y="164" on="1"/>
        <pt x="1162" y="698" on="1"/>
        <pt x="566" y="698" on="1"/>
        <pt x="566" y="164" on="1"/>
        <pt x="737" y="137" on="1"/>
        <pt x="737" y="0" on="1"/>
        <pt x="86" y="0" on="1"/>
      </contour>
      <contour>
        <pt x="472" y="1701" on="1"/>
        <pt x="765" y="2014" on="1"/>
        <pt x="965" y="2014" on="1"/>
        <pt x="1259" y="1702" on="1"/>
        <pt x="1151" y="1616" on="1"/>
        <pt x="865" y="1813" on="1"/>
        <pt x="577" y="1616" on="1"/>
      </contour>
    </TTGlyph>
    <TTGlyph name="I" xMin="88" yMin="0" xMax="756" yMax="1522">
      <contour>
        <pt x="88" y="137" on="1"/>
        <pt x="264" y="165" on="1"/>
        <pt x="264" y="1357" on="1"/>
        <pt x="88" y="1388" on="1"/>
        <pt x="88" y="1522" on="1"/>
        <pt x="756" y="1522" on="1"/>
        <pt x="756" y="1388" on="1"/>
        <pt x="581" y="1357" on="1"/>
        <pt x="581" y="165" on="1"/>
        <pt x="756" y="135" on="1"/>
        <pt x="756" y="0" on="1"/>
        <pt x="88" y="0" on="1"/>
      </contour>
    </TTGlyph>
    <TTGlyph name="IJ" xMin="88" yMin="-391" xMax="1597" yMax="1522">
      <contour>
        <pt x="88" y="137" on="1"/>
        <pt x="264" y="165" on="1"/>
        <pt x="264" y="1357" on="1"/>
        <pt x="88" y="1388" on="1"/>
        <pt x="88" y="1522" on="1"/>
        <pt x="756" y="1522" on="1"/>
        <pt x="756" y="1388" on="1"/>
        <pt x="581" y="1357" on="1"/>
        <pt x="581" y="165" on="1"/>
        <pt x="756" y="135" on="1"/>
        <pt x="756" y="0" on="1"/>
        <pt x="88" y="0" on="1"/>
      </contour>
      <contour>
        <pt x="1068" y="2" on="1"/>
        <pt x="1078" y="35" on="0"/>
        <pt x="1092" y="108" on="0"/>
        <pt x="1101" y="206" on="0"/>
        <pt x="1105" y="333" on="0"/>
        <pt x="1105" y="420" on="1"/>
        <pt x="1105" y="1357" on="1"/>
        <pt x="929" y="1388" on="1"/>
        <pt x="929" y="1522" on="1"/>
        <pt x="1597" y="1522" on="1"/>
        <pt x="1597" y="1388" on="1"/>
        <pt x="1423" y="1357" on="1"/>
        <pt x="1423" y="569" on="1"/>
        <pt x="1423" y="389" on="0"/>
        <pt x="1413" y="120" on="0"/>
        <pt x="1394" y="42" on="1"/>
        <pt x="1373" y="-42" on="0"/>
        <pt x="1285" y="-182" on="0"/>
        <pt x="1155" y="-291" on="0"/>
        <pt x="987" y="-369" on="0"/>
        <pt x="887" y="-391" on="1"/>
        <pt x="815" y="-275" on="1"/>
        <pt x="854" y="-260" on="0"/>
        <pt x="929" y="-213" on="0"/>
        <pt x="995" y="-145" on="0"/>
        <pt x="1050" y="-55" on="0"/>
      </contour>
    </TTGlyph>
    <TTGlyph name="Iacute" xMin="88" yMin="0" xMax="793" yMax="2014">
      <contour>
        <pt x="88" y="137" on="1"/>
        <pt x="264" y="165" on="1"/>
        <pt x="264" y="1357" on="1"/>
        <pt x="88" y="1388" on="1"/>
        <pt x="88" y="1522" on="1"/>
        <pt x="756" y="1522" on="1"/>
        <pt x="756" y="1388" on="1"/>
        <pt x="581" y="1357" on="1"/>
        <pt x="581" y="165" on="1"/>
        <pt x="756" y="135" on="1"/>
        <pt x="756" y="0" on="1"/>
        <pt x="88" y="0" on="1"/>
      </contour>
      <contour>
        <pt x="278" y="1692" on="1"/>
        <pt x="595" y="2014" on="1"/>
        <pt x="596" y="2014" on="1"/>
        <pt x="793" y="1873" on="1"/>
        <pt x="776" y="1845" on="0"/>
        <pt x="716" y="1788" on="0"/>
        <pt x="643" y="1732" on="0"/>
        <pt x="562" y="1681" on="0"/>
        <pt x="486" y="1640" on="0"/>
        <pt x="419" y="1610" on="0"/>
        <pt x="397" y="1604" on="1"/>
        <pt x="396" y="1604" on="1"/>
      </contour>
    </TTGlyph>
    <TTGlyph name="Ibreve" xMin="68" yMin="0" xMax="805" yMax="2005">
      <contour>
        <pt x="88" y="137" on="1"/>
        <pt x="264" y="165" on="1"/>
        <pt x="264" y="1357" on="1"/>
        <pt x="88" y="1388" on="1"/>
        <pt x="88" y="1522" on="1"/>
        <pt x="756" y="1522" on="1"/>
        <pt x="756" y="1388" on="1"/>
        <pt x="581" y="1357" on="1"/>
        <pt x="581" y="165" on="1"/>
        <pt x="756" y="135" on="1"/>
        <pt x="756" y="0" on="1"/>
        <pt x="88" y="0" on="1"/>
      </contour>
      <contour>
        <pt x="439" y="1621" on="1"/>
        <pt x="346" y="1621" on="0"/>
        <pt x="207" y="1677" on="0"/>
        <pt x="114" y="1771" on="0"/>
        <pt x="68" y="1894" on="0"/>
        <pt x="68" y="1960" on="1"/>
        <pt x="68" y="1982" on="0"/>
        <pt x="71" y="2005" on="1"/>
        <pt x="222" y="2005" on="1"/>
        <pt x="222" y="2001" on="0"/>
        <pt x="223" y="1990" on="0"/>
        <pt x="224" y="1982" on="1"/>
        <pt x="228" y="1961" on="0"/>
        <pt x="251" y="1906" on="0"/>
        <pt x="300" y="1857" on="0"/>
        <pt x="380" y="1822" on="0"/>
        <pt x="441" y="1822" on="1"/>
        <pt x="502" y="1822" on="0"/>
        <pt x="580" y="1857" on="0"/>
        <pt x="626" y="1907" on="0"/>
        <pt x="646" y="1962" on="0"/>
        <pt x="649" y="1982" on="1"/>
        <pt x="650" y="1990" on="0"/>
        <pt x="650" y="2001" on="0"/>
        <pt x="650" y="2005" on="1"/>
        <pt x="803" y="2005" on="1"/>
        <pt x="804" y="1994" on="0"/>
        <pt x="805" y="1973" on="0"/>
        <pt x="805" y="1962" on="1"/>
        <pt x="805" y="1896" on="0"/>
        <pt x="758" y="1772" on="0"/>
        <pt x="665" y="1678" on="0"/>
        <pt x="528" y="1621" on="0"/>
      </contour>
    </TTGlyph>
    <TTGlyph name="Icircumflex" xMin="41" yMin="0" xMax="828" yMax="2014">
      <contour>
        <pt x="88" y="137" on="1"/>
        <pt x="264" y="165" on="1"/>
        <pt x="264" y="1357" on="1"/>
        <pt x="88" y="1388" on="1"/>
        <pt x="88" y="1522" on="1"/>
        <pt x="756" y="1522" on="1"/>
        <pt x="756" y="1388" on="1"/>
        <pt x="581" y="1357" on="1"/>
        <pt x="581" y="165" on="1"/>
        <pt x="756" y="135" on="1"/>
        <pt x="756" y="0" on="1"/>
        <pt x="88" y="0" on="1"/>
      </contour>
      <contour>
        <pt x="41" y="1701" on="1"/>
        <pt x="334" y="2014" on="1"/>
        <pt x="534" y="2014" on="1"/>
        <pt x="828" y="1702" on="1"/>
        <pt x="720" y="1616" on="1"/>
        <pt x="434" y="1813" on="1"/>
        <pt x="146" y="1616" on="1"/>
      </contour>
    </TTGlyph>
    <TTGlyph name="Idieresis" xMin="6" yMin="0" xMax="867" yMax="1996">
      <contour>
        <pt x="88" y="137" on="1"/>
        <pt x="264" y="165" on="1"/>
        <pt x="264" y="1357" on="1"/>
        <pt x="88" y="1388" on="1"/>
        <pt x="88" y="1522" on="1"/>
        <pt x="756" y="1522" on="1"/>
        <pt x="756" y="1388" on="1"/>
        <pt x="581" y="1357" on="1"/>
        <pt x="581" y="165" on="1"/>
        <pt x="756" y="135" on="1"/>
        <pt x="756" y="0" on="1"/>
        <pt x="88" y="0" on="1"/>
      </contour>
      <contour>
        <pt x="680" y="1645" on="1"/>
        <pt x="645" y="1645" on="0"/>
        <pt x="590" y="1671" on="0"/>
        <pt x="553" y="1715" on="0"/>
        <pt x="534" y="1774" on="0"/>
        <pt x="534" y="1807" on="1"/>
        <pt x="534" y="1846" on="0"/>
        <pt x="555" y="1915" on="0"/>
        <pt x="598" y="1966" on="0"/>
        <pt x="663" y="1996" on="0"/>
        <pt x="707" y="1996" on="1"/>
        <pt x="708" y="1996" on="1"/>
        <pt x="748" y="1996" on="0"/>
        <pt x="808" y="1970" on="0"/>
        <pt x="847" y="1925" on="0"/>
        <pt x="867" y="1867" on="0"/>
        <pt x="867" y="1835" on="1"/>
        <pt x="867" y="1795" on="0"/>
        <pt x="845" y="1725" on="0"/>
        <pt x="799" y="1674" on="0"/>
        <pt x="729" y="1645" on="0"/>
        <pt x="681" y="1645" on="1"/>
      </contour>
      <contour>
        <pt x="152" y="1645" on="1"/>
        <pt x="117" y="1645" on="0"/>
        <pt x="63" y="1671" on="0"/>
        <pt x="25" y="1715" on="0"/>
        <pt x="6" y="1774" on="0"/>
        <pt x="6" y="1807" on="1"/>
        <pt x="6" y="1846" on="0"/>
        <pt x="27" y="1915" on="0"/>
        <pt x="71" y="1966" on="0"/>
        <pt x="135" y="1996" on="0"/>
        <pt x="179" y="1996" on="1"/>
        <pt x="180" y="1996" on="1"/>
        <pt x="220" y="1996" on="0"/>
        <pt x="280" y="1970" on="0"/>
        <pt x="320" y="1925" on="0"/>
        <pt x="339" y="1867" on="0"/>
        <pt x="339" y="1835" on="1"/>
        <pt x="339" y="1795" on="0"/>
        <pt x="317" y="1725" on="0"/>
        <pt x="272" y="1674" on="0"/>
        <pt x="201" y="1645" on="0"/>
        <pt x="153" y="1645" on="1"/>
      </contour>
    </TTGlyph>
    <TTGlyph name="Idotaccent" xMin="88" yMin="0" xMax="756" yMax="1999">
      <contour>
        <pt x="88" y="137" on="1"/>
        <pt x="264" y="165" on="1"/>
        <pt x="264" y="1357" on="1"/>
        <pt x="88" y="1388" on="1"/>
        <pt x="88" y="1522" on="1"/>
        <pt x="756" y="1522" on="1"/>
        <pt x="756" y="1388" on="1"/>
        <pt x="581" y="1357" on="1"/>
        <pt x="581" y="165" on="1"/>
        <pt x="756" y="135" on="1"/>
        <pt x="756" y="0" on="1"/>
        <pt x="88" y="0" on="1"/>
      </contour>
      <contour>
        <pt x="414" y="1647" on="1"/>
        <pt x="379" y="1647" on="0"/>
        <pt x="324" y="1673" on="0"/>
        <pt x="287" y="1717" on="0"/>
        <pt x="268" y="1776" on="0"/>
        <pt x="268" y="1809" on="1"/>
        <pt x="268" y="1848" on="0"/>
        <pt x="289" y="1917" on="0"/>
        <pt x="333" y="1969" on="0"/>
        <pt x="397" y="1999" on="0"/>
        <pt x="441" y="1999" on="1"/>
        <pt x="442" y="1999" on="1"/>
        <pt x="482" y="1999" on="0"/>
        <pt x="542" y="1972" on="0"/>
        <pt x="582" y="1927" on="0"/>
        <pt x="601" y="1869" on="0"/>
        <pt x="601" y="1837" on="1"/>
        <pt x="601" y="1797" on="0"/>
        <pt x="579" y="1728" on="0"/>
        <pt x="534" y="1677" on="0"/>
        <pt x="463" y="1647" on="0"/>
        <pt x="415" y="1647" on="1"/>
        <pt x="414" y="1647" on="1"/>
      </contour>
    </TTGlyph>
    <TTGlyph name="Igrave" xMin="88" yMin="0" xMax="756" yMax="2014">
      <contour>
        <pt x="88" y="137" on="1"/>
        <pt x="264" y="165" on="1"/>
        <pt x="264" y="1357" on="1"/>
        <pt x="88" y="1388" on="1"/>
        <pt x="88" y="1522" on="1"/>
        <pt x="756" y="1522" on="1"/>
        <pt x="756" y="1388" on="1"/>
        <pt x="581" y="1357" on="1"/>
        <pt x="581" y="165" on="1"/>
        <pt x="756" y="135" on="1"/>
        <pt x="756" y="0" on="1"/>
        <pt x="88" y="0" on="1"/>
      </contour>
      <contour>
        <pt x="558" y="1604" on="1"/>
        <pt x="536" y="1610" on="0"/>
        <pt x="469" y="1640" on="0"/>
        <pt x="393" y="1681" on="0"/>
        <pt x="312" y="1732" on="0"/>
        <pt x="239" y="1788" on="0"/>
        <pt x="179" y="1845" on="0"/>
        <pt x="162" y="1873" on="1"/>
        <pt x="359" y="2014" on="1"/>
        <pt x="360" y="2014" on="1"/>
        <pt x="677" y="1692" on="1"/>
        <pt x="559" y="1604" on="1"/>
        <pt x="558" y="1604" on="1"/>
      </contour>
    </TTGlyph>
    <TTGlyph name="Imacron" xMin="88" yMin="0" xMax="756" yMax="1916">
      <contour>
        <pt x="88" y="137" on="1"/>
        <pt x="264" y="165" on="1"/>
        <pt x="264" y="1357" on="1"/>
        <pt x="88" y="1388" on="1"/>
        <pt x="88" y="1522" on="1"/>
        <pt x="756" y="1522" on="1"/>
        <pt x="756" y="1388" on="1"/>
        <pt x="581" y="1357" on="1"/>
        <pt x="581" y="165" on="1"/>
        <pt x="756" y="135" on="1"/>
        <pt x="756" y="0" on="1"/>
        <pt x="88" y="0" on="1"/>
      </contour>
      <contour>
        <pt x="125" y="1916" on="1"/>
        <pt x="748" y="1916" on="1"/>
        <pt x="748" y="1722" on="1"/>
        <pt x="125" y="1722" on="1"/>
      </contour>
    </TTGlyph>
    <TTGlyph name="Iogonek" xMin="88" yMin="-513" xMax="756" yMax="1522">
      <contour>
        <pt x="88" y="137" on="1"/>
        <pt x="264" y="165" on="1"/>
        <pt x="264" y="1357" on="1"/>
        <pt x="88" y="1388" on="1"/>
        <pt x="88" y="1522" on="1"/>
        <pt x="756" y="1522" on="1"/>
        <pt x="756" y="1388" on="1"/>
        <pt x="581" y="1357" on="1"/>
        <pt x="581" y="165" on="1"/>
        <pt x="756" y="135" on="1"/>
        <pt x="756" y="0" on="1"/>
        <pt x="588" y="0" on="1"/>
        <pt x="540" y="-21" on="0"/>
        <pt x="464" y="-75" on="0"/>
        <pt x="411" y="-135" on="0"/>
        <pt x="384" y="-196" on="0"/>
        <pt x="384" y="-222" on="1"/>
        <pt x="384" y="-276" on="0"/>
        <pt x="458" y="-331" on="0"/>
        <pt x="520" y="-331" on="1"/>
        <pt x="555" y="-331" on="0"/>
        <pt x="610" y="-320" on="0"/>
        <pt x="644" y="-306" on="1"/>
        <pt x="644" y="-445" on="1"/>
        <pt x="622" y="-461" on="0"/>
        <pt x="564" y="-486" on="0"/>
        <pt x="498" y="-504" on="0"/>
        <pt x="429" y="-513" on="0"/>
        <pt x="398" y="-513" on="1"/>
        <pt x="350" y="-513" on="0"/>
        <pt x="253" y="-491" on="0"/>
        <pt x="176" y="-442" on="0"/>
        <pt x="127" y="-365" on="0"/>
        <pt x="127" y="-310" on="1"/>
        <pt x="127" y="-269" on="0"/>
        <pt x="166" y="-181" on="0"/>
        <pt x="238" y="-97" on="0"/>
        <pt x="340" y="-25" on="0"/>
        <pt x="403" y="0" on="1"/>
        <pt x="88" y="0" on="1"/>
      </contour>
    </TTGlyph>
    <TTGlyph name="Itilde" xMin="-23" yMin="0" xMax="895" yMax="2009">
      <contour>
        <pt x="88" y="137" on="1"/>
        <pt x="264" y="165" on="1"/>
        <pt x="264" y="1357" on="1"/>
        <pt x="88" y="1388" on="1"/>
        <pt x="88" y="1522" on="1"/>
        <pt x="756" y="1522" on="1"/>
        <pt x="756" y="1388" on="1"/>
        <pt x="581" y="1357" on="1"/>
        <pt x="581" y="165" on="1"/>
        <pt x="756" y="135" on="1"/>
        <pt x="756" y="0" on="1"/>
        <pt x="88" y="0" on="1"/>
      </contour>
      <contour>
        <pt x="-23" y="1794" on="1"/>
        <pt x="-10" y="1825" on="0"/>
        <pt x="43" y="1901" on="0"/>
        <pt x="120" y="1965" on="0"/>
        <pt x="222" y="2009" on="0"/>
        <pt x="284" y="2009" on="1"/>
        <pt x="327" y="2009" on="0"/>
        <pt x="397" y="1984" on="0"/>
        <pt x="457" y="1947" on="0"/>
        <pt x="509" y="1903" on="0"/>
        <pt x="559" y="1866" on="0"/>
        <pt x="610" y="1841" on="0"/>
        <pt x="639" y="1841" on="1"/>
        <pt x="673" y="1841" on="0"/>
        <pt x="721" y="1863" on="0"/>
        <pt x="755" y="1896" on="0"/>
        <pt x="779" y="1933" on="0"/>
        <pt x="790" y="1947" on="1"/>
        <pt x="895" y="1859" on="1"/>
        <pt x="876" y="1820" on="0"/>
        <pt x="824" y="1742" on="0"/>
        <pt x="754" y="1681" on="0"/>
        <pt x="664" y="1643" on="0"/>
        <pt x="608" y="1643" on="1"/>
        <pt x="566" y="1643" on="0"/>
        <pt x="495" y="1668" on="0"/>
        <pt x="434" y="1706" on="0"/>
        <pt x="379" y="1749" on="0"/>
        <pt x="325" y="1787" on="0"/>
        <pt x="269" y="1812" on="0"/>
        <pt x="238" y="1812" on="1"/>
        <pt x="206" y="1812" on="0"/>
        <pt x="157" y="1788" on="0"/>
        <pt x="119" y="1754" on="0"/>
        <pt x="91" y="1718" on="0"/>
        <pt x="81" y="1706" on="1"/>
      </contour>
    </TTGlyph>
    <TTGlyph name="J" xMin="-31" yMin="-391" xMax="751" yMax="1522">
      <contour>
        <pt x="222" y="2" on="1"/>
        <pt x="232" y="35" on="0"/>
        <pt x="246" y="108" on="0"/>
        <pt x="255" y="206" on="0"/>
        <pt x="259" y="333" on="0"/>
        <pt x="259" y="420" on="1"/>
        <pt x="259" y="1357" on="1"/>
        <pt x="83" y="1388" on="1"/>
        <pt x="83" y="1522" on="1"/>
        <pt x="751" y="1522" on="1"/>
        <pt x="751" y="1388" on="1"/>
        <pt x="577" y="1357" on="1"/>
        <pt x="577" y="569" on="1"/>
        <pt x="577" y="389" on="0"/>
        <pt x="567" y="120" on="0"/>
        <pt x="548" y="42" on="1"/>
        <pt x="527" y="-42" on="0"/>
        <pt x="439" y="-182" on="0"/>
        <pt x="309" y="-291" on="0"/>
        <pt x="141" y="-369" on="0"/>
        <pt x="41" y="-391" on="1"/>
        <pt x="-31" y="-275" on="1"/>
        <pt x="8" y="-260" on="0"/>
        <pt x="83" y="-213" on="0"/>
        <pt x="149" y="-145" on="0"/>
        <pt x="204" y="-55" on="0"/>
      </contour>
    </TTGlyph>
    <TTGlyph name="Jcircumflex" xMin="-29" yMin="-391" xMax="811" yMax="2014">
      <contour>
        <pt x="224" y="2" on="1"/>
        <pt x="234" y="35" on="0"/>
        <pt x="248" y="108" on="0"/>
        <pt x="257" y="206" on="0"/>
        <pt x="261" y="333" on="0"/>
        <pt x="261" y="420" on="1"/>
        <pt x="261" y="1357" on="1"/>
        <pt x="85" y="1388" on="1"/>
        <pt x="85" y="1522" on="1"/>
        <pt x="753" y="1522" on="1"/>
        <pt x="753" y="1388" on="1"/>
        <pt x="579" y="1357" on="1"/>
        <pt x="579" y="569" on="1"/>
        <pt x="579" y="389" on="0"/>
        <pt x="569" y="120" on="0"/>
        <pt x="550" y="42" on="1"/>
        <pt x="529" y="-42" on="0"/>
        <pt x="441" y="-182" on="0"/>
        <pt x="311" y="-291" on="0"/>
        <pt x="143" y="-369" on="0"/>
        <pt x="43" y="-391" on="1"/>
        <pt x="-29" y="-275" on="1"/>
        <pt x="10" y="-260" on="0"/>
        <pt x="85" y="-213" on="0"/>
        <pt x="151" y="-145" on="0"/>
        <pt x="206" y="-55" on="0"/>
      </contour>
      <contour>
        <pt x="24" y="1701" on="1"/>
        <pt x="317" y="2014" on="1"/>
        <pt x="517" y="2014" on="1"/>
        <pt x="811" y="1702" on="1"/>
        <pt x="703" y="1616" on="1"/>
        <pt x="417" y="1813" on="1"/>
        <pt x="129" y="1616" on="1"/>
      </contour>
    </TTGlyph>
    <TTGlyph name="K" xMin="85" yMin="0" xMax="1542" yMax="1522">
      <contour>
        <pt x="85" y="137" on="1"/>
        <pt x="249" y="164" on="1"/>
        <pt x="249" y="1357" on="1"/>
        <pt x="87" y="1388" on="1"/>
        <pt x="87" y="1522" on="1"/>
        <pt x="717" y="1522" on="1"/>
        <pt x="717" y="1388" on="1"/>
        <pt x="566" y="1357" on="1"/>
        <pt x="566" y="718" on="1"/>
        <pt x="1078" y="1357" on="1"/>
        <pt x="918" y="1388" on="1"/>
        <pt x="917" y="1522" on="1"/>
        <pt x="1477" y="1522" on="1"/>
        <pt x="1477" y="1388" on="1"/>
        <pt x="1304" y="1357" on="1"/>
        <pt x="918" y="925" on="1"/>
        <pt x="954" y="894" on="0"/>
        <pt x="1033" y="798" on="0"/>
        <pt x="1114" y="683" on="0"/>
        <pt x="1195" y="556" on="0"/>
        <pt x="1271" y="431" on="0"/>
        <pt x="1341" y="317" on="0"/>
        <pt x="1400" y="226" on="0"/>
        <pt x="1446" y="167" on="0"/>
        <pt x="1460" y="160" on="1"/>
        <pt x="1542" y="135" on="1"/>
        <pt x="1542" y="0" on="1"/>
        <pt x="1171" y="0" on="1"/>
        <pt x="1155" y="0" on="0"/>
        <pt x="1112" y="46" on="0"/>
        <pt x="1062" y="124" on="0"/>
        <pt x="1006" y="228" on="0"/>
        <pt x="945" y="344" on="0"/>
        <pt x="882" y="464" on="0"/>
        <pt x="819" y="577" on="0"/>
        <pt x="756" y="674" on="0"/>
        <pt x="726" y="708" on="1"/>
        <pt x="566" y="522" on="1"/>
        <pt x="566" y="164" on="1"/>
        <pt x="756" y="135" on="1"/>
        <pt x="756" y="0" on="1"/>
        <pt x="85" y="0" on="1"/>
      </contour>
    </TTGlyph>
    <TTGlyph name="Kcommaaccent" xMin="85" yMin="-560" xMax="1542" yMax="1522">
      <contour>
        <pt x="662" y="-209" on="1"/>
        <pt x="662" y="-171" on="0"/>
        <pt x="692" y="-122" on="0"/>
        <pt x="737" y="-95" on="0"/>
        <pt x="787" y="-85" on="0"/>
        <pt x="808" y="-85" on="1"/>
        <pt x="819" y="-85" on="1"/>
        <pt x="856" y="-85" on="0"/>
        <pt x="916" y="-111" on="0"/>
        <pt x="958" y="-159" on="0"/>
        <pt x="981" y="-225" on="0"/>
        <pt x="981" y="-265" on="1"/>
        <pt x="981" y="-312" on="0"/>
        <pt x="955" y="-392" on="0"/>
        <pt x="917" y="-457" on="0"/>
        <pt x="871" y="-508" on="0"/>
        <pt x="831" y="-542" on="0"/>
        <pt x="803" y="-560" on="0"/>
        <pt x="802" y="-560" on="1"/>
        <pt x="800" y="-560" on="1"/>
        <pt x="706" y="-510" on="1"/>
        <pt x="706" y="-499" on="1"/>
        <pt x="732" y="-481" on="0"/>
        <pt x="753" y="-409" on="0"/>
        <pt x="753" y="-374" on="1"/>
        <pt x="753" y="-348" on="0"/>
        <pt x="726" y="-320" on="0"/>
        <pt x="709" y="-310" on="1"/>
        <pt x="691" y="-299" on="0"/>
        <pt x="662" y="-252" on="0"/>
      </contour>
      <contour>
        <pt x="85" y="137" on="1"/>
        <pt x="249" y="164" on="1"/>
        <pt x="249" y="1357" on="1"/>
        <pt x="87" y="1388" on="1"/>
        <pt x="87" y="1522" on="1"/>
        <pt x="717" y="1522" on="1"/>
        <pt x="717" y="1388" on="1"/>
        <pt x="566" y="1357" on="1"/>
        <pt x="566" y="718" on="1"/>
        <pt x="1078" y="1357" on="1"/>
        <pt x="918" y="1388" on="1"/>
        <pt x="917" y="1522" on="1"/>
        <pt x="1477" y="1522" on="1"/>
        <pt x="1477" y="1388" on="1"/>
        <pt x="1304" y="1357" on="1"/>
        <pt x="918" y="925" on="1"/>
        <pt x="954" y="894" on="0"/>
        <pt x="1033" y="798" on="0"/>
        <pt x="1114" y="683" on="0"/>
        <pt x="1195" y="556" on="0"/>
        <pt x="1271" y="431" on="0"/>
        <pt x="1341" y="317" on="0"/>
        <pt x="1400" y="226" on="0"/>
        <pt x="1446" y="167" on="0"/>
        <pt x="1460" y="160" on="1"/>
        <pt x="1542" y="135" on="1"/>
        <pt x="1542" y="0" on="1"/>
        <pt x="1171" y="0" on="1"/>
        <pt x="1155" y="0" on="0"/>
        <pt x="1112" y="46" on="0"/>
        <pt x="1062" y="124" on="0"/>
        <pt x="1006" y="228" on="0"/>
        <pt x="945" y="344" on="0"/>
        <pt x="882" y="464" on="0"/>
        <pt x="819" y="577" on="0"/>
        <pt x="756" y="674" on="0"/>
        <pt x="726" y="708" on="1"/>
        <pt x="566" y="522" on="1"/>
        <pt x="566" y="164" on="1"/>
        <pt x="756" y="135" on="1"/>
        <pt x="756" y="0" on="1"/>
        <pt x="85" y="0" on="1"/>
      </contour>
    </TTGlyph>
    <TTGlyph name="L" xMin="85" yMin="0" xMax="1306" yMax="1522">
      <contour>
        <pt x="85" y="137" on="1"/>
        <pt x="249" y="164" on="1"/>
        <pt x="249" y="1357" on="1"/>
        <pt x="87" y="1388" on="1"/>
        <pt x="87" y="1522" on="1"/>
        <pt x="767" y="1522" on="1"/>
        <pt x="767" y="1388" on="1"/>
        <pt x="566" y="1357" on="1"/>
        <pt x="566" y="168" on="1"/>
        <pt x="985" y="189" on="1"/>
        <pt x="1111" y="563" on="1"/>
        <pt x="1306" y="537" on="1"/>
        <pt x="1242" y="0" on="1"/>
        <pt x="85" y="0" on="1"/>
      </contour>
    </TTGlyph>
    <TTGlyph name="Lacute" xMin="85" yMin="0" xMax="1306" yMax="2014">
      <contour>
        <pt x="311" y="1692" on="1"/>
        <pt x="628" y="2014" on="1"/>
        <pt x="629" y="2014" on="1"/>
        <pt x="826" y="1873" on="1"/>
        <pt x="809" y="1845" on="0"/>
        <pt x="749" y="1788" on="0"/>
        <pt x="676" y="1732" on="0"/>
        <pt x="595" y="1681" on="0"/>
        <pt x="519" y="1640" on="0"/>
        <pt x="452" y="1610" on="0"/>
        <pt x="430" y="1604" on="1"/>
        <pt x="429" y="1604" on="1"/>
      </contour>
      <contour>
        <pt x="85" y="137" on="1"/>
        <pt x="249" y="164" on="1"/>
        <pt x="249" y="1357" on="1"/>
        <pt x="87" y="1388" on="1"/>
        <pt x="87" y="1522" on="1"/>
        <pt x="767" y="1522" on="1"/>
        <pt x="767" y="1388" on="1"/>
        <pt x="566" y="1357" on="1"/>
        <pt x="566" y="168" on="1"/>
        <pt x="985" y="189" on="1"/>
        <pt x="1111" y="563" on="1"/>
        <pt x="1306" y="537" on="1"/>
        <pt x="1242" y="0" on="1"/>
        <pt x="85" y="0" on="1"/>
      </contour>
    </TTGlyph>
    <TTGlyph name="Lcaron" xMin="85" yMin="0" xMax="1306" yMax="1697">
      <contour>
        <pt x="85" y="137" on="1"/>
        <pt x="249" y="164" on="1"/>
        <pt x="249" y="1357" on="1"/>
        <pt x="87" y="1388" on="1"/>
        <pt x="87" y="1522" on="1"/>
        <pt x="767" y="1522" on="1"/>
        <pt x="767" y="1388" on="1"/>
        <pt x="566" y="1357" on="1"/>
        <pt x="566" y="168" on="1"/>
        <pt x="985" y="189" on="1"/>
        <pt x="1111" y="563" on="1"/>
        <pt x="1306" y="537" on="1"/>
        <pt x="1242" y="0" on="1"/>
        <pt x="85" y="0" on="1"/>
      </contour>
      <contour>
        <pt x="917" y="1048" on="1"/>
        <pt x="910" y="1074" on="1"/>
        <pt x="925" y="1162" on="0"/>
        <pt x="933" y="1308" on="0"/>
        <pt x="933" y="1363" on="1"/>
        <pt x="933" y="1403" on="0"/>
        <pt x="923" y="1479" on="0"/>
        <pt x="908" y="1543" on="0"/>
        <pt x="890" y="1591" on="0"/>
        <pt x="881" y="1602" on="1"/>
        <pt x="896" y="1644" on="1"/>
        <pt x="1110" y="1697" on="1"/>
        <pt x="1124" y="1682" on="0"/>
        <pt x="1148" y="1623" on="0"/>
        <pt x="1165" y="1550" on="0"/>
        <pt x="1174" y="1468" on="0"/>
        <pt x="1174" y="1429" on="1"/>
        <pt x="1174" y="1369" on="0"/>
        <pt x="1153" y="1245" on="0"/>
        <pt x="1118" y="1133" on="0"/>
        <pt x="1073" y="1040" on="0"/>
        <pt x="1049" y="1010" on="1"/>
      </contour>
    </TTGlyph>
    <TTGlyph name="Lcommaaccent" xMin="85" yMin="-560" xMax="1306" yMax="1522">
      <contour>
        <pt x="529" y="-209" on="1"/>
        <pt x="529" y="-171" on="0"/>
        <pt x="559" y="-122" on="0"/>
        <pt x="604" y="-95" on="0"/>
        <pt x="654" y="-85" on="0"/>
        <pt x="675" y="-85" on="1"/>
        <pt x="686" y="-85" on="1"/>
        <pt x="723" y="-85" on="0"/>
        <pt x="783" y="-111" on="0"/>
        <pt x="825" y="-159" on="0"/>
        <pt x="848" y="-225" on="0"/>
        <pt x="848" y="-265" on="1"/>
        <pt x="848" y="-312" on="0"/>
        <pt x="822" y="-392" on="0"/>
        <pt x="784" y="-457" on="0"/>
        <pt x="738" y="-508" on="0"/>
        <pt x="698" y="-542" on="0"/>
        <pt x="670" y="-560" on="0"/>
        <pt x="669" y="-560" on="1"/>
        <pt x="667" y="-560" on="1"/>
        <pt x="573" y="-510" on="1"/>
        <pt x="573" y="-499" on="1"/>
        <pt x="599" y="-481" on="0"/>
        <pt x="620" y="-409" on="0"/>
        <pt x="620" y="-374" on="1"/>
        <pt x="620" y="-348" on="0"/>
        <pt x="593" y="-320" on="0"/>
        <pt x="576" y="-310" on="1"/>
        <pt x="558" y="-299" on="0"/>
        <pt x="529" y="-252" on="0"/>
      </contour>
      <contour>
        <pt x="85" y="137" on="1"/>
        <pt x="249" y="164" on="1"/>
        <pt x="249" y="1357" on="1"/>
        <pt x="87" y="1388" on="1"/>
        <pt x="87" y="1522" on="1"/>
        <pt x="767" y="1522" on="1"/>
        <pt x="767" y="1388" on="1"/>
        <pt x="566" y="1357" on="1"/>
        <pt x="566" y="168" on="1"/>
        <pt x="985" y="189" on="1"/>
        <pt x="1111" y="563" on="1"/>
        <pt x="1306" y="537" on="1"/>
        <pt x="1242" y="0" on="1"/>
        <pt x="85" y="0" on="1"/>
      </contour>
    </TTGlyph>
    <TTGlyph name="Ldot" xMin="85" yMin="0" xMax="1306" yMax="1522">
      <contour>
        <pt x="85" y="137" on="1"/>
        <pt x="249" y="164" on="1"/>
        <pt x="249" y="1357" on="1"/>
        <pt x="87" y="1388" on="1"/>
        <pt x="87" y="1522" on="1"/>
        <pt x="767" y="1522" on="1"/>
        <pt x="767" y="1388" on="1"/>
        <pt x="566" y="1357" on="1"/>
        <pt x="566" y="168" on="1"/>
        <pt x="985" y="189" on="1"/>
        <pt x="1111" y="563" on="1"/>
        <pt x="1306" y="537" on="1"/>
        <pt x="1242" y="0" on="1"/>
        <pt x="85" y="0" on="1"/>
      </contour>
      <contour>
        <pt x="859" y="900" on="1"/>
        <pt x="859" y="940" on="0"/>
        <pt x="891" y="1010" on="0"/>
        <pt x="947" y="1062" on="0"/>
        <pt x="1021" y="1091" on="0"/>
        <pt x="1063" y="1091" on="1"/>
        <pt x="1112" y="1091" on="0"/>
        <pt x="1180" y="1065" on="0"/>
        <pt x="1223" y="1021" on="0"/>
        <pt x="1242" y="963" on="0"/>
        <pt x="1242" y="930" on="1"/>
        <pt x="1242" y="887" on="0"/>
        <pt x="1211" y="817" on="0"/>
        <pt x="1156" y="767" on="0"/>
        <pt x="1079" y="740" on="0"/>
        <pt x="1034" y="740" on="1"/>
        <pt x="999" y="740" on="0"/>
        <pt x="935" y="762" on="0"/>
        <pt x="887" y="804" on="0"/>
        <pt x="859" y="863" on="0"/>
      </contour>
    </TTGlyph>
    <TTGlyph name="Lslash" xMin="44" yMin="0" xMax="1306" yMax="1522">
      <contour>
        <pt x="85" y="137" on="1"/>
        <pt x="249" y="164" on="1"/>
        <pt x="249" y="600" on="1"/>
        <pt x="44" y="517" on="1"/>
        <pt x="44" y="662" on="1"/>
        <pt x="249" y="747" on="1"/>
        <pt x="249" y="1357" on="1"/>
        <pt x="87" y="1388" on="1"/>
        <pt x="87" y="1522" on="1"/>
        <pt x="767" y="1522" on="1"/>
        <pt x="767" y="1388" on="1"/>
        <pt x="566" y="1357" on="1"/>
        <pt x="566" y="876" on="1"/>
        <pt x="874" y="1005" on="1"/>
        <pt x="874" y="851" on="1"/>
        <pt x="566" y="724" on="1"/>
        <pt x="566" y="168" on="1"/>
        <pt x="985" y="189" on="1"/>
        <pt x="1111" y="563" on="1"/>
        <pt x="1306" y="537" on="1"/>
        <pt x="1242" y="0" on="1"/>
        <pt x="85" y="0" on="1"/>
      </contour>
    </TTGlyph>
    <TTGlyph name="M" xMin="1" yMin="-16" xMax="2102" yMax="1522">
      <contour>
        <pt x="1" y="137" on="1"/>
        <pt x="176" y="164" on="1"/>
        <pt x="330" y="1357" on="1"/>
        <pt x="128" y="1388" on="1"/>
        <pt x="128" y="1522" on="1"/>
        <pt x="759" y="1522" on="1"/>
        <pt x="1026" y="561" on="1"/>
        <pt x="1061" y="376" on="1"/>
        <pt x="1090" y="561" on="1"/>
        <pt x="1337" y="1522" on="1"/>
        <pt x="1972" y="1522" on="1"/>
        <pt x="1972" y="1388" on="1"/>
        <pt x="1756" y="1357" on="1"/>
        <pt x="1930" y="165" on="1"/>
        <pt x="2102" y="137" on="1"/>
        <pt x="2102" y="0" on="1"/>
        <pt x="1441" y="0" on="1"/>
        <pt x="1441" y="137" on="1"/>
        <pt x="1607" y="164" on="1"/>
        <pt x="1514" y="1040" on="1"/>
        <pt x="1472" y="1414" on="1"/>
        <pt x="1409" y="1116" on="1"/>
        <pt x="1114" y="-16" on="1"/>
        <pt x="905" y="-16" on="1"/>
        <pt x="575" y="1056" on="1"/>
        <pt x="481" y="1410" on="1"/>
        <pt x="463" y="1041" on="1"/>
        <pt x="381" y="164" on="1"/>
        <pt x="580" y="137" on="1"/>
        <pt x="580" y="0" on="1"/>
        <pt x="1" y="0" on="1"/>
      </contour>
    </TTGlyph>
    <TTGlyph name="N" xMin="55" yMin="0" xMax="1631" yMax="1522">
      <contour>
        <pt x="55" y="137" on="1"/>
        <pt x="240" y="164" on="1"/>
        <pt x="240" y="1357" on="1"/>
        <pt x="55" y="1388" on="1"/>
        <pt x="55" y="1522" on="1"/>
        <pt x="532" y="1522" on="1"/>
        <pt x="1163" y="633" on="1"/>
        <pt x="1269" y="421" on="1"/>
        <pt x="1269" y="1357" on="1"/>
        <pt x="1074" y="1388" on="1"/>
        <pt x="1074" y="1522" on="1"/>
        <pt x="1631" y="1522" on="1"/>
        <pt x="1631" y="1388" on="1"/>
        <pt x="1454" y="1357" on="1"/>
        <pt x="1454" y="0" on="1"/>
        <pt x="1226" y="0" on="1"/>
        <pt x="558" y="956" on="1"/>
        <pt x="425" y="1210" on="1"/>
        <pt x="425" y="165" on="1"/>
        <pt x="630" y="137" on="1"/>
        <pt x="630" y="0" on="1"/>
        <pt x="55" y="0" on="1"/>
      </contour>
    </TTGlyph>
    <TTGlyph name="Nacute" xMin="55" yMin="0" xMax="1631" yMax="2014">
      <contour>
        <pt x="707" y="1692" on="1"/>
        <pt x="1024" y="2014" on="1"/>
        <pt x="1025" y="2014" on="1"/>
        <pt x="1222" y="1873" on="1"/>
        <pt x="1205" y="1845" on="0"/>
        <pt x="1145" y="1788" on="0"/>
        <pt x="1072" y="1732" on="0"/>
        <pt x="991" y="1681" on="0"/>
        <pt x="915" y="1640" on="0"/>
        <pt x="848" y="1610" on="0"/>
        <pt x="826" y="1604" on="1"/>
        <pt x="825" y="1604" on="1"/>
      </contour>
      <contour>
        <pt x="55" y="137" on="1"/>
        <pt x="240" y="164" on="1"/>
        <pt x="240" y="1357" on="1"/>
        <pt x="55" y="1388" on="1"/>
        <pt x="55" y="1522" on="1"/>
        <pt x="532" y="1522" on="1"/>
        <pt x="1163" y="633" on="1"/>
        <pt x="1269" y="421" on="1"/>
        <pt x="1269" y="1357" on="1"/>
        <pt x="1074" y="1388" on="1"/>
        <pt x="1074" y="1522" on="1"/>
        <pt x="1631" y="1522" on="1"/>
        <pt x="1631" y="1388" on="1"/>
        <pt x="1454" y="1357" on="1"/>
        <pt x="1454" y="0" on="1"/>
        <pt x="1226" y="0" on="1"/>
        <pt x="558" y="956" on="1"/>
        <pt x="425" y="1210" on="1"/>
        <pt x="425" y="165" on="1"/>
        <pt x="630" y="137" on="1"/>
        <pt x="630" y="0" on="1"/>
        <pt x="55" y="0" on="1"/>
      </contour>
    </TTGlyph>
    <TTGlyph name="Ncaron" xMin="55" yMin="0" xMax="1631" yMax="2014">
      <contour>
        <pt x="491" y="1927" on="1"/>
        <pt x="600" y="2014" on="1"/>
        <pt x="866" y="1823" on="1"/>
        <pt x="1145" y="2014" on="1"/>
        <pt x="1250" y="1929" on="1"/>
        <pt x="966" y="1628" on="1"/>
        <pt x="765" y="1628" on="1"/>
      </contour>
      <contour>
        <pt x="55" y="137" on="1"/>
        <pt x="240" y="164" on="1"/>
        <pt x="240" y="1357" on="1"/>
        <pt x="55" y="1388" on="1"/>
        <pt x="55" y="1522" on="1"/>
        <pt x="532" y="1522" on="1"/>
        <pt x="1163" y="633" on="1"/>
        <pt x="1269" y="421" on="1"/>
        <pt x="1269" y="1357" on="1"/>
        <pt x="1074" y="1388" on="1"/>
        <pt x="1074" y="1522" on="1"/>
        <pt x="1631" y="1522" on="1"/>
        <pt x="1631" y="1388" on="1"/>
        <pt x="1454" y="1357" on="1"/>
        <pt x="1454" y="0" on="1"/>
        <pt x="1226" y="0" on="1"/>
        <pt x="558" y="956" on="1"/>
        <pt x="425" y="1210" on="1"/>
        <pt x="425" y="165" on="1"/>
        <pt x="630" y="137" on="1"/>
        <pt x="630" y="0" on="1"/>
        <pt x="55" y="0" on="1"/>
      </contour>
    </TTGlyph>
    <TTGlyph name="Ncommaaccent" xMin="55" yMin="-560" xMax="1631" yMax="1522">
      <contour>
        <pt x="714" y="-209" on="1"/>
        <pt x="714" y="-171" on="0"/>
        <pt x="744" y="-122" on="0"/>
        <pt x="789" y="-95" on="0"/>
        <pt x="839" y="-85" on="0"/>
        <pt x="860" y="-85" on="1"/>
        <pt x="871" y="-85" on="1"/>
        <pt x="908" y="-85" on="0"/>
        <pt x="968" y="-111" on="0"/>
        <pt x="1010" y="-159" on="0"/>
        <pt x="1033" y="-225" on="0"/>
        <pt x="1033" y="-265" on="1"/>
        <pt x="1033" y="-312" on="0"/>
        <pt x="1007" y="-392" on="0"/>
        <pt x="969" y="-457" on="0"/>
        <pt x="923" y="-508" on="0"/>
        <pt x="883" y="-542" on="0"/>
        <pt x="855" y="-560" on="0"/>
        <pt x="854" y="-560" on="1"/>
        <pt x="852" y="-560" on="1"/>
        <pt x="758" y="-510" on="1"/>
        <pt x="758" y="-499" on="1"/>
        <pt x="784" y="-481" on="0"/>
        <pt x="805" y="-409" on="0"/>
        <pt x="805" y="-374" on="1"/>
        <pt x="805" y="-348" on="0"/>
        <pt x="778" y="-320" on="0"/>
        <pt x="761" y="-310" on="1"/>
        <pt x="743" y="-299" on="0"/>
        <pt x="714" y="-252" on="0"/>
      </contour>
      <contour>
        <pt x="55" y="137" on="1"/>
        <pt x="240" y="164" on="1"/>
        <pt x="240" y="1357" on="1"/>
        <pt x="55" y="1388" on="1"/>
        <pt x="55" y="1522" on="1"/>
        <pt x="532" y="1522" on="1"/>
        <pt x="1163" y="633" on="1"/>
        <pt x="1269" y="421" on="1"/>
        <pt x="1269" y="1357" on="1"/>
        <pt x="1074" y="1388" on="1"/>
        <pt x="1074" y="1522" on="1"/>
        <pt x="1631" y="1522" on="1"/>
        <pt x="1631" y="1388" on="1"/>
        <pt x="1454" y="1357" on="1"/>
        <pt x="1454" y="0" on="1"/>
        <pt x="1226" y="0" on="1"/>
        <pt x="558" y="956" on="1"/>
        <pt x="425" y="1210" on="1"/>
        <pt x="425" y="165" on="1"/>
        <pt x="630" y="137" on="1"/>
        <pt x="630" y="0" on="1"/>
        <pt x="55" y="0" on="1"/>
      </contour>
    </TTGlyph>
    <TTGlyph name="Ntilde" xMin="55" yMin="0" xMax="1631" yMax="2009">
      <contour>
        <pt x="406" y="1794" on="1"/>
        <pt x="419" y="1825" on="0"/>
        <pt x="472" y="1901" on="0"/>
        <pt x="549" y="1965" on="0"/>
        <pt x="651" y="2009" on="0"/>
        <pt x="713" y="2009" on="1"/>
        <pt x="756" y="2009" on="0"/>
        <pt x="826" y="1984" on="0"/>
        <pt x="886" y="1947" on="0"/>
        <pt x="938" y="1903" on="0"/>
        <pt x="988" y="1866" on="0"/>
        <pt x="1039" y="1841" on="0"/>
        <pt x="1068" y="1841" on="1"/>
        <pt x="1102" y="1841" on="0"/>
        <pt x="1150" y="1863" on="0"/>
        <pt x="1184" y="1896" on="0"/>
        <pt x="1208" y="1933" on="0"/>
        <pt x="1219" y="1947" on="1"/>
        <pt x="1324" y="1859" on="1"/>
        <pt x="1305" y="1820" on="0"/>
        <pt x="1253" y="1742" on="0"/>
        <pt x="1183" y="1681" on="0"/>
        <pt x="1093" y="1643" on="0"/>
        <pt x="1037" y="1643" on="1"/>
        <pt x="995" y="1643" on="0"/>
        <pt x="924" y="1668" on="0"/>
        <pt x="863" y="1706" on="0"/>
        <pt x="808" y="1749" on="0"/>
        <pt x="754" y="1787" on="0"/>
        <pt x="698" y="1812" on="0"/>
        <pt x="667" y="1812" on="1"/>
        <pt x="635" y="1812" on="0"/>
        <pt x="586" y="1788" on="0"/>
        <pt x="548" y="1754" on="0"/>
        <pt x="520" y="1718" on="0"/>
        <pt x="510" y="1706" on="1"/>
      </contour>
      <contour>
        <pt x="55" y="137" on="1"/>
        <pt x="240" y="164" on="1"/>
        <pt x="240" y="1357" on="1"/>
        <pt x="55" y="1388" on="1"/>
        <pt x="55" y="1522" on="1"/>
        <pt x="532" y="1522" on="1"/>
        <pt x="1163" y="633" on="1"/>
        <pt x="1269" y="421" on="1"/>
        <pt x="1269" y="1357" on="1"/>
        <pt x="1074" y="1388" on="1"/>
        <pt x="1074" y="1522" on="1"/>
        <pt x="1631" y="1522" on="1"/>
        <pt x="1631" y="1388" on="1"/>
        <pt x="1454" y="1357" on="1"/>
        <pt x="1454" y="0" on="1"/>
        <pt x="1226" y="0" on="1"/>
        <pt x="558" y="956" on="1"/>
        <pt x="425" y="1210" on="1"/>
        <pt x="425" y="165" on="1"/>
        <pt x="630" y="137" on="1"/>
        <pt x="630" y="0" on="1"/>
        <pt x="55" y="0" on="1"/>
      </contour>
    </TTGlyph>
    <TTGlyph name="O" xMin="56" yMin="-25" xMax="1442" yMax="1541">
      <contour>
        <pt x="738" y="-23" on="1"/>
        <pt x="564" y="-25" on="0"/>
        <pt x="307" y="83" on="0"/>
        <pt x="139" y="283" on="0"/>
        <pt x="56" y="568" on="0"/>
        <pt x="56" y="744" on="1"/>
        <pt x="56" y="925" on="0"/>
        <pt x="158" y="1219" on="0"/>
        <pt x="345" y="1428" on="0"/>
        <pt x="607" y="1541" on="0"/>
        <pt x="767" y="1541" on="1"/>
        <pt x="943" y="1541" on="0"/>
        <pt x="1198" y="1434" on="0"/>
        <pt x="1363" y="1234" on="0"/>
        <pt x="1442" y="951" on="0"/>
        <pt x="1442" y="775" on="1"/>
        <pt x="1442" y="594" on="0"/>
        <pt x="1340" y="300" on="0"/>
        <pt x="1155" y="92" on="0"/>
        <pt x="896" y="-22" on="0"/>
      </contour>
      <contour>
        <pt x="748" y="115" on="1"/>
        <pt x="827" y="115" on="0"/>
        <pt x="956" y="197" on="0"/>
        <pt x="1047" y="361" on="0"/>
        <pt x="1096" y="608" on="0"/>
        <pt x="1096" y="774" on="1"/>
        <pt x="1096" y="939" on="0"/>
        <pt x="1048" y="1178" on="0"/>
        <pt x="959" y="1331" on="0"/>
        <pt x="831" y="1404" on="0"/>
        <pt x="750" y="1404" on="1"/>
        <pt x="670" y="1404" on="0"/>
        <pt x="541" y="1323" on="0"/>
        <pt x="450" y="1159" on="0"/>
        <pt x="401" y="911" on="0"/>
        <pt x="401" y="745" on="1"/>
        <pt x="401" y="578" on="0"/>
        <pt x="449" y="339" on="0"/>
        <pt x="539" y="186" on="0"/>
        <pt x="667" y="115" on="0"/>
      </contour>
    </TTGlyph>
    <TTGlyph name="OE" xMin="67" yMin="-18" xMax="2120" yMax="1542">
      <contour>
        <pt x="67" y="742" on="1"/>
        <pt x="67" y="923" on="0"/>
        <pt x="167" y="1217" on="0"/>
        <pt x="351" y="1426" on="0"/>
        <pt x="609" y="1540" on="0"/>
        <pt x="767" y="1541" on="1"/>
        <pt x="836" y="1542" on="0"/>
        <pt x="960" y="1519" on="0"/>
        <pt x="1016" y="1494" on="1"/>
        <pt x="1016" y="1522" on="1"/>
        <pt x="1954" y="1522" on="1"/>
        <pt x="1978" y="1175" on="1"/>
        <pt x="1802" y="1175" on="1"/>
        <pt x="1733" y="1369" on="1"/>
        <pt x="1328" y="1390" on="1"/>
        <pt x="1328" y="847" on="1"/>
        <pt x="1595" y="851" on="1"/>
        <pt x="1625" y="1020" on="1"/>
        <pt x="1798" y="1020" on="1"/>
        <pt x="1798" y="528" on="1"/>
        <pt x="1625" y="528" on="1"/>
        <pt x="1595" y="695" on="1"/>
        <pt x="1328" y="701" on="1"/>
        <pt x="1328" y="153" on="1"/>
        <pt x="1819" y="176" on="1"/>
        <pt x="1949" y="440" on="1"/>
        <pt x="2120" y="401" on="1"/>
        <pt x="2054" y="0" on="1"/>
        <pt x="1016" y="0" on="1"/>
        <pt x="1016" y="59" on="1"/>
        <pt x="955" y="21" on="0"/>
        <pt x="819" y="-14" on="0"/>
        <pt x="745" y="-16" on="1"/>
        <pt x="575" y="-18" on="0"/>
        <pt x="320" y="90" on="0"/>
        <pt x="151" y="289" on="0"/>
        <pt x="67" y="570" on="0"/>
      </contour>
      <contour>
        <pt x="762" y="118" on="1"/>
        <pt x="858" y="118" on="0"/>
        <pt x="980" y="212" on="0"/>
        <pt x="1016" y="299" on="1"/>
        <pt x="1016" y="1223" on="1"/>
        <pt x="973" y="1318" on="0"/>
        <pt x="836" y="1406" on="0"/>
        <pt x="742" y="1406" on="1"/>
        <pt x="665" y="1406" on="0"/>
        <pt x="542" y="1323" on="0"/>
        <pt x="457" y="1158" on="0"/>
        <pt x="412" y="908" on="0"/>
        <pt x="412" y="742" on="1"/>
        <pt x="412" y="611" on="0"/>
        <pt x="461" y="384" on="0"/>
        <pt x="551" y="215" on="0"/>
        <pt x="681" y="118" on="0"/>
      </contour>
    </TTGlyph>
    <TTGlyph name="Oacute" xMin="64" yMin="-25" xMax="1450" yMax="2014">
      <contour>
        <pt x="603" y="1692" on="1"/>
        <pt x="920" y="2014" on="1"/>
        <pt x="921" y="2014" on="1"/>
        <pt x="1118" y="1873" on="1"/>
        <pt x="1101" y="1845" on="0"/>
        <pt x="1041" y="1788" on="0"/>
        <pt x="968" y="1732" on="0"/>
        <pt x="887" y="1681" on="0"/>
        <pt x="811" y="1640" on="0"/>
        <pt x="744" y="1610" on="0"/>
        <pt x="722" y="1604" on="1"/>
        <pt x="721" y="1604" on="1"/>
      </contour>
      <contour>
        <pt x="746" y="-23" on="1"/>
        <pt x="572" y="-25" on="0"/>
        <pt x="315" y="83" on="0"/>
        <pt x="147" y="283" on="0"/>
        <pt x="64" y="568" on="0"/>
        <pt x="64" y="744" on="1"/>
        <pt x="64" y="925" on="0"/>
        <pt x="166" y="1219" on="0"/>
        <pt x="353" y="1428" on="0"/>
        <pt x="615" y="1541" on="0"/>
        <pt x="775" y="1541" on="1"/>
        <pt x="951" y="1541" on="0"/>
        <pt x="1206" y="1434" on="0"/>
        <pt x="1371" y="1234" on="0"/>
        <pt x="1450" y="951" on="0"/>
        <pt x="1450" y="775" on="1"/>
        <pt x="1450" y="594" on="0"/>
        <pt x="1348" y="300" on="0"/>
        <pt x="1163" y="92" on="0"/>
        <pt x="904" y="-22" on="0"/>
      </contour>
      <contour>
        <pt x="756" y="115" on="1"/>
        <pt x="835" y="115" on="0"/>
        <pt x="964" y="197" on="0"/>
        <pt x="1055" y="361" on="0"/>
        <pt x="1104" y="608" on="0"/>
        <pt x="1104" y="774" on="1"/>
        <pt x="1104" y="939" on="0"/>
        <pt x="1056" y="1178" on="0"/>
        <pt x="967" y="1331" on="0"/>
        <pt x="839" y="1404" on="0"/>
        <pt x="758" y="1404" on="1"/>
        <pt x="678" y="1404" on="0"/>
        <pt x="549" y="1323" on="0"/>
        <pt x="458" y="1159" on="0"/>
        <pt x="409" y="911" on="0"/>
        <pt x="409" y="745" on="1"/>
        <pt x="409" y="578" on="0"/>
        <pt x="457" y="339" on="0"/>
        <pt x="547" y="186" on="0"/>
        <pt x="675" y="115" on="0"/>
      </contour>
    </TTGlyph>
    <TTGlyph name="Obreve" xMin="64" yMin="-25" xMax="1450" yMax="2005">
      <contour>
        <pt x="765" y="1621" on="1"/>
        <pt x="672" y="1621" on="0"/>
        <pt x="533" y="1677" on="0"/>
        <pt x="440" y="1771" on="0"/>
        <pt x="394" y="1894" on="0"/>
        <pt x="394" y="1960" on="1"/>
        <pt x="394" y="1982" on="0"/>
        <pt x="397" y="2005" on="1"/>
        <pt x="548" y="2005" on="1"/>
        <pt x="548" y="2001" on="0"/>
        <pt x="549" y="1990" on="0"/>
        <pt x="550" y="1982" on="1"/>
        <pt x="554" y="1961" on="0"/>
        <pt x="577" y="1906" on="0"/>
        <pt x="626" y="1857" on="0"/>
        <pt x="706" y="1822" on="0"/>
        <pt x="767" y="1822" on="1"/>
        <pt x="828" y="1822" on="0"/>
        <pt x="906" y="1857" on="0"/>
        <pt x="952" y="1907" on="0"/>
        <pt x="972" y="1962" on="0"/>
        <pt x="975" y="1982" on="1"/>
        <pt x="976" y="1990" on="0"/>
        <pt x="976" y="2001" on="0"/>
        <pt x="976" y="2005" on="1"/>
        <pt x="1129" y="2005" on="1"/>
        <pt x="1130" y="1994" on="0"/>
        <pt x="1131" y="1973" on="0"/>
        <pt x="1131" y="1962" on="1"/>
        <pt x="1131" y="1896" on="0"/>
        <pt x="1084" y="1772" on="0"/>
        <pt x="991" y="1678" on="0"/>
        <pt x="854" y="1621" on="0"/>
      </contour>
      <contour>
        <pt x="746" y="-23" on="1"/>
        <pt x="572" y="-25" on="0"/>
        <pt x="315" y="83" on="0"/>
        <pt x="147" y="283" on="0"/>
        <pt x="64" y="568" on="0"/>
        <pt x="64" y="744" on="1"/>
        <pt x="64" y="925" on="0"/>
        <pt x="166" y="1219" on="0"/>
        <pt x="353" y="1428" on="0"/>
        <pt x="615" y="1541" on="0"/>
        <pt x="775" y="1541" on="1"/>
        <pt x="951" y="1541" on="0"/>
        <pt x="1206" y="1434" on="0"/>
        <pt x="1371" y="1234" on="0"/>
        <pt x="1450" y="951" on="0"/>
        <pt x="1450" y="775" on="1"/>
        <pt x="1450" y="594" on="0"/>
        <pt x="1348" y="300" on="0"/>
        <pt x="1163" y="92" on="0"/>
        <pt x="904" y="-22" on="0"/>
      </contour>
      <contour>
        <pt x="756" y="115" on="1"/>
        <pt x="835" y="115" on="0"/>
        <pt x="964" y="197" on="0"/>
        <pt x="1055" y="361" on="0"/>
        <pt x="1104" y="608" on="0"/>
        <pt x="1104" y="774" on="1"/>
        <pt x="1104" y="939" on="0"/>
        <pt x="1056" y="1178" on="0"/>
        <pt x="967" y="1331" on="0"/>
        <pt x="839" y="1404" on="0"/>
        <pt x="758" y="1404" on="1"/>
        <pt x="678" y="1404" on="0"/>
        <pt x="549" y="1323" on="0"/>
        <pt x="458" y="1159" on="0"/>
        <pt x="409" y="911" on="0"/>
        <pt x="409" y="745" on="1"/>
        <pt x="409" y="578" on="0"/>
        <pt x="457" y="339" on="0"/>
        <pt x="547" y="186" on="0"/>
        <pt x="675" y="115" on="0"/>
      </contour>
    </TTGlyph>
    <TTGlyph name="Ocircumflex" xMin="64" yMin="-25" xMax="1450" yMax="2014">
      <contour>
        <pt x="746" y="-23" on="1"/>
        <pt x="572" y="-25" on="0"/>
        <pt x="315" y="83" on="0"/>
        <pt x="147" y="283" on="0"/>
        <pt x="64" y="568" on="0"/>
        <pt x="64" y="744" on="1"/>
        <pt x="64" y="925" on="0"/>
        <pt x="166" y="1219" on="0"/>
        <pt x="353" y="1428" on="0"/>
        <pt x="615" y="1541" on="0"/>
        <pt x="775" y="1541" on="1"/>
        <pt x="951" y="1541" on="0"/>
        <pt x="1206" y="1434" on="0"/>
        <pt x="1371" y="1234" on="0"/>
        <pt x="1450" y="951" on="0"/>
        <pt x="1450" y="775" on="1"/>
        <pt x="1450" y="594" on="0"/>
        <pt x="1348" y="300" on="0"/>
        <pt x="1163" y="92" on="0"/>
        <pt x="904" y="-22" on="0"/>
      </contour>
      <contour>
        <pt x="756" y="115" on="1"/>
        <pt x="835" y="115" on="0"/>
        <pt x="964" y="197" on="0"/>
        <pt x="1055" y="361" on="0"/>
        <pt x="1104" y="608" on="0"/>
        <pt x="1104" y="774" on="1"/>
        <pt x="1104" y="939" on="0"/>
        <pt x="1056" y="1178" on="0"/>
        <pt x="967" y="1331" on="0"/>
        <pt x="839" y="1404" on="0"/>
        <pt x="758" y="1404" on="1"/>
        <pt x="678" y="1404" on="0"/>
        <pt x="549" y="1323" on="0"/>
        <pt x="458" y="1159" on="0"/>
        <pt x="409" y="911" on="0"/>
        <pt x="409" y="745" on="1"/>
        <pt x="409" y="578" on="0"/>
        <pt x="457" y="339" on="0"/>
        <pt x="547" y="186" on="0"/>
        <pt x="675" y="115" on="0"/>
      </contour>
      <contour>
        <pt x="366" y="1701" on="1"/>
        <pt x="659" y="2014" on="1"/>
        <pt x="859" y="2014" on="1"/>
        <pt x="1153" y="1702" on="1"/>
        <pt x="1045" y="1616" on="1"/>
        <pt x="759" y="1813" on="1"/>
        <pt x="471" y="1616" on="1"/>
      </contour>
    </TTGlyph>
    <TTGlyph name="Odieresis" xMin="64" yMin="-25" xMax="1450" yMax="1996">
      <contour>
        <pt x="1006" y="1645" on="1"/>
        <pt x="971" y="1645" on="0"/>
        <pt x="916" y="1671" on="0"/>
        <pt x="879" y="1715" on="0"/>
        <pt x="860" y="1774" on="0"/>
        <pt x="860" y="1807" on="1"/>
        <pt x="860" y="1846" on="0"/>
        <pt x="881" y="1915" on="0"/>
        <pt x="924" y="1966" on="0"/>
        <pt x="989" y="1996" on="0"/>
        <pt x="1033" y="1996" on="1"/>
        <pt x="1034" y="1996" on="1"/>
        <pt x="1074" y="1996" on="0"/>
        <pt x="1134" y="1970" on="0"/>
        <pt x="1173" y="1925" on="0"/>
        <pt x="1193" y="1867" on="0"/>
        <pt x="1193" y="1835" on="1"/>
        <pt x="1193" y="1795" on="0"/>
        <pt x="1171" y="1725" on="0"/>
        <pt x="1125" y="1674" on="0"/>
        <pt x="1055" y="1645" on="0"/>
        <pt x="1007" y="1645" on="1"/>
      </contour>
      <contour>
        <pt x="478" y="1645" on="1"/>
        <pt x="443" y="1645" on="0"/>
        <pt x="389" y="1671" on="0"/>
        <pt x="351" y="1715" on="0"/>
        <pt x="332" y="1774" on="0"/>
        <pt x="332" y="1807" on="1"/>
        <pt x="332" y="1846" on="0"/>
        <pt x="353" y="1915" on="0"/>
        <pt x="397" y="1966" on="0"/>
        <pt x="461" y="1996" on="0"/>
        <pt x="505" y="1996" on="1"/>
        <pt x="506" y="1996" on="1"/>
        <pt x="546" y="1996" on="0"/>
        <pt x="606" y="1970" on="0"/>
        <pt x="646" y="1925" on="0"/>
        <pt x="665" y="1867" on="0"/>
        <pt x="665" y="1835" on="1"/>
        <pt x="665" y="1795" on="0"/>
        <pt x="643" y="1725" on="0"/>
        <pt x="598" y="1674" on="0"/>
        <pt x="527" y="1645" on="0"/>
        <pt x="479" y="1645" on="1"/>
      </contour>
      <contour>
        <pt x="746" y="-23" on="1"/>
        <pt x="572" y="-25" on="0"/>
        <pt x="315" y="83" on="0"/>
        <pt x="147" y="283" on="0"/>
        <pt x="64" y="568" on="0"/>
        <pt x="64" y="744" on="1"/>
        <pt x="64" y="925" on="0"/>
        <pt x="166" y="1219" on="0"/>
        <pt x="353" y="1428" on="0"/>
        <pt x="615" y="1541" on="0"/>
        <pt x="775" y="1541" on="1"/>
        <pt x="951" y="1541" on="0"/>
        <pt x="1206" y="1434" on="0"/>
        <pt x="1371" y="1234" on="0"/>
        <pt x="1450" y="951" on="0"/>
        <pt x="1450" y="775" on="1"/>
        <pt x="1450" y="594" on="0"/>
        <pt x="1348" y="300" on="0"/>
        <pt x="1163" y="92" on="0"/>
        <pt x="904" y="-22" on="0"/>
      </contour>
      <contour>
        <pt x="756" y="115" on="1"/>
        <pt x="835" y="115" on="0"/>
        <pt x="964" y="197" on="0"/>
        <pt x="1055" y="361" on="0"/>
        <pt x="1104" y="608" on="0"/>
        <pt x="1104" y="774" on="1"/>
        <pt x="1104" y="939" on="0"/>
        <pt x="1056" y="1178" on="0"/>
        <pt x="967" y="1331" on="0"/>
        <pt x="839" y="1404" on="0"/>
        <pt x="758" y="1404" on="1"/>
        <pt x="678" y="1404" on="0"/>
        <pt x="549" y="1323" on="0"/>
        <pt x="458" y="1159" on="0"/>
        <pt x="409" y="911" on="0"/>
        <pt x="409" y="745" on="1"/>
        <pt x="409" y="578" on="0"/>
        <pt x="457" y="339" on="0"/>
        <pt x="547" y="186" on="0"/>
        <pt x="675" y="115" on="0"/>
      </contour>
    </TTGlyph>
    <TTGlyph name="Ograve" xMin="64" yMin="-25" xMax="1450" yMax="2014">
      <contour>
        <pt x="886" y="1604" on="1"/>
        <pt x="864" y="1610" on="0"/>
        <pt x="797" y="1640" on="0"/>
        <pt x="721" y="1681" on="0"/>
        <pt x="640" y="1732" on="0"/>
        <pt x="567" y="1788" on="0"/>
        <pt x="507" y="1845" on="0"/>
        <pt x="490" y="1873" on="1"/>
        <pt x="687" y="2014" on="1"/>
        <pt x="688" y="2014" on="1"/>
        <pt x="1005" y="1692" on="1"/>
        <pt x="887" y="1604" on="1"/>
        <pt x="886" y="1604" on="1"/>
      </contour>
      <contour>
        <pt x="746" y="-23" on="1"/>
        <pt x="572" y="-25" on="0"/>
        <pt x="315" y="83" on="0"/>
        <pt x="147" y="283" on="0"/>
        <pt x="64" y="568" on="0"/>
        <pt x="64" y="744" on="1"/>
        <pt x="64" y="925" on="0"/>
        <pt x="166" y="1219" on="0"/>
        <pt x="353" y="1428" on="0"/>
        <pt x="615" y="1541" on="0"/>
        <pt x="775" y="1541" on="1"/>
        <pt x="951" y="1541" on="0"/>
        <pt x="1206" y="1434" on="0"/>
        <pt x="1371" y="1234" on="0"/>
        <pt x="1450" y="951" on="0"/>
        <pt x="1450" y="775" on="1"/>
        <pt x="1450" y="594" on="0"/>
        <pt x="1348" y="300" on="0"/>
        <pt x="1163" y="92" on="0"/>
        <pt x="904" y="-22" on="0"/>
      </contour>
      <contour>
        <pt x="756" y="115" on="1"/>
        <pt x="835" y="115" on="0"/>
        <pt x="964" y="197" on="0"/>
        <pt x="1055" y="361" on="0"/>
        <pt x="1104" y="608" on="0"/>
        <pt x="1104" y="774" on="1"/>
        <pt x="1104" y="939" on="0"/>
        <pt x="1056" y="1178" on="0"/>
        <pt x="967" y="1331" on="0"/>
        <pt x="839" y="1404" on="0"/>
        <pt x="758" y="1404" on="1"/>
        <pt x="678" y="1404" on="0"/>
        <pt x="549" y="1323" on="0"/>
        <pt x="458" y="1159" on="0"/>
        <pt x="409" y="911" on="0"/>
        <pt x="409" y="745" on="1"/>
        <pt x="409" y="578" on="0"/>
        <pt x="457" y="339" on="0"/>
        <pt x="547" y="186" on="0"/>
        <pt x="675" y="115" on="0"/>
      </contour>
    </TTGlyph>
    <TTGlyph name="Ohungarumlaut" xMin="64" yMin="-25" xMax="1450" yMax="2014">
      <contour>
        <pt x="746" y="-23" on="1"/>
        <pt x="572" y="-25" on="0"/>
        <pt x="315" y="83" on="0"/>
        <pt x="147" y="283" on="0"/>
        <pt x="64" y="568" on="0"/>
        <pt x="64" y="744" on="1"/>
        <pt x="64" y="925" on="0"/>
        <pt x="166" y="1219" on="0"/>
        <pt x="353" y="1428" on="0"/>
        <pt x="615" y="1541" on="0"/>
        <pt x="775" y="1541" on="1"/>
        <pt x="951" y="1541" on="0"/>
        <pt x="1206" y="1434" on="0"/>
        <pt x="1371" y="1234" on="0"/>
        <pt x="1450" y="951" on="0"/>
        <pt x="1450" y="775" on="1"/>
        <pt x="1450" y="594" on="0"/>
        <pt x="1348" y="300" on="0"/>
        <pt x="1163" y="92" on="0"/>
        <pt x="904" y="-22" on="0"/>
      </contour>
      <contour>
        <pt x="756" y="115" on="1"/>
        <pt x="835" y="115" on="0"/>
        <pt x="964" y="197" on="0"/>
        <pt x="1055" y="361" on="0"/>
        <pt x="1104" y="608" on="0"/>
        <pt x="1104" y="774" on="1"/>
        <pt x="1104" y="939" on="0"/>
        <pt x="1056" y="1178" on="0"/>
        <pt x="967" y="1331" on="0"/>
        <pt x="839" y="1404" on="0"/>
        <pt x="758" y="1404" on="1"/>
        <pt x="678" y="1404" on="0"/>
        <pt x="549" y="1323" on="0"/>
        <pt x="458" y="1159" on="0"/>
        <pt x="409" y="911" on="0"/>
        <pt x="409" y="745" on="1"/>
        <pt x="409" y="578" on="0"/>
        <pt x="457" y="339" on="0"/>
        <pt x="547" y="186" on="0"/>
        <pt x="675" y="115" on="0"/>
      </contour>
      <contour>
        <pt x="894" y="1717" on="1"/>
        <pt x="1192" y="2014" on="1"/>
        <pt x="1357" y="1877" on="1"/>
        <pt x="1329" y="1840" on="0"/>
        <pt x="1245" y="1762" on="0"/>
        <pt x="1150" y="1690" on="0"/>
        <pt x="1055" y="1630" on="0"/>
        <pt x="1016" y="1611" on="1"/>
      </contour>
      <contour>
        <pt x="355" y="1717" on="1"/>
        <pt x="643" y="2014" on="1"/>
        <pt x="817" y="1875" on="1"/>
        <pt x="783" y="1834" on="0"/>
        <pt x="696" y="1756" on="0"/>
        <pt x="604" y="1687" on="0"/>
        <pt x="514" y="1630" on="0"/>
        <pt x="477" y="1611" on="1"/>
      </contour>
    </TTGlyph>
    <TTGlyph name="Omacron" xMin="64" yMin="-25" xMax="1450" yMax="1916">
      <contour>
        <pt x="453" y="1916" on="1"/>
        <pt x="1076" y="1916" on="1"/>
        <pt x="1076" y="1722" on="1"/>
        <pt x="453" y="1722" on="1"/>
      </contour>
      <contour>
        <pt x="746" y="-23" on="1"/>
        <pt x="572" y="-25" on="0"/>
        <pt x="315" y="83" on="0"/>
        <pt x="147" y="283" on="0"/>
        <pt x="64" y="568" on="0"/>
        <pt x="64" y="744" on="1"/>
        <pt x="64" y="925" on="0"/>
        <pt x="166" y="1219" on="0"/>
        <pt x="353" y="1428" on="0"/>
        <pt x="615" y="1541" on="0"/>
        <pt x="775" y="1541" on="1"/>
        <pt x="951" y="1541" on="0"/>
        <pt x="1206" y="1434" on="0"/>
        <pt x="1371" y="1234" on="0"/>
        <pt x="1450" y="951" on="0"/>
        <pt x="1450" y="775" on="1"/>
        <pt x="1450" y="594" on="0"/>
        <pt x="1348" y="300" on="0"/>
        <pt x="1163" y="92" on="0"/>
        <pt x="904" y="-22" on="0"/>
      </contour>
      <contour>
        <pt x="756" y="115" on="1"/>
        <pt x="835" y="115" on="0"/>
        <pt x="964" y="197" on="0"/>
        <pt x="1055" y="361" on="0"/>
        <pt x="1104" y="608" on="0"/>
        <pt x="1104" y="774" on="1"/>
        <pt x="1104" y="939" on="0"/>
        <pt x="1056" y="1178" on="0"/>
        <pt x="967" y="1331" on="0"/>
        <pt x="839" y="1404" on="0"/>
        <pt x="758" y="1404" on="1"/>
        <pt x="678" y="1404" on="0"/>
        <pt x="549" y="1323" on="0"/>
        <pt x="458" y="1159" on="0"/>
        <pt x="409" y="911" on="0"/>
        <pt x="409" y="745" on="1"/>
        <pt x="409" y="578" on="0"/>
        <pt x="457" y="339" on="0"/>
        <pt x="547" y="186" on="0"/>
        <pt x="675" y="115" on="0"/>
      </contour>
    </TTGlyph>
    <TTGlyph name="Omega" xMin="112" yMin="0" xMax="1819" yMax="1544">
      <contour>
        <pt x="112" y="424" on="1"/>
        <pt x="278" y="424" on="1"/>
        <pt x="347" y="213" on="1"/>
        <pt x="678" y="176" on="1"/>
        <pt x="636" y="201" on="0"/>
        <pt x="542" y="287" on="0"/>
        <pt x="451" y="397" on="0"/>
        <pt x="369" y="529" on="0"/>
        <pt x="308" y="672" on="0"/>
        <pt x="272" y="822" on="0"/>
        <pt x="274" y="896" on="1"/>
        <pt x="276" y="1013" on="0"/>
        <pt x="333" y="1200" on="0"/>
        <pt x="430" y="1344" on="0"/>
        <pt x="561" y="1447" on="0"/>
        <pt x="714" y="1513" on="0"/>
        <pt x="883" y="1544" on="0"/>
        <pt x="970" y="1544" on="1"/>
        <pt x="1121" y="1544" on="0"/>
        <pt x="1372" y="1460" on="0"/>
        <pt x="1549" y="1297" on="0"/>
        <pt x="1645" y="1057" on="0"/>
        <pt x="1642" y="901" on="1"/>
        <pt x="1640" y="835" on="0"/>
        <pt x="1608" y="695" on="0"/>
        <pt x="1554" y="557" on="0"/>
        <pt x="1481" y="425" on="0"/>
        <pt x="1398" y="309" on="0"/>
        <pt x="1307" y="213" on="0"/>
        <pt x="1262" y="180" on="1"/>
        <pt x="1583" y="214" on="1"/>
        <pt x="1656" y="424" on="1"/>
        <pt x="1819" y="424" on="1"/>
        <pt x="1763" y="0" on="1"/>
        <pt x="1087" y="0" on="1"/>
        <pt x="1087" y="185" on="1"/>
        <pt x="1155" y="231" on="0"/>
        <pt x="1259" y="366" on="0"/>
        <pt x="1330" y="535" on="0"/>
        <pt x="1366" y="733" on="0"/>
        <pt x="1366" y="842" on="1"/>
        <pt x="1366" y="946" on="0"/>
        <pt x="1305" y="1116" on="0"/>
        <pt x="1197" y="1237" on="0"/>
        <pt x="1050" y="1303" on="0"/>
        <pt x="965" y="1303" on="1"/>
        <pt x="866" y="1303" on="0"/>
        <pt x="710" y="1236" on="0"/>
        <pt x="601" y="1110" on="0"/>
        <pt x="543" y="927" on="0"/>
        <pt x="543" y="812" on="1"/>
        <pt x="543" y="702" on="0"/>
        <pt x="598" y="504" on="0"/>
        <pt x="687" y="341" on="0"/>
        <pt x="797" y="219" on="0"/>
        <pt x="852" y="185" on="1"/>
        <pt x="852" y="0" on="1"/>
        <pt x="158" y="0" on="1"/>
      </contour>
    </TTGlyph>
    <TTGlyph name="Omegagreek" xMin="112" yMin="0" xMax="1819" yMax="1544">
      <contour>
        <pt x="112" y="424" on="1"/>
        <pt x="278" y="424" on="1"/>
        <pt x="347" y="213" on="1"/>
        <pt x="678" y="176" on="1"/>
        <pt x="636" y="201" on="0"/>
        <pt x="542" y="287" on="0"/>
        <pt x="451" y="397" on="0"/>
        <pt x="369" y="529" on="0"/>
        <pt x="308" y="672" on="0"/>
        <pt x="272" y="822" on="0"/>
        <pt x="274" y="896" on="1"/>
        <pt x="276" y="1013" on="0"/>
        <pt x="333" y="1200" on="0"/>
        <pt x="430" y="1344" on="0"/>
        <pt x="561" y="1447" on="0"/>
        <pt x="714" y="1513" on="0"/>
        <pt x="883" y="1544" on="0"/>
        <pt x="970" y="1544" on="1"/>
        <pt x="1121" y="1544" on="0"/>
        <pt x="1372" y="1460" on="0"/>
        <pt x="1549" y="1297" on="0"/>
        <pt x="1645" y="1057" on="0"/>
        <pt x="1642" y="901" on="1"/>
        <pt x="1640" y="835" on="0"/>
        <pt x="1608" y="695" on="0"/>
        <pt x="1554" y="557" on="0"/>
        <pt x="1481" y="425" on="0"/>
        <pt x="1398" y="309" on="0"/>
        <pt x="1307" y="213" on="0"/>
        <pt x="1262" y="180" on="1"/>
        <pt x="1583" y="214" on="1"/>
        <pt x="1656" y="424" on="1"/>
        <pt x="1819" y="424" on="1"/>
        <pt x="1763" y="0" on="1"/>
        <pt x="1087" y="0" on="1"/>
        <pt x="1087" y="185" on="1"/>
        <pt x="1155" y="231" on="0"/>
        <pt x="1259" y="366" on="0"/>
        <pt x="1330" y="535" on="0"/>
        <pt x="1366" y="733" on="0"/>
        <pt x="1366" y="842" on="1"/>
        <pt x="1366" y="946" on="0"/>
        <pt x="1305" y="1116" on="0"/>
        <pt x="1197" y="1237" on="0"/>
        <pt x="1050" y="1303" on="0"/>
        <pt x="965" y="1303" on="1"/>
        <pt x="866" y="1303" on="0"/>
        <pt x="710" y="1236" on="0"/>
        <pt x="601" y="1110" on="0"/>
        <pt x="543" y="927" on="0"/>
        <pt x="543" y="812" on="1"/>
        <pt x="543" y="702" on="0"/>
        <pt x="598" y="504" on="0"/>
        <pt x="687" y="341" on="0"/>
        <pt x="797" y="219" on="0"/>
        <pt x="852" y="185" on="1"/>
        <pt x="852" y="0" on="1"/>
        <pt x="158" y="0" on="1"/>
      </contour>
    </TTGlyph>
    <TTGlyph name="Oslash" xMin="64" yMin="-238" xMax="1450" yMax="1741">
      <contour>
        <pt x="412" y="43" on="1"/>
        <pt x="324" y="85" on="0"/>
        <pt x="193" y="219" on="0"/>
        <pt x="107" y="398" on="0"/>
        <pt x="64" y="617" on="0"/>
        <pt x="64" y="744" on="1"/>
        <pt x="64" y="925" on="0"/>
        <pt x="166" y="1219" on="0"/>
        <pt x="353" y="1428" on="0"/>
        <pt x="615" y="1541" on="0"/>
        <pt x="775" y="1541" on="1"/>
        <pt x="878" y="1541" on="0"/>
        <pt x="969" y="1521" on="1"/>
        <pt x="1052" y="1741" on="1"/>
        <pt x="1193" y="1693" on="1"/>
        <pt x="1107" y="1474" on="1"/>
        <pt x="1195" y="1432" on="0"/>
        <pt x="1325" y="1298" on="0"/>
        <pt x="1409" y="1120" on="0"/>
        <pt x="1450" y="902" on="0"/>
        <pt x="1450" y="775" on="1"/>
        <pt x="1450" y="594" on="0"/>
        <pt x="1348" y="300" on="0"/>
        <pt x="1163" y="92" on="0"/>
        <pt x="904" y="-22" on="0"/>
        <pt x="746" y="-23" on="1"/>
        <pt x="695" y="-23" on="0"/>
        <pt x="603" y="-15" on="0"/>
        <pt x="560" y="-6" on="1"/>
        <pt x="467" y="-238" on="1"/>
        <pt x="317" y="-192" on="1"/>
      </contour>
      <contour>
        <pt x="911" y="1363" on="1"/>
        <pt x="845" y="1404" on="0"/>
        <pt x="758" y="1404" on="1"/>
        <pt x="678" y="1404" on="0"/>
        <pt x="549" y="1323" on="0"/>
        <pt x="458" y="1159" on="0"/>
        <pt x="409" y="911" on="0"/>
        <pt x="409" y="745" on="1"/>
        <pt x="409" y="563" on="0"/>
        <pt x="464" y="313" on="0"/>
        <pt x="517" y="238" on="1"/>
      </contour>
      <contour>
        <pt x="612" y="150" on="1"/>
        <pt x="673" y="115" on="0"/>
        <pt x="756" y="115" on="1"/>
        <pt x="835" y="115" on="0"/>
        <pt x="964" y="197" on="0"/>
        <pt x="1055" y="361" on="0"/>
        <pt x="1104" y="608" on="0"/>
        <pt x="1104" y="774" on="1"/>
        <pt x="1104" y="949" on="0"/>
        <pt x="1051" y="1193" on="0"/>
        <pt x="1002" y="1270" on="1"/>
      </contour>
    </TTGlyph>
    <TTGlyph name="Otilde" xMin="64" yMin="-25" xMax="1450" yMax="2009">
      <contour>
        <pt x="303" y="1794" on="1"/>
        <pt x="316" y="1825" on="0"/>
        <pt x="369" y="1901" on="0"/>
        <pt x="446" y="1965" on="0"/>
        <pt x="548" y="2009" on="0"/>
        <pt x="610" y="2009" on="1"/>
        <pt x="653" y="2009" on="0"/>
        <pt x="723" y="1984" on="0"/>
        <pt x="783" y="1947" on="0"/>
        <pt x="835" y="1903" on="0"/>
        <pt x="885" y="1866" on="0"/>
        <pt x="936" y="1841" on="0"/>
        <pt x="965" y="1841" on="1"/>
        <pt x="999" y="1841" on="0"/>
        <pt x="1047" y="1863" on="0"/>
        <pt x="1081" y="1896" on="0"/>
        <pt x="1105" y="1933" on="0"/>
        <pt x="1116" y="1947" on="1"/>
        <pt x="1221" y="1859" on="1"/>
        <pt x="1202" y="1820" on="0"/>
        <pt x="1150" y="1742" on="0"/>
        <pt x="1080" y="1681" on="0"/>
        <pt x="990" y="1643" on="0"/>
        <pt x="934" y="1643" on="1"/>
        <pt x="892" y="1643" on="0"/>
        <pt x="821" y="1668" on="0"/>
        <pt x="760" y="1706" on="0"/>
        <pt x="705" y="1749" on="0"/>
        <pt x="651" y="1787" on="0"/>
        <pt x="595" y="1812" on="0"/>
        <pt x="564" y="1812" on="1"/>
        <pt x="532" y="1812" on="0"/>
        <pt x="483" y="1788" on="0"/>
        <pt x="445" y="1754" on="0"/>
        <pt x="417" y="1718" on="0"/>
        <pt x="407" y="1706" on="1"/>
      </contour>
      <contour>
        <pt x="746" y="-23" on="1"/>
        <pt x="572" y="-25" on="0"/>
        <pt x="315" y="83" on="0"/>
        <pt x="147" y="283" on="0"/>
        <pt x="64" y="568" on="0"/>
        <pt x="64" y="744" on="1"/>
        <pt x="64" y="925" on="0"/>
        <pt x="166" y="1219" on="0"/>
        <pt x="353" y="1428" on="0"/>
        <pt x="615" y="1541" on="0"/>
        <pt x="775" y="1541" on="1"/>
        <pt x="951" y="1541" on="0"/>
        <pt x="1206" y="1434" on="0"/>
        <pt x="1371" y="1234" on="0"/>
        <pt x="1450" y="951" on="0"/>
        <pt x="1450" y="775" on="1"/>
        <pt x="1450" y="594" on="0"/>
        <pt x="1348" y="300" on="0"/>
        <pt x="1163" y="92" on="0"/>
        <pt x="904" y="-22" on="0"/>
      </contour>
      <contour>
        <pt x="756" y="115" on="1"/>
        <pt x="835" y="115" on="0"/>
        <pt x="964" y="197" on="0"/>
        <pt x="1055" y="361" on="0"/>
        <pt x="1104" y="608" on="0"/>
        <pt x="1104" y="774" on="1"/>
        <pt x="1104" y="939" on="0"/>
        <pt x="1056" y="1178" on="0"/>
        <pt x="967" y="1331" on="0"/>
        <pt x="839" y="1404" on="0"/>
        <pt x="758" y="1404" on="1"/>
        <pt x="678" y="1404" on="0"/>
        <pt x="549" y="1323" on="0"/>
        <pt x="458" y="1159" on="0"/>
        <pt x="409" y="911" on="0"/>
        <pt x="409" y="745" on="1"/>
        <pt x="409" y="578" on="0"/>
        <pt x="457" y="339" on="0"/>
        <pt x="547" y="186" on="0"/>
        <pt x="675" y="115" on="0"/>
      </contour>
    </TTGlyph>
    <TTGlyph name="P" xMin="85" yMin="0" xMax="1324" yMax="1534">
      <contour>
        <pt x="85" y="137" on="1"/>
        <pt x="249" y="163" on="1"/>
        <pt x="249" y="1357" on="1"/>
        <pt x="92" y="1388" on="1"/>
        <pt x="92" y="1522" on="1"/>
        <pt x="409" y="1522" on="1"/>
        <pt x="456" y="1522" on="0"/>
        <pt x="534" y="1526" on="0"/>
        <pt x="614" y="1531" on="0"/>
        <pt x="708" y="1534" on="0"/>
        <pt x="771" y="1534" on="1"/>
        <pt x="925" y="1533" on="0"/>
        <pt x="1137" y="1477" on="0"/>
        <pt x="1267" y="1366" on="0"/>
        <pt x="1324" y="1199" on="0"/>
        <pt x="1324" y="1087" on="1"/>
        <pt x="1324" y="956" on="0"/>
        <pt x="1238" y="756" on="0"/>
        <pt x="1078" y="621" on="0"/>
        <pt x="850" y="552" on="0"/>
        <pt x="708" y="552" on="1"/>
        <pt x="684" y="552" on="0"/>
        <pt x="637" y="554" on="0"/>
        <pt x="598" y="557" on="0"/>
        <pt x="570" y="560" on="0"/>
        <pt x="564" y="561" on="1"/>
        <pt x="563" y="164" on="1"/>
        <pt x="843" y="137" on="1"/>
        <pt x="843" y="0" on="1"/>
        <pt x="85" y="0" on="1"/>
      </contour>
      <contour>
        <pt x="563" y="700" on="1"/>
        <pt x="588" y="694" on="0"/>
        <pt x="652" y="691" on="0"/>
        <pt x="706" y="691" on="1"/>
        <pt x="761" y="691" on="0"/>
        <pt x="865" y="730" on="0"/>
        <pt x="944" y="821" on="0"/>
        <pt x="992" y="972" on="0"/>
        <pt x="992" y="1084" on="1"/>
        <pt x="992" y="1403" on="0"/>
        <pt x="709" y="1403" on="1"/>
        <pt x="682" y="1403" on="0"/>
        <pt x="640" y="1400" on="0"/>
        <pt x="605" y="1396" on="0"/>
        <pt x="577" y="1392" on="0"/>
        <pt x="563" y="1391" on="1"/>
      </contour>
    </TTGlyph>
    <TTGlyph name="Q" xMin="64" yMin="-434" xMax="1501" yMax="1541">
      <contour>
        <pt x="746" y="-23" on="1"/>
        <pt x="572" y="-25" on="0"/>
        <pt x="315" y="83" on="0"/>
        <pt x="147" y="283" on="0"/>
        <pt x="64" y="568" on="0"/>
        <pt x="64" y="744" on="1"/>
        <pt x="64" y="925" on="0"/>
        <pt x="166" y="1219" on="0"/>
        <pt x="353" y="1428" on="0"/>
        <pt x="615" y="1541" on="0"/>
        <pt x="775" y="1541" on="1"/>
        <pt x="951" y="1541" on="0"/>
        <pt x="1206" y="1434" on="0"/>
        <pt x="1371" y="1234" on="0"/>
        <pt x="1450" y="951" on="0"/>
        <pt x="1450" y="775" on="1"/>
        <pt x="1450" y="624" on="0"/>
        <pt x="1379" y="369" on="0"/>
        <pt x="1247" y="171" on="0"/>
        <pt x="1060" y="36" on="0"/>
        <pt x="944" y="4" on="1"/>
        <pt x="970" y="-49" on="0"/>
        <pt x="1062" y="-114" on="0"/>
        <pt x="1176" y="-149" on="0"/>
        <pt x="1301" y="-160" on="0"/>
        <pt x="1361" y="-160" on="1"/>
        <pt x="1374" y="-160" on="1"/>
        <pt x="1384" y="-160" on="0"/>
        <pt x="1421" y="-157" on="0"/>
        <pt x="1460" y="-151" on="0"/>
        <pt x="1494" y="-143" on="0"/>
        <pt x="1501" y="-138" on="1"/>
        <pt x="1501" y="-391" on="1"/>
        <pt x="1495" y="-398" on="0"/>
        <pt x="1457" y="-413" on="0"/>
        <pt x="1404" y="-425" on="0"/>
        <pt x="1342" y="-434" on="0"/>
        <pt x="1311" y="-434" on="1"/>
        <pt x="1307" y="-434" on="1"/>
        <pt x="1191" y="-434" on="0"/>
        <pt x="1005" y="-372" on="0"/>
        <pt x="873" y="-262" on="0"/>
        <pt x="798" y="-111" on="0"/>
        <pt x="793" y="-21" on="1"/>
        <pt x="781" y="-22" on="0"/>
        <pt x="758" y="-23" on="0"/>
      </contour>
      <contour>
        <pt x="756" y="115" on="1"/>
        <pt x="835" y="115" on="0"/>
        <pt x="964" y="197" on="0"/>
        <pt x="1055" y="361" on="0"/>
        <pt x="1104" y="608" on="0"/>
        <pt x="1104" y="774" on="1"/>
        <pt x="1104" y="939" on="0"/>
        <pt x="1056" y="1178" on="0"/>
        <pt x="967" y="1331" on="0"/>
        <pt x="839" y="1404" on="0"/>
        <pt x="758" y="1404" on="1"/>
        <pt x="678" y="1404" on="0"/>
        <pt x="549" y="1323" on="0"/>
        <pt x="458" y="1159" on="0"/>
        <pt x="409" y="911" on="0"/>
        <pt x="409" y="745" on="1"/>
        <pt x="409" y="578" on="0"/>
        <pt x="457" y="339" on="0"/>
        <pt x="547" y="186" on="0"/>
        <pt x="675" y="115" on="0"/>
      </contour>
    </TTGlyph>
    <TTGlyph name="R" xMin="85" yMin="0" xMax="1489" yMax="1535">
      <contour>
        <pt x="85" y="137" on="1"/>
        <pt x="249" y="163" on="1"/>
        <pt x="249" y="1357" on="1"/>
        <pt x="92" y="1388" on="1"/>
        <pt x="92" y="1522" on="1"/>
        <pt x="403" y="1522" on="1"/>
        <pt x="450" y="1522" on="0"/>
        <pt x="529" y="1526" on="0"/>
        <pt x="607" y="1531" on="0"/>
        <pt x="693" y="1535" on="0"/>
        <pt x="748" y="1535" on="1"/>
        <pt x="903" y="1535" on="0"/>
        <pt x="1115" y="1484" on="0"/>
        <pt x="1246" y="1383" on="0"/>
        <pt x="1303" y="1234" on="0"/>
        <pt x="1303" y="1136" on="1"/>
        <pt x="1303" y="1072" on="0"/>
        <pt x="1268" y="939" on="0"/>
        <pt x="1195" y="824" on="0"/>
        <pt x="1084" y="736" on="0"/>
        <pt x="1008" y="716" on="1"/>
        <pt x="1060" y="694" on="0"/>
        <pt x="1145" y="599" on="0"/>
        <pt x="1216" y="481" on="0"/>
        <pt x="1275" y="353" on="0"/>
        <pt x="1329" y="245" on="0"/>
        <pt x="1379" y="170" on="0"/>
        <pt x="1405" y="164" on="1"/>
        <pt x="1489" y="137" on="1"/>
        <pt x="1489" y="0" on="1"/>
        <pt x="1121" y="0" on="1"/>
        <pt x="1096" y="0" on="0"/>
        <pt x="1044" y="85" on="0"/>
        <pt x="987" y="217" on="0"/>
        <pt x="926" y="375" on="0"/>
        <pt x="861" y="522" on="0"/>
        <pt x="791" y="638" on="0"/>
        <pt x="754" y="661" on="1"/>
        <pt x="727" y="661" on="0"/>
        <pt x="668" y="661" on="0"/>
        <pt x="614" y="662" on="0"/>
        <pt x="571" y="663" on="0"/>
        <pt x="561" y="664" on="1"/>
        <pt x="561" y="163" on="1"/>
        <pt x="738" y="137" on="1"/>
        <pt x="738" y="0" on="1"/>
        <pt x="85" y="0" on="1"/>
      </contour>
      <contour>
        <pt x="561" y="801" on="1"/>
        <pt x="571" y="798" on="0"/>
        <pt x="616" y="796" on="0"/>
        <pt x="666" y="796" on="0"/>
        <pt x="714" y="796" on="0"/>
        <pt x="728" y="796" on="1"/>
        <pt x="786" y="796" on="0"/>
        <pt x="878" y="835" on="0"/>
        <pt x="942" y="916" on="0"/>
        <pt x="977" y="1039" on="0"/>
        <pt x="977" y="1123" on="1"/>
        <pt x="977" y="1189" on="0"/>
        <pt x="946" y="1292" on="0"/>
        <pt x="878" y="1363" on="0"/>
        <pt x="770" y="1400" on="0"/>
        <pt x="694" y="1400" on="1"/>
        <pt x="663" y="1400" on="0"/>
        <pt x="620" y="1398" on="0"/>
        <pt x="590" y="1395" on="0"/>
        <pt x="569" y="1391" on="0"/>
        <pt x="561" y="1390" on="1"/>
      </contour>
    </TTGlyph>
    <TTGlyph name="Racute" xMin="85" yMin="0" xMax="1489" yMax="2014">
      <contour>
        <pt x="85" y="137" on="1"/>
        <pt x="249" y="163" on="1"/>
        <pt x="249" y="1357" on="1"/>
        <pt x="92" y="1388" on="1"/>
        <pt x="92" y="1522" on="1"/>
        <pt x="403" y="1522" on="1"/>
        <pt x="450" y="1522" on="0"/>
        <pt x="529" y="1526" on="0"/>
        <pt x="607" y="1531" on="0"/>
        <pt x="693" y="1535" on="0"/>
        <pt x="748" y="1535" on="1"/>
        <pt x="903" y="1535" on="0"/>
        <pt x="1115" y="1484" on="0"/>
        <pt x="1246" y="1383" on="0"/>
        <pt x="1303" y="1234" on="0"/>
        <pt x="1303" y="1136" on="1"/>
        <pt x="1303" y="1072" on="0"/>
        <pt x="1268" y="939" on="0"/>
        <pt x="1195" y="824" on="0"/>
        <pt x="1084" y="736" on="0"/>
        <pt x="1008" y="716" on="1"/>
        <pt x="1060" y="694" on="0"/>
        <pt x="1145" y="599" on="0"/>
        <pt x="1216" y="481" on="0"/>
        <pt x="1275" y="353" on="0"/>
        <pt x="1329" y="245" on="0"/>
        <pt x="1379" y="170" on="0"/>
        <pt x="1405" y="164" on="1"/>
        <pt x="1489" y="137" on="1"/>
        <pt x="1489" y="0" on="1"/>
        <pt x="1121" y="0" on="1"/>
        <pt x="1096" y="0" on="0"/>
        <pt x="1044" y="85" on="0"/>
        <pt x="987" y="217" on="0"/>
        <pt x="926" y="375" on="0"/>
        <pt x="861" y="522" on="0"/>
        <pt x="791" y="638" on="0"/>
        <pt x="754" y="661" on="1"/>
        <pt x="727" y="661" on="0"/>
        <pt x="668" y="661" on="0"/>
        <pt x="614" y="662" on="0"/>
        <pt x="571" y="663" on="0"/>
        <pt x="561" y="664" on="1"/>
        <pt x="561" y="163" on="1"/>
        <pt x="738" y="137" on="1"/>
        <pt x="738" y="0" on="1"/>
        <pt x="85" y="0" on="1"/>
      </contour>
      <contour>
        <pt x="561" y="801" on="1"/>
        <pt x="571" y="798" on="0"/>
        <pt x="616" y="796" on="0"/>
        <pt x="666" y="796" on="0"/>
        <pt x="714" y="796" on="0"/>
        <pt x="728" y="796" on="1"/>
        <pt x="786" y="796" on="0"/>
        <pt x="878" y="835" on="0"/>
        <pt x="942" y="916" on="0"/>
        <pt x="977" y="1039" on="0"/>
        <pt x="977" y="1123" on="1"/>
        <pt x="977" y="1189" on="0"/>
        <pt x="946" y="1292" on="0"/>
        <pt x="878" y="1363" on="0"/>
        <pt x="770" y="1400" on="0"/>
        <pt x="694" y="1400" on="1"/>
        <pt x="663" y="1400" on="0"/>
        <pt x="620" y="1398" on="0"/>
        <pt x="590" y="1395" on="0"/>
        <pt x="569" y="1391" on="0"/>
        <pt x="561" y="1390" on="1"/>
      </contour>
      <contour>
        <pt x="580" y="1692" on="1"/>
        <pt x="897" y="2014" on="1"/>
        <pt x="898" y="2014" on="1"/>
        <pt x="1095" y="1873" on="1"/>
        <pt x="1078" y="1845" on="0"/>
        <pt x="1018" y="1788" on="0"/>
        <pt x="945" y="1732" on="0"/>
        <pt x="864" y="1681" on="0"/>
        <pt x="788" y="1640" on="0"/>
        <pt x="721" y="1610" on="0"/>
        <pt x="699" y="1604" on="1"/>
        <pt x="698" y="1604" on="1"/>
      </contour>
    </TTGlyph>
    <TTGlyph name="Rcaron" xMin="85" yMin="0" xMax="1489" yMax="2014">
      <contour>
        <pt x="364" y="1927" on="1"/>
        <pt x="473" y="2014" on="1"/>
        <pt x="739" y="1823" on="1"/>
        <pt x="1018" y="2014" on="1"/>
        <pt x="1123" y="1929" on="1"/>
        <pt x="839" y="1628" on="1"/>
        <pt x="638" y="1628" on="1"/>
      </contour>
      <contour>
        <pt x="85" y="137" on="1"/>
        <pt x="249" y="163" on="1"/>
        <pt x="249" y="1357" on="1"/>
        <pt x="92" y="1388" on="1"/>
        <pt x="92" y="1522" on="1"/>
        <pt x="403" y="1522" on="1"/>
        <pt x="450" y="1522" on="0"/>
        <pt x="529" y="1526" on="0"/>
        <pt x="607" y="1531" on="0"/>
        <pt x="693" y="1535" on="0"/>
        <pt x="748" y="1535" on="1"/>
        <pt x="903" y="1535" on="0"/>
        <pt x="1115" y="1484" on="0"/>
        <pt x="1246" y="1383" on="0"/>
        <pt x="1303" y="1234" on="0"/>
        <pt x="1303" y="1136" on="1"/>
        <pt x="1303" y="1072" on="0"/>
        <pt x="1268" y="939" on="0"/>
        <pt x="1195" y="824" on="0"/>
        <pt x="1084" y="736" on="0"/>
        <pt x="1008" y="716" on="1"/>
        <pt x="1060" y="694" on="0"/>
        <pt x="1145" y="599" on="0"/>
        <pt x="1216" y="481" on="0"/>
        <pt x="1275" y="353" on="0"/>
        <pt x="1329" y="245" on="0"/>
        <pt x="1379" y="170" on="0"/>
        <pt x="1405" y="164" on="1"/>
        <pt x="1489" y="137" on="1"/>
        <pt x="1489" y="0" on="1"/>
        <pt x="1121" y="0" on="1"/>
        <pt x="1096" y="0" on="0"/>
        <pt x="1044" y="85" on="0"/>
        <pt x="987" y="217" on="0"/>
        <pt x="926" y="375" on="0"/>
        <pt x="861" y="522" on="0"/>
        <pt x="791" y="638" on="0"/>
        <pt x="754" y="661" on="1"/>
        <pt x="727" y="661" on="0"/>
        <pt x="668" y="661" on="0"/>
        <pt x="614" y="662" on="0"/>
        <pt x="571" y="663" on="0"/>
        <pt x="561" y="664" on="1"/>
        <pt x="561" y="163" on="1"/>
        <pt x="738" y="137" on="1"/>
        <pt x="738" y="0" on="1"/>
        <pt x="85" y="0" on="1"/>
      </contour>
      <contour>
        <pt x="561" y="801" on="1"/>
        <pt x="571" y="798" on="0"/>
        <pt x="616" y="796" on="0"/>
        <pt x="666" y="796" on="0"/>
        <pt x="714" y="796" on="0"/>
        <pt x="728" y="796" on="1"/>
        <pt x="786" y="796" on="0"/>
        <pt x="878" y="835" on="0"/>
        <pt x="942" y="916" on="0"/>
        <pt x="977" y="1039" on="0"/>
        <pt x="977" y="1123" on="1"/>
        <pt x="977" y="1189" on="0"/>
        <pt x="946" y="1292" on="0"/>
        <pt x="878" y="1363" on="0"/>
        <pt x="770" y="1400" on="0"/>
        <pt x="694" y="1400" on="1"/>
        <pt x="663" y="1400" on="0"/>
        <pt x="620" y="1398" on="0"/>
        <pt x="590" y="1395" on="0"/>
        <pt x="569" y="1391" on="0"/>
        <pt x="561" y="1390" on="1"/>
      </contour>
    </TTGlyph>
    <TTGlyph name="Rcommaaccent" xMin="85" yMin="-560" xMax="1489" yMax="1535">
      <contour>
        <pt x="640" y="-209" on="1"/>
        <pt x="640" y="-171" on="0"/>
        <pt x="670" y="-122" on="0"/>
        <pt x="715" y="-95" on="0"/>
        <pt x="765" y="-85" on="0"/>
        <pt x="786" y="-85" on="1"/>
        <pt x="797" y="-85" on="1"/>
        <pt x="834" y="-85" on="0"/>
        <pt x="894" y="-111" on="0"/>
        <pt x="936" y="-159" on="0"/>
        <pt x="959" y="-225" on="0"/>
        <pt x="959" y="-265" on="1"/>
        <pt x="959" y="-312" on="0"/>
        <pt x="933" y="-392" on="0"/>
        <pt x="895" y="-457" on="0"/>
        <pt x="849" y="-508" on="0"/>
        <pt x="809" y="-542" on="0"/>
        <pt x="781" y="-560" on="0"/>
        <pt x="780" y="-560" on="1"/>
        <pt x="778" y="-560" on="1"/>
        <pt x="684" y="-510" on="1"/>
        <pt x="684" y="-499" on="1"/>
        <pt x="710" y="-481" on="0"/>
        <pt x="731" y="-409" on="0"/>
        <pt x="731" y="-374" on="1"/>
        <pt x="731" y="-348" on="0"/>
        <pt x="704" y="-320" on="0"/>
        <pt x="687" y="-310" on="1"/>
        <pt x="669" y="-299" on="0"/>
        <pt x="640" y="-252" on="0"/>
      </contour>
      <contour>
        <pt x="85" y="137" on="1"/>
        <pt x="249" y="163" on="1"/>
        <pt x="249" y="1357" on="1"/>
        <pt x="92" y="1388" on="1"/>
        <pt x="92" y="1522" on="1"/>
        <pt x="403" y="1522" on="1"/>
        <pt x="450" y="1522" on="0"/>
        <pt x="529" y="1526" on="0"/>
        <pt x="607" y="1531" on="0"/>
        <pt x="693" y="1535" on="0"/>
        <pt x="748" y="1535" on="1"/>
        <pt x="903" y="1535" on="0"/>
        <pt x="1115" y="1484" on="0"/>
        <pt x="1246" y="1383" on="0"/>
        <pt x="1303" y="1234" on="0"/>
        <pt x="1303" y="1136" on="1"/>
        <pt x="1303" y="1072" on="0"/>
        <pt x="1268" y="939" on="0"/>
        <pt x="1195" y="824" on="0"/>
        <pt x="1084" y="736" on="0"/>
        <pt x="1008" y="716" on="1"/>
        <pt x="1060" y="694" on="0"/>
        <pt x="1145" y="599" on="0"/>
        <pt x="1216" y="481" on="0"/>
        <pt x="1275" y="353" on="0"/>
        <pt x="1329" y="245" on="0"/>
        <pt x="1379" y="170" on="0"/>
        <pt x="1405" y="164" on="1"/>
        <pt x="1489" y="137" on="1"/>
        <pt x="1489" y="0" on="1"/>
        <pt x="1121" y="0" on="1"/>
        <pt x="1096" y="0" on="0"/>
        <pt x="1044" y="85" on="0"/>
        <pt x="987" y="217" on="0"/>
        <pt x="926" y="375" on="0"/>
        <pt x="861" y="522" on="0"/>
        <pt x="791" y="638" on="0"/>
        <pt x="754" y="661" on="1"/>
        <pt x="727" y="661" on="0"/>
        <pt x="668" y="661" on="0"/>
        <pt x="614" y="662" on="0"/>
        <pt x="571" y="663" on="0"/>
        <pt x="561" y="664" on="1"/>
        <pt x="561" y="163" on="1"/>
        <pt x="738" y="137" on="1"/>
        <pt x="738" y="0" on="1"/>
        <pt x="85" y="0" on="1"/>
      </contour>
      <contour>
        <pt x="561" y="801" on="1"/>
        <pt x="571" y="798" on="0"/>
        <pt x="616" y="796" on="0"/>
        <pt x="666" y="796" on="0"/>
        <pt x="714" y="796" on="0"/>
        <pt x="728" y="796" on="1"/>
        <pt x="786" y="796" on="0"/>
        <pt x="878" y="835" on="0"/>
        <pt x="942" y="916" on="0"/>
        <pt x="977" y="1039" on="0"/>
        <pt x="977" y="1123" on="1"/>
        <pt x="977" y="1189" on="0"/>
        <pt x="946" y="1292" on="0"/>
        <pt x="878" y="1363" on="0"/>
        <pt x="770" y="1400" on="0"/>
        <pt x="694" y="1400" on="1"/>
        <pt x="663" y="1400" on="0"/>
        <pt x="620" y="1398" on="0"/>
        <pt x="590" y="1395" on="0"/>
        <pt x="569" y="1391" on="0"/>
        <pt x="561" y="1390" on="1"/>
      </contour>
    </TTGlyph>
    <TTGlyph name="S" xMin="116" yMin="-23" xMax="1175" yMax="1541">
      <contour>
        <pt x="133" y="447" on="1"/>
        <pt x="313" y="447" on="1"/>
        <pt x="357" y="199" on="1"/>
        <pt x="370" y="184" on="0"/>
        <pt x="414" y="156" on="0"/>
        <pt x="474" y="134" on="0"/>
        <pt x="549" y="120" on="0"/>
        <pt x="593" y="120" on="1"/>
        <pt x="663" y="120" on="0"/>
        <pt x="761" y="153" on="0"/>
        <pt x="822" y="212" on="0"/>
        <pt x="849" y="291" on="0"/>
        <pt x="849" y="337" on="1"/>
        <pt x="849" y="390" on="0"/>
        <pt x="803" y="475" on="0"/>
        <pt x="717" y="550" on="0"/>
        <pt x="593" y="619" on="0"/>
        <pt x="515" y="657" on="1"/>
        <pt x="475" y="676" on="0"/>
        <pt x="387" y="724" on="0"/>
        <pt x="302" y="785" on="0"/>
        <pt x="224" y="861" on="0"/>
        <pt x="165" y="956" on="0"/>
        <pt x="130" y="1071" on="0"/>
        <pt x="130" y="1140" on="1"/>
        <pt x="130" y="1222" on="0"/>
        <pt x="197" y="1367" on="0"/>
        <pt x="329" y="1477" on="0"/>
        <pt x="525" y="1541" on="0"/>
        <pt x="654" y="1541" on="1"/>
        <pt x="723" y="1541" on="0"/>
        <pt x="855" y="1521" on="0"/>
        <pt x="969" y="1495" on="0"/>
        <pt x="1056" y="1472" on="0"/>
        <pt x="1079" y="1468" on="1"/>
        <pt x="1066" y="1123" on="1"/>
        <pt x="890" y="1123" on="1"/>
        <pt x="849" y="1350" on="1"/>
        <pt x="841" y="1359" on="0"/>
        <pt x="804" y="1378" on="0"/>
        <pt x="755" y="1394" on="0"/>
        <pt x="697" y="1404" on="0"/>
        <pt x="667" y="1404" on="1"/>
        <pt x="605" y="1404" on="0"/>
        <pt x="517" y="1377" on="0"/>
        <pt x="462" y="1327" on="0"/>
        <pt x="436" y="1259" on="0"/>
        <pt x="436" y="1218" on="1"/>
        <pt x="436" y="1160" on="0"/>
        <pt x="488" y="1071" on="0"/>
        <pt x="581" y="996" on="0"/>
        <pt x="709" y="927" on="0"/>
        <pt x="785" y="889" on="1"/>
        <pt x="851" y="856" on="0"/>
        <pt x="989" y="773" on="0"/>
        <pt x="1103" y="665" on="0"/>
        <pt x="1175" y="527" on="0"/>
        <pt x="1175" y="438" on="1"/>
        <pt x="1175" y="358" on="0"/>
        <pt x="1113" y="195" on="0"/>
        <pt x="977" y="61" on="0"/>
        <pt x="761" y="-23" on="0"/>
        <pt x="607" y="-23" on="1"/>
        <pt x="514" y="-23" on="0"/>
        <pt x="357" y="4" on="0"/>
        <pt x="231" y="37" on="0"/>
        <pt x="141" y="66" on="0"/>
        <pt x="116" y="68" on="1"/>
      </contour>
    </TTGlyph>
    <TTGlyph name="Sacute" xMin="116" yMin="-23" xMax="1175" yMax="2014">
      <contour>
        <pt x="133" y="447" on="1"/>
        <pt x="313" y="447" on="1"/>
        <pt x="357" y="199" on="1"/>
        <pt x="370" y="184" on="0"/>
        <pt x="414" y="156" on="0"/>
        <pt x="474" y="134" on="0"/>
        <pt x="549" y="120" on="0"/>
        <pt x="593" y="120" on="1"/>
        <pt x="663" y="120" on="0"/>
        <pt x="761" y="153" on="0"/>
        <pt x="822" y="212" on="0"/>
        <pt x="849" y="291" on="0"/>
        <pt x="849" y="337" on="1"/>
        <pt x="849" y="390" on="0"/>
        <pt x="803" y="475" on="0"/>
        <pt x="717" y="550" on="0"/>
        <pt x="593" y="619" on="0"/>
        <pt x="515" y="657" on="1"/>
        <pt x="475" y="676" on="0"/>
        <pt x="387" y="724" on="0"/>
        <pt x="302" y="785" on="0"/>
        <pt x="224" y="861" on="0"/>
        <pt x="165" y="956" on="0"/>
        <pt x="130" y="1071" on="0"/>
        <pt x="130" y="1140" on="1"/>
        <pt x="130" y="1222" on="0"/>
        <pt x="197" y="1367" on="0"/>
        <pt x="329" y="1477" on="0"/>
        <pt x="525" y="1541" on="0"/>
        <pt x="654" y="1541" on="1"/>
        <pt x="723" y="1541" on="0"/>
        <pt x="855" y="1521" on="0"/>
        <pt x="969" y="1495" on="0"/>
        <pt x="1056" y="1472" on="0"/>
        <pt x="1079" y="1468" on="1"/>
        <pt x="1066" y="1123" on="1"/>
        <pt x="890" y="1123" on="1"/>
        <pt x="849" y="1350" on="1"/>
        <pt x="841" y="1359" on="0"/>
        <pt x="804" y="1378" on="0"/>
        <pt x="755" y="1394" on="0"/>
        <pt x="697" y="1404" on="0"/>
        <pt x="667" y="1404" on="1"/>
        <pt x="605" y="1404" on="0"/>
        <pt x="517" y="1377" on="0"/>
        <pt x="462" y="1327" on="0"/>
        <pt x="436" y="1259" on="0"/>
        <pt x="436" y="1218" on="1"/>
        <pt x="436" y="1160" on="0"/>
        <pt x="488" y="1071" on="0"/>
        <pt x="581" y="996" on="0"/>
        <pt x="709" y="927" on="0"/>
        <pt x="785" y="889" on="1"/>
        <pt x="851" y="856" on="0"/>
        <pt x="989" y="773" on="0"/>
        <pt x="1103" y="665" on="0"/>
        <pt x="1175" y="527" on="0"/>
        <pt x="1175" y="438" on="1"/>
        <pt x="1175" y="358" on="0"/>
        <pt x="1113" y="195" on="0"/>
        <pt x="977" y="61" on="0"/>
        <pt x="761" y="-23" on="0"/>
        <pt x="607" y="-23" on="1"/>
        <pt x="514" y="-23" on="0"/>
        <pt x="357" y="4" on="0"/>
        <pt x="231" y="37" on="0"/>
        <pt x="141" y="66" on="0"/>
        <pt x="116" y="68" on="1"/>
      </contour>
      <contour>
        <pt x="508" y="1692" on="1"/>
        <pt x="825" y="2014" on="1"/>
        <pt x="826" y="2014" on="1"/>
        <pt x="1023" y="1873" on="1"/>
        <pt x="1006" y="1845" on="0"/>
        <pt x="946" y="1788" on="0"/>
        <pt x="873" y="1732" on="0"/>
        <pt x="792" y="1681" on="0"/>
        <pt x="716" y="1640" on="0"/>
        <pt x="649" y="1610" on="0"/>
        <pt x="627" y="1604" on="1"/>
        <pt x="626" y="1604" on="1"/>
      </contour>
    </TTGlyph>
    <TTGlyph name="Scaron" xMin="116" yMin="-23" xMax="1175" yMax="2014">
      <contour>
        <pt x="133" y="447" on="1"/>
        <pt x="313" y="447" on="1"/>
        <pt x="357" y="199" on="1"/>
        <pt x="370" y="184" on="0"/>
        <pt x="414" y="156" on="0"/>
        <pt x="474" y="134" on="0"/>
        <pt x="549" y="120" on="0"/>
        <pt x="593" y="120" on="1"/>
        <pt x="663" y="120" on="0"/>
        <pt x="761" y="153" on="0"/>
        <pt x="822" y="212" on="0"/>
        <pt x="849" y="291" on="0"/>
        <pt x="849" y="337" on="1"/>
        <pt x="849" y="390" on="0"/>
        <pt x="803" y="475" on="0"/>
        <pt x="717" y="550" on="0"/>
        <pt x="593" y="619" on="0"/>
        <pt x="515" y="657" on="1"/>
        <pt x="475" y="676" on="0"/>
        <pt x="387" y="724" on="0"/>
        <pt x="302" y="785" on="0"/>
        <pt x="224" y="861" on="0"/>
        <pt x="165" y="956" on="0"/>
        <pt x="130" y="1071" on="0"/>
        <pt x="130" y="1140" on="1"/>
        <pt x="130" y="1222" on="0"/>
        <pt x="197" y="1367" on="0"/>
        <pt x="329" y="1477" on="0"/>
        <pt x="525" y="1541" on="0"/>
        <pt x="654" y="1541" on="1"/>
        <pt x="723" y="1541" on="0"/>
        <pt x="855" y="1521" on="0"/>
        <pt x="969" y="1495" on="0"/>
        <pt x="1056" y="1472" on="0"/>
        <pt x="1079" y="1468" on="1"/>
        <pt x="1066" y="1123" on="1"/>
        <pt x="890" y="1123" on="1"/>
        <pt x="849" y="1350" on="1"/>
        <pt x="841" y="1359" on="0"/>
        <pt x="804" y="1378" on="0"/>
        <pt x="755" y="1394" on="0"/>
        <pt x="697" y="1404" on="0"/>
        <pt x="667" y="1404" on="1"/>
        <pt x="605" y="1404" on="0"/>
        <pt x="517" y="1377" on="0"/>
        <pt x="462" y="1327" on="0"/>
        <pt x="436" y="1259" on="0"/>
        <pt x="436" y="1218" on="1"/>
        <pt x="436" y="1160" on="0"/>
        <pt x="488" y="1071" on="0"/>
        <pt x="581" y="996" on="0"/>
        <pt x="709" y="927" on="0"/>
        <pt x="785" y="889" on="1"/>
        <pt x="851" y="856" on="0"/>
        <pt x="989" y="773" on="0"/>
        <pt x="1103" y="665" on="0"/>
        <pt x="1175" y="527" on="0"/>
        <pt x="1175" y="438" on="1"/>
        <pt x="1175" y="358" on="0"/>
        <pt x="1113" y="195" on="0"/>
        <pt x="977" y="61" on="0"/>
        <pt x="761" y="-23" on="0"/>
        <pt x="607" y="-23" on="1"/>
        <pt x="514" y="-23" on="0"/>
        <pt x="357" y="4" on="0"/>
        <pt x="231" y="37" on="0"/>
        <pt x="141" y="66" on="0"/>
        <pt x="116" y="68" on="1"/>
      </contour>
      <contour>
        <pt x="287" y="1927" on="1"/>
        <pt x="396" y="2014" on="1"/>
        <pt x="662" y="1823" on="1"/>
        <pt x="941" y="2014" on="1"/>
        <pt x="1046" y="1929" on="1"/>
        <pt x="762" y="1628" on="1"/>
        <pt x="561" y="1628" on="1"/>
      </contour>
    </TTGlyph>
    <TTGlyph name="Scedilla" xMin="116" yMin="-524" xMax="1175" yMax="1541">
      <contour>
        <pt x="133" y="447" on="1"/>
        <pt x="313" y="447" on="1"/>
        <pt x="357" y="199" on="1"/>
        <pt x="370" y="184" on="0"/>
        <pt x="414" y="156" on="0"/>
        <pt x="474" y="134" on="0"/>
        <pt x="549" y="120" on="0"/>
        <pt x="593" y="120" on="1"/>
        <pt x="663" y="120" on="0"/>
        <pt x="761" y="153" on="0"/>
        <pt x="822" y="212" on="0"/>
        <pt x="849" y="291" on="0"/>
        <pt x="849" y="337" on="1"/>
        <pt x="849" y="390" on="0"/>
        <pt x="803" y="475" on="0"/>
        <pt x="717" y="550" on="0"/>
        <pt x="593" y="619" on="0"/>
        <pt x="515" y="657" on="1"/>
        <pt x="475" y="676" on="0"/>
        <pt x="387" y="724" on="0"/>
        <pt x="302" y="785" on="0"/>
        <pt x="224" y="861" on="0"/>
        <pt x="165" y="956" on="0"/>
        <pt x="130" y="1071" on="0"/>
        <pt x="130" y="1140" on="1"/>
        <pt x="130" y="1222" on="0"/>
        <pt x="197" y="1367" on="0"/>
        <pt x="329" y="1477" on="0"/>
        <pt x="525" y="1541" on="0"/>
        <pt x="654" y="1541" on="1"/>
        <pt x="723" y="1541" on="0"/>
        <pt x="855" y="1521" on="0"/>
        <pt x="969" y="1495" on="0"/>
        <pt x="1056" y="1472" on="0"/>
        <pt x="1079" y="1468" on="1"/>
        <pt x="1066" y="1123" on="1"/>
        <pt x="890" y="1123" on="1"/>
        <pt x="849" y="1350" on="1"/>
        <pt x="841" y="1359" on="0"/>
        <pt x="804" y="1378" on="0"/>
        <pt x="755" y="1394" on="0"/>
        <pt x="697" y="1404" on="0"/>
        <pt x="667" y="1404" on="1"/>
        <pt x="605" y="1404" on="0"/>
        <pt x="517" y="1377" on="0"/>
        <pt x="462" y="1327" on="0"/>
        <pt x="436" y="1259" on="0"/>
        <pt x="436" y="1218" on="1"/>
        <pt x="436" y="1160" on="0"/>
        <pt x="488" y="1071" on="0"/>
        <pt x="581" y="996" on="0"/>
        <pt x="709" y="927" on="0"/>
        <pt x="785" y="889" on="1"/>
        <pt x="851" y="856" on="0"/>
        <pt x="989" y="773" on="0"/>
        <pt x="1103" y="665" on="0"/>
        <pt x="1175" y="527" on="0"/>
        <pt x="1175" y="438" on="1"/>
        <pt x="1175" y="366" on="0"/>
        <pt x="1124" y="217" on="0"/>
        <pt x="1014" y="90" on="0"/>
        <pt x="839" y="-2" on="0"/>
        <pt x="715" y="-17" on="1"/>
        <pt x="733" y="-38" on="0"/>
        <pt x="776" y="-99" on="0"/>
        <pt x="812" y="-174" on="0"/>
        <pt x="834" y="-259" on="0"/>
        <pt x="831" y="-302" on="1"/>
        <pt x="828" y="-366" on="0"/>
        <pt x="787" y="-451" on="0"/>
        <pt x="713" y="-502" on="0"/>
        <pt x="607" y="-524" on="0"/>
        <pt x="540" y="-524" on="1"/>
        <pt x="539" y="-524" on="1"/>
        <pt x="522" y="-524" on="0"/>
        <pt x="482" y="-520" on="0"/>
        <pt x="443" y="-512" on="0"/>
        <pt x="408" y="-502" on="0"/>
        <pt x="395" y="-496" on="1"/>
        <pt x="396" y="-308" on="1"/>
        <pt x="417" y="-315" on="0"/>
        <pt x="467" y="-321" on="0"/>
        <pt x="478" y="-321" on="1"/>
        <pt x="479" y="-321" on="1"/>
        <pt x="512" y="-321" on="0"/>
        <pt x="563" y="-313" on="0"/>
        <pt x="598" y="-285" on="0"/>
        <pt x="615" y="-229" on="0"/>
        <pt x="615" y="-182" on="1"/>
        <pt x="615" y="-141" on="0"/>
        <pt x="586" y="-53" on="0"/>
        <pt x="571" y="-22" on="1"/>
        <pt x="485" y="-19" on="0"/>
        <pt x="340" y="8" on="0"/>
        <pt x="224" y="39" on="0"/>
        <pt x="140" y="66" on="0"/>
        <pt x="116" y="68" on="1"/>
      </contour>
    </TTGlyph>
    <TTGlyph name="Scircumflex" xMin="116" yMin="-23" xMax="1175" yMax="2014">
      <contour>
        <pt x="133" y="447" on="1"/>
        <pt x="313" y="447" on="1"/>
        <pt x="357" y="199" on="1"/>
        <pt x="370" y="184" on="0"/>
        <pt x="414" y="156" on="0"/>
        <pt x="474" y="134" on="0"/>
        <pt x="549" y="120" on="0"/>
        <pt x="593" y="120" on="1"/>
        <pt x="663" y="120" on="0"/>
        <pt x="761" y="153" on="0"/>
        <pt x="822" y="212" on="0"/>
        <pt x="849" y="291" on="0"/>
        <pt x="849" y="337" on="1"/>
        <pt x="849" y="390" on="0"/>
        <pt x="803" y="475" on="0"/>
        <pt x="717" y="550" on="0"/>
        <pt x="593" y="619" on="0"/>
        <pt x="515" y="657" on="1"/>
        <pt x="475" y="676" on="0"/>
        <pt x="387" y="724" on="0"/>
        <pt x="302" y="785" on="0"/>
        <pt x="224" y="861" on="0"/>
        <pt x="165" y="956" on="0"/>
        <pt x="130" y="1071" on="0"/>
        <pt x="130" y="1140" on="1"/>
        <pt x="130" y="1222" on="0"/>
        <pt x="197" y="1367" on="0"/>
        <pt x="329" y="1477" on="0"/>
        <pt x="525" y="1541" on="0"/>
        <pt x="654" y="1541" on="1"/>
        <pt x="723" y="1541" on="0"/>
        <pt x="855" y="1521" on="0"/>
        <pt x="969" y="1495" on="0"/>
        <pt x="1056" y="1472" on="0"/>
        <pt x="1079" y="1468" on="1"/>
        <pt x="1066" y="1123" on="1"/>
        <pt x="890" y="1123" on="1"/>
        <pt x="849" y="1350" on="1"/>
        <pt x="841" y="1359" on="0"/>
        <pt x="804" y="1378" on="0"/>
        <pt x="755" y="1394" on="0"/>
        <pt x="697" y="1404" on="0"/>
        <pt x="667" y="1404" on="1"/>
        <pt x="605" y="1404" on="0"/>
        <pt x="517" y="1377" on="0"/>
        <pt x="462" y="1327" on="0"/>
        <pt x="436" y="1259" on="0"/>
        <pt x="436" y="1218" on="1"/>
        <pt x="436" y="1160" on="0"/>
        <pt x="488" y="1071" on="0"/>
        <pt x="581" y="996" on="0"/>
        <pt x="709" y="927" on="0"/>
        <pt x="785" y="889" on="1"/>
        <pt x="851" y="856" on="0"/>
        <pt x="989" y="773" on="0"/>
        <pt x="1103" y="665" on="0"/>
        <pt x="1175" y="527" on="0"/>
        <pt x="1175" y="438" on="1"/>
        <pt x="1175" y="358" on="0"/>
        <pt x="1113" y="195" on="0"/>
        <pt x="977" y="61" on="0"/>
        <pt x="761" y="-23" on="0"/>
        <pt x="607" y="-23" on="1"/>
        <pt x="514" y="-23" on="0"/>
        <pt x="357" y="4" on="0"/>
        <pt x="231" y="37" on="0"/>
        <pt x="141" y="66" on="0"/>
        <pt x="116" y="68" on="1"/>
      </contour>
      <contour>
        <pt x="265" y="1701" on="1"/>
        <pt x="558" y="2014" on="1"/>
        <pt x="758" y="2014" on="1"/>
        <pt x="1052" y="1702" on="1"/>
        <pt x="944" y="1616" on="1"/>
        <pt x="658" y="1813" on="1"/>
        <pt x="370" y="1616" on="1"/>
      </contour>
    </TTGlyph>
    <TTGlyph name="T" xMin="36" yMin="0" xMax="1433" yMax="1522">
      <contour>
        <pt x="303" y="137" on="1"/>
        <pt x="578" y="165" on="1"/>
        <pt x="578" y="1376" on="1"/>
        <pt x="298" y="1358" on="1"/>
        <pt x="222" y="933" on="1"/>
        <pt x="36" y="933" on="1"/>
        <pt x="66" y="1522" on="1"/>
        <pt x="1402" y="1522" on="1"/>
        <pt x="1433" y="933" on="1"/>
        <pt x="1246" y="933" on="1"/>
        <pt x="1172" y="1358" on="1"/>
        <pt x="899" y="1376" on="1"/>
        <pt x="899" y="164" on="1"/>
        <pt x="1191" y="137" on="1"/>
        <pt x="1191" y="0" on="1"/>
        <pt x="303" y="0" on="1"/>
      </contour>
    </TTGlyph>
    <TTGlyph name="Tbar" xMin="42" yMin="0" xMax="1439" yMax="1522">
      <contour>
        <pt x="309" y="137" on="1"/>
        <pt x="584" y="165" on="1"/>
        <pt x="584" y="602" on="1"/>
        <pt x="365" y="602" on="1"/>
        <pt x="365" y="751" on="1"/>
        <pt x="584" y="751" on="1"/>
        <pt x="584" y="1376" on="1"/>
        <pt x="304" y="1358" on="1"/>
        <pt x="228" y="933" on="1"/>
        <pt x="42" y="933" on="1"/>
        <pt x="72" y="1522" on="1"/>
        <pt x="1408" y="1522" on="1"/>
        <pt x="1439" y="933" on="1"/>
        <pt x="1252" y="933" on="1"/>
        <pt x="1178" y="1358" on="1"/>
        <pt x="905" y="1376" on="1"/>
        <pt x="905" y="751" on="1"/>
        <pt x="1113" y="751" on="1"/>
        <pt x="1113" y="602" on="1"/>
        <pt x="905" y="602" on="1"/>
        <pt x="905" y="164" on="1"/>
        <pt x="1197" y="137" on="1"/>
        <pt x="1197" y="0" on="1"/>
        <pt x="309" y="0" on="1"/>
      </contour>
    </TTGlyph>
    <TTGlyph name="Tcaron" xMin="36" yMin="0" xMax="1433" yMax="2014">
      <contour>
        <pt x="381" y="1927" on="1"/>
        <pt x="490" y="2014" on="1"/>
        <pt x="756" y="1823" on="1"/>
        <pt x="1035" y="2014" on="1"/>
        <pt x="1140" y="1929" on="1"/>
        <pt x="856" y="1628" on="1"/>
        <pt x="655" y="1628" on="1"/>
      </contour>
      <contour>
        <pt x="303" y="137" on="1"/>
        <pt x="578" y="165" on="1"/>
        <pt x="578" y="1376" on="1"/>
        <pt x="298" y="1358" on="1"/>
        <pt x="222" y="933" on="1"/>
        <pt x="36" y="933" on="1"/>
        <pt x="66" y="1522" on="1"/>
        <pt x="1402" y="1522" on="1"/>
        <pt x="1433" y="933" on="1"/>
        <pt x="1246" y="933" on="1"/>
        <pt x="1172" y="1358" on="1"/>
        <pt x="899" y="1376" on="1"/>
        <pt x="899" y="164" on="1"/>
        <pt x="1191" y="137" on="1"/>
        <pt x="1191" y="0" on="1"/>
        <pt x="303" y="0" on="1"/>
      </contour>
    </TTGlyph>
    <TTGlyph name="Thorn" xMin="85" yMin="0" xMax="1377" yMax="1522">
      <contour>
        <pt x="85" y="126" on="1"/>
        <pt x="249" y="153" on="1"/>
        <pt x="249" y="1368" on="1"/>
        <pt x="87" y="1399" on="1"/>
        <pt x="87" y="1522" on="1"/>
        <pt x="736" y="1522" on="1"/>
        <pt x="736" y="1399" on="1"/>
        <pt x="564" y="1368" on="1"/>
        <pt x="564" y="1172" on="1"/>
        <pt x="604" y="1175" on="0"/>
        <pt x="676" y="1182" on="0"/>
        <pt x="751" y="1188" on="0"/>
        <pt x="832" y="1192" on="0"/>
        <pt x="882" y="1192" on="1"/>
        <pt x="1123" y="1192" on="0"/>
        <pt x="1377" y="1000" on="0"/>
        <pt x="1377" y="795" on="1"/>
        <pt x="1377" y="676" on="0"/>
        <pt x="1300" y="502" on="0"/>
        <pt x="1156" y="389" on="0"/>
        <pt x="950" y="334" on="0"/>
        <pt x="821" y="334" on="1"/>
        <pt x="733" y="334" on="0"/>
        <pt x="605" y="342" on="0"/>
        <pt x="564" y="346" on="1"/>
        <pt x="564" y="153" on="1"/>
        <pt x="769" y="126" on="1"/>
        <pt x="769" y="0" on="1"/>
        <pt x="85" y="0" on="1"/>
      </contour>
      <contour>
        <pt x="564" y="478" on="1"/>
        <pt x="624" y="470" on="0"/>
        <pt x="722" y="469" on="0"/>
        <pt x="770" y="469" on="1"/>
        <pt x="827" y="469" on="0"/>
        <pt x="926" y="500" on="0"/>
        <pt x="999" y="573" on="0"/>
        <pt x="1041" y="693" on="0"/>
        <pt x="1041" y="782" on="1"/>
        <pt x="1041" y="847" on="0"/>
        <pt x="1009" y="947" on="0"/>
        <pt x="937" y="1015" on="0"/>
        <pt x="822" y="1049" on="0"/>
        <pt x="739" y="1048" on="1"/>
        <pt x="687" y="1047" on="0"/>
        <pt x="598" y="1037" on="0"/>
        <pt x="564" y="1032" on="1"/>
      </contour>
    </TTGlyph>
    <TTGlyph name="U" xMin="27" yMin="-16" xMax="1499" yMax="1522">
      <contour>
        <pt x="167" y="1356" on="1"/>
        <pt x="27" y="1388" on="1"/>
        <pt x="27" y="1522" on="1"/>
        <pt x="668" y="1522" on="1"/>
        <pt x="668" y="1388" on="1"/>
        <pt x="497" y="1357" on="1"/>
        <pt x="497" y="591" on="1"/>
        <pt x="497" y="474" on="0"/>
        <pt x="541" y="298" on="0"/>
        <pt x="622" y="182" on="0"/>
        <pt x="739" y="124" on="0"/>
        <pt x="811" y="124" on="1"/>
        <pt x="902" y="124" on="0"/>
        <pt x="1034" y="197" on="0"/>
        <pt x="1118" y="323" on="0"/>
        <pt x="1158" y="494" on="0"/>
        <pt x="1158" y="592" on="1"/>
        <pt x="1158" y="1357" on="1"/>
        <pt x="989" y="1388" on="1"/>
        <pt x="989" y="1522" on="1"/>
        <pt x="1499" y="1522" on="1"/>
        <pt x="1499" y="1388" on="1"/>
        <pt x="1362" y="1358" on="1"/>
        <pt x="1362" y="600" on="1"/>
        <pt x="1362" y="438" on="0"/>
        <pt x="1275" y="205" on="0"/>
        <pt x="1122" y="55" on="0"/>
        <pt x="912" y="-16" on="0"/>
        <pt x="790" y="-16" on="1"/>
        <pt x="476" y="-16" on="0"/>
        <pt x="167" y="296" on="0"/>
        <pt x="167" y="626" on="1"/>
      </contour>
    </TTGlyph>
    <TTGlyph name="Uacute" xMin="27" yMin="-16" xMax="1499" yMax="2014">
      <contour>
        <pt x="674" y="1692" on="1"/>
        <pt x="991" y="2014" on="1"/>
        <pt x="992" y="2014" on="1"/>
        <pt x="1189" y="1873" on="1"/>
        <pt x="1172" y="1845" on="0"/>
        <pt x="1112" y="1788" on="0"/>
        <pt x="1039" y="1732" on="0"/>
        <pt x="958" y="1681" on="0"/>
        <pt x="882" y="1640" on="0"/>
        <pt x="815" y="1610" on="0"/>
        <pt x="793" y="1604" on="1"/>
        <pt x="792" y="1604" on="1"/>
      </contour>
      <contour>
        <pt x="167" y="1356" on="1"/>
        <pt x="27" y="1388" on="1"/>
        <pt x="27" y="1522" on="1"/>
        <pt x="668" y="1522" on="1"/>
        <pt x="668" y="1388" on="1"/>
        <pt x="497" y="1357" on="1"/>
        <pt x="497" y="591" on="1"/>
        <pt x="497" y="474" on="0"/>
        <pt x="541" y="298" on="0"/>
        <pt x="622" y="182" on="0"/>
        <pt x="739" y="124" on="0"/>
        <pt x="811" y="124" on="1"/>
        <pt x="902" y="124" on="0"/>
        <pt x="1034" y="197" on="0"/>
        <pt x="1118" y="323" on="0"/>
        <pt x="1158" y="494" on="0"/>
        <pt x="1158" y="592" on="1"/>
        <pt x="1158" y="1357" on="1"/>
        <pt x="989" y="1388" on="1"/>
        <pt x="989" y="1522" on="1"/>
        <pt x="1499" y="1522" on="1"/>
        <pt x="1499" y="1388" on="1"/>
        <pt x="1362" y="1358" on="1"/>
        <pt x="1362" y="600" on="1"/>
        <pt x="1362" y="438" on="0"/>
        <pt x="1275" y="205" on="0"/>
        <pt x="1122" y="55" on="0"/>
        <pt x="912" y="-16" on="0"/>
        <pt x="790" y="-16" on="1"/>
        <pt x="476" y="-16" on="0"/>
        <pt x="167" y="296" on="0"/>
        <pt x="167" y="626" on="1"/>
      </contour>
    </TTGlyph>
</ttFont>
